<svg width="73" height="72" viewBox="0 0 73 72" fill="none" xmlns="http://www.w3.org/2000/svg">
<rect x="0.333374" width="72" height="72" rx="8" fill="white"/>
<g clip-path="url(#clip0_65_2577)">
<path d="M63.4464 31.0027H57.7585C57.2689 31.0027 56.8716 31.4054 56.8716 31.9016C56.8716 32.3978 57.2689 32.8005 57.7585 32.8005H63.4464C63.9359 32.8005 64.3332 32.3978 64.3332 31.9016C64.3332 31.4054 63.9359 31.0027 63.4464 31.0027Z" fill="#1B76E2"/>
<path d="M60.6011 33.3979C60.1115 33.3979 59.7142 33.8006 59.7142 34.2969V41.0985C59.7142 41.5947 60.1115 41.9974 60.6011 41.9974C61.0907 41.9974 61.488 41.5947 61.488 41.0985V34.2969C61.488 33.8006 61.0907 33.3979 60.6011 33.3979Z" fill="#1B76E2"/>
<path d="M15.908 34.6971H11.107V32.8005H15.908C16.3976 32.8005 16.7949 32.3978 16.7949 31.9016C16.7949 31.4054 16.3976 31.0027 15.908 31.0027H10.2201C9.73056 31.0027 9.33325 31.4054 9.33325 31.9016V41.0986C9.33325 41.5948 9.73056 41.9975 10.2201 41.9975C10.7097 41.9975 11.107 41.5948 11.107 41.0986V36.4949H15.908C16.3976 36.4949 16.7949 36.0922 16.7949 35.596C16.7949 35.0998 16.3976 34.6971 15.908 34.6971Z" fill="#1B76E2"/>
<path d="M34.9224 37.3938H31.967C31.4774 37.3938 31.0801 37.7965 31.0801 38.2927C31.0801 38.7889 31.4774 39.1916 31.967 39.1916H34.0355V41.0986C34.0355 41.5948 34.4328 41.9975 34.9224 41.9975C35.412 41.9975 35.8093 41.5948 35.8093 41.0986V38.2927C35.8093 37.7965 35.412 37.3938 34.9224 37.3938Z" fill="#1B76E2"/>
<path d="M34.9223 31.0027H29.2344C28.7448 31.0027 28.3475 31.4054 28.3475 31.9016V41.0986C28.3475 41.5948 28.7448 41.9975 29.2344 41.9975C29.724 41.9975 30.1213 41.5948 30.1213 41.0986V36.4949H34.9223C35.4119 36.4949 35.8092 36.0922 35.8092 35.596V31.9016C35.8092 31.4054 35.4119 31.0027 34.9223 31.0027ZM30.1213 32.8005H34.0354V34.6971H30.1213V32.8005Z" fill="#1B76E2"/>
<path d="M25.4151 31H19.7272C19.2376 31 18.8403 31.4027 18.8403 31.8989V41.0959C18.8403 41.5921 19.2376 41.9948 19.7272 41.9948H25.4151C25.9047 41.9948 26.302 41.5921 26.302 41.0959V31.8989C26.302 31.4027 25.9047 31 25.4151 31ZM24.8512 39.5345H23.1517V40.1242C23.1517 40.449 22.8929 40.714 22.5699 40.714C22.2469 40.714 21.988 40.4516 21.988 40.1242V39.5345H20.2886C19.8426 39.5345 19.5632 39.0461 19.7862 38.6538L21.0422 36.4506H20.8679C20.4193 36.4506 20.1399 35.9596 20.3629 35.5673L22.0649 32.5796C22.2879 32.1873 22.8493 32.1873 23.0723 32.5796L24.7743 35.5673C24.9973 35.9596 24.7179 36.4506 24.2693 36.4506H24.095L25.351 38.6538C25.574 39.0461 25.2946 39.5345 24.8486 39.5345H24.8512Z" fill="#1B76E2"/>
<path d="M39.6311 37.3938H44.4321C44.9217 37.3938 45.319 36.9911 45.319 36.4949C45.319 35.9987 44.9217 35.596 44.4321 35.596H39.6311V32.8005H44.4321C44.9217 32.8005 45.319 32.3978 45.319 31.9016C45.319 31.4054 44.9217 31.0027 44.4295 31.0027H38.7416C38.252 31.0027 37.8547 31.4054 37.8547 31.9016V41.0986C37.8547 41.5948 38.252 41.9975 38.7416 41.9975H44.4295C44.9191 41.9975 45.3164 41.5948 45.3164 41.0986C45.3164 40.6024 44.9191 40.1997 44.4295 40.1997H39.6285V37.3938H39.6311Z" fill="#1B76E2"/>
<path d="M53.9366 35.596H49.1356V32.8005H53.9366C54.4262 32.8005 54.8235 32.3978 54.8235 31.9016C54.8235 31.4054 54.4287 31.0027 53.9366 31.0027H48.2487C47.7591 31.0027 47.3618 31.4054 47.3618 31.9016V36.4949C47.3618 36.9911 47.7591 37.3938 48.2487 37.3938H53.0497V40.1997H48.2487C47.7591 40.1997 47.3618 40.6024 47.3618 41.0986C47.3618 41.5948 47.7591 41.9975 48.2487 41.9975H53.9366C54.4262 41.9975 54.8235 41.5948 54.8235 41.0986V36.4949C54.8235 35.9987 54.4262 35.596 53.9366 35.596Z" fill="#1B76E2"/>
</g>
<defs>
<clipPath id="clip0_65_2577">
<rect width="55" height="11" fill="white" transform="translate(9.33337 31)"/>
</clipPath>
</defs>
</svg>
