<svg width="73" height="72" viewBox="0 0 73 72" fill="none" xmlns="http://www.w3.org/2000/svg">
<rect x="0.666992" width="72" height="72" rx="8" fill="white"/>
<path d="M48.3325 45.4892L47.5085 45.4009V44.365C47.5085 44.0237 47.2319 43.747 46.8905 43.747C46.5491 43.747 46.2725 44.0237 46.2725 44.365V45.7482L45.4426 46.8665C45.2425 47.1373 45.2954 47.5257 45.5721 47.7258C45.6839 47.8082 45.8134 47.8494 45.937 47.8494C46.1253 47.8494 46.3137 47.7612 46.4314 47.6022L47.173 46.6017L48.1972 46.7076H48.2619C48.5739 46.7076 48.8387 46.4722 48.874 46.1543C48.9093 45.8188 48.6621 45.5128 48.3266 45.4775L48.3325 45.4892Z" fill="#1A1A1A"/>
<path fill-rule="evenodd" clip-rule="evenodd" d="M41.0697 38.6735C41.6701 37.9848 42.4235 37.6317 43.1298 37.7082H43.1357C43.7007 37.767 44.1775 38.0966 44.4718 38.6323C45.078 39.7329 44.7602 41.5045 43.7478 42.6582C43.1945 43.288 42.5235 43.6352 41.8761 43.6352C41.8172 43.6352 41.7525 43.6293 41.6877 43.6234C41.1227 43.5646 40.646 43.235 40.3517 42.6994C39.7395 41.5987 40.0574 39.8271 41.0697 38.6735ZM41.8172 42.4051C42.1056 42.4345 42.4941 42.2226 42.8178 41.8518C43.477 41.0984 43.7419 39.8683 43.3888 39.2267C43.2887 39.0443 43.1651 38.9501 43.0003 38.9324H42.9414C42.6589 38.9324 42.3058 39.1384 41.9997 39.4857C41.3405 40.2391 41.0756 41.4692 41.4288 42.1108C41.5288 42.2932 41.6524 42.3874 41.8172 42.4051Z" fill="#1A1A1A"/>
<path fill-rule="evenodd" clip-rule="evenodd" d="M49.834 33.8235C49.1277 33.747 48.3802 34.1001 47.774 34.7888C46.7616 35.9424 46.4438 37.714 47.05 38.8147C47.3443 39.3503 47.8211 39.6799 48.3861 39.7387C48.4508 39.7446 48.5156 39.7505 48.5745 39.7505C49.2219 39.7505 49.8929 39.4033 50.4462 38.7735C51.4585 37.6198 51.7764 35.8482 51.1642 34.7476C50.8699 34.2119 50.3932 33.8823 49.8281 33.8235H49.834ZM49.5221 37.9612C49.1984 38.332 48.8099 38.5439 48.5215 38.5145C48.3567 38.4968 48.2331 38.4027 48.133 38.2202C47.7799 37.5786 48.0447 36.3485 48.704 35.5951C49.01 35.2478 49.3632 35.0418 49.6457 35.0418H49.7045C49.8694 35.0595 49.993 35.1537 50.093 35.3361C50.4462 35.9777 50.1813 37.2078 49.5221 37.9612Z" fill="#1A1A1A"/>
<path fill-rule="evenodd" clip-rule="evenodd" d="M55.9726 27.0489C55.9079 26.2367 55.6254 25.4597 55.1722 24.8005C55.1251 24.7122 55.0721 24.6239 55.0074 24.5474L50.6224 19.4797C50.4399 19.2678 50.1574 19.1619 49.8749 19.2031C49.5983 19.2443 49.357 19.4267 49.2451 19.6857L48.8567 20.5804L38.4093 14.5592C37.9267 14.2825 37.3969 14.1059 36.8613 14.0353C36.5082 13.9882 36.1491 13.9882 35.796 14.0353C35.2545 14.1059 34.7306 14.2766 34.248 14.5592L18.9213 23.3997L18.8153 23.4703L18.6682 23.5586C17.4322 24.2708 16.667 25.601 16.667 27.0254V45.1008C16.667 46.5252 17.4322 47.8554 18.6682 48.5676L18.6917 48.5793L18.7447 48.6146L34.0714 57.4611C34.0714 57.4611 34.1126 57.4787 34.1303 57.4905L34.3186 57.6023C34.9366 57.9614 35.6312 58.1379 36.3198 58.1379C37.0085 58.1379 37.703 57.9614 38.321 57.6023L38.5093 57.4964L38.58 57.4611L53.9008 48.6146C53.9008 48.6146 53.942 48.5852 53.9656 48.5734L53.9832 48.5617C55.2193 47.8495 55.9844 46.5193 55.9844 45.0949V27.3138C55.9844 27.2196 55.9785 27.1313 55.9668 27.0371L55.9726 27.0489ZM19.71 24.8535L35.0956 15.9718C35.3781 15.807 35.69 15.7069 36.0079 15.6657C36.1138 15.6539 36.2198 15.648 36.3257 15.648C36.4258 15.648 36.5258 15.6539 36.6259 15.6657H36.6435C36.9614 15.7069 37.2733 15.807 37.5558 15.9718L48.1974 22.1166L45.284 28.85L41.6583 24.6651C41.4758 24.4533 41.1933 24.3473 40.9108 24.3885C40.6341 24.4297 40.3928 24.6122 40.281 24.8712L36.0255 34.7005C35.69 34.6593 35.3604 34.5592 35.0602 34.3827L19.7453 25.5363C19.5628 25.4303 19.5393 25.2537 19.5393 25.1831C19.5393 25.1184 19.5628 24.9653 19.7041 24.8594L19.71 24.8535ZM54.3481 45.0302C54.3481 45.8954 53.8832 46.7017 53.1474 47.1608L37.7383 56.0602C37.5676 56.1426 37.4146 56.0838 37.3557 56.0485C37.2969 56.0131 37.1497 55.9072 37.1497 55.6953V38.0025C37.1497 37.1137 37.6206 36.2897 38.3857 35.8365L46.1609 31.3456H46.1668L53.7419 26.9724C53.8125 26.9371 53.8773 26.9194 53.9361 26.9194C54.0303 26.9194 54.1068 26.9547 54.1421 26.9783C54.1951 27.0077 54.2952 27.0901 54.3305 27.2431C54.3305 27.2725 54.3334 27.3019 54.3364 27.3314C54.3393 27.3608 54.3423 27.3903 54.3423 27.4197V45.0419L54.3481 45.0302Z" fill="#1A1A1A"/>
</svg>
