<svg width="73" height="72" viewBox="0 0 73 72" fill="none" xmlns="http://www.w3.org/2000/svg">
<rect x="0.666992" width="72" height="72" rx="8" fill="white"/>
<g clip-path="url(#clip0_276_5957)">
<path d="M11.9856 41.5693H8.8291L12.3081 32H15.4646L11.9856 41.5693Z" fill="black"/>
<path d="M15.8019 41.5693H18.9583L15.4794 32H12.3242L15.8019 41.5693Z" fill="black"/>
<path d="M11.0049 38.2531V40.6545H16.6527V38.2531H11.0049Z" fill="black"/>
<path d="M30.7469 41.5693H27.5918L31.0708 32H34.2259L30.7469 41.5693Z" fill="black"/>
<path d="M34.5649 41.5693H37.7201L34.2424 32H31.0859L34.5649 41.5693Z" fill="black"/>
<path d="M29.7676 38.2531V40.6545H35.4154V38.2531H29.7676Z" fill="black"/>
<path d="M58.9862 32H55.8311V41.5693H58.9862V32Z" fill="black"/>
<path d="M58.9862 32H55.8311L61.3485 41.5693H64.505L58.9862 32Z" fill="black"/>
<path d="M64.5038 32H61.3486V41.5693H64.5038V32Z" fill="black"/>
<path d="M44.0596 39.1679V41.5693H54.991V39.1679H44.0596Z" fill="black"/>
<path d="M48.0645 32V34.4014H54.9902V32H48.0645Z" fill="black"/>
<path d="M48.0645 35.5839V37.9854H54.9902V35.5839H48.0645Z" fill="black"/>
<path d="M41.7147 32H38.5596V41.5693H41.7147V32Z" fill="black"/>
<path d="M51.2206 32H48.0654V41.5693H51.2206V32Z" fill="black"/>
<path d="M47.2335 32H44.0784L40.9635 37.4002L38.5596 41.5693H41.716L47.2335 32Z" fill="black"/>
<path d="M42.8969 34.0476L41.3193 36.784L44.0781 41.5693H47.2332L42.8969 34.0476Z" fill="black"/>
<path d="M27.0989 32L25.1975 37.2293L24.222 34.5454H22.3515L21.3759 37.2293L19.4745 32H16.3193L19.7983 41.5693H22.9535L23.2867 40.6532L23.62 41.5693H26.7764L30.2541 32H27.0989Z" fill="black"/>
<path d="M43.7214 43.7434C44.0074 43.7466 44.2861 43.8339 44.5229 43.9947C44.7596 44.1554 44.9438 44.3823 45.0526 44.6471C45.1613 44.9119 45.1898 45.203 45.1345 45.4839C45.0791 45.7649 44.9424 46.0233 44.7413 46.2269C44.6099 46.3645 44.4517 46.4735 44.2765 46.5473C44.1013 46.6212 43.9128 46.6582 43.7227 46.6561H42.6571V47.7982H41.8227V43.7434H43.7214ZM42.6571 45.7708H43.6125C43.7422 45.7641 43.8644 45.7079 43.9538 45.6136C44.0432 45.5193 44.0931 45.3943 44.0931 45.2643C44.0931 45.1343 44.0432 45.0093 43.9538 44.915C43.8644 44.8208 43.7422 44.7645 43.6125 44.7578H42.6571V45.7708ZM43.7227 43.5416H41.6211V48H42.8587V46.8579H43.7227C44.1538 46.8456 44.5631 46.6655 44.8637 46.3559C45.1643 46.0462 45.3324 45.6315 45.3324 45.1997C45.3324 44.768 45.1643 44.3532 44.8637 44.0436C44.5631 43.734 44.1538 43.5539 43.7227 43.5416ZM42.8587 45.569V44.9596H43.6125C43.6526 44.9594 43.6923 44.9673 43.7292 44.9828C43.7661 44.9983 43.7996 45.021 43.8275 45.0497C43.8843 45.107 43.9162 45.1843 43.9162 45.265C43.9162 45.3456 43.8843 45.423 43.8275 45.4802C43.7995 45.5088 43.766 45.5313 43.7291 45.5466C43.6921 45.5618 43.6525 45.5695 43.6125 45.569H42.8587Z" fill="black"/>
<path d="M27.2762 43.5376H6.66699L27.2762 44.4645V43.5376Z" fill="black"/>
<path d="M46.0576 43.5376H66.6668L46.0576 44.4645V43.5376Z" fill="black"/>
<path d="M37.4564 43.7394L35.9783 47.7983H34.7918L34.6856 47.5036L34.4962 46.983L34.3067 47.5036L34.1992 47.7983H33.0046L31.5265 43.7394H32.5692L33.4077 46.0453L33.5972 46.5659L33.7867 46.0453L34.4881 44.1147L35.0337 45.6175L35.1895 46.0453L35.379 46.5659L35.5685 46.0453L36.407 43.7394H37.4484M37.7373 43.5376H36.2739L35.3871 45.9767L35.2312 45.5489L34.5002 43.5376H34.4908L33.6052 45.9767L32.7184 43.5376H31.2402L32.8702 48.0001H34.3416L34.4975 47.5722L34.652 48.0001H36.1302L37.7521 43.5376H37.7373Z" fill="black"/>
<path d="M39.4624 43.7394L40.9405 47.7983H39.8977L39.7916 47.5036L39.7432 47.3691H37.9963L37.948 47.5036L37.8418 47.7983H36.799L38.2772 43.7394H39.4731M38.2637 46.6547H39.4946L39.3965 46.3857L39.0687 45.4843L38.8792 44.9636L38.6897 45.4843L38.3618 46.3857L38.2637 46.6547ZM39.6182 43.5376H38.1401L36.498 48.0001H37.9762L38.1307 47.5736H39.6008L39.7553 48.0001H41.2334L39.6035 43.5376H39.6182ZM38.5513 46.4529L38.8792 45.5516L39.2071 46.4529H38.5513Z" fill="black"/>
<path d="M30.6931 43.7433L30.9954 44.5774H29.0376L29.3063 44.907C29.3157 44.9178 29.3265 44.9313 30.7455 46.4098C30.8419 46.5499 30.8939 46.7159 30.8946 46.886C30.8964 47.0048 30.8748 47.1227 30.831 47.233C30.7871 47.3434 30.722 47.444 30.6393 47.5291C30.5644 47.6141 30.4721 47.6822 30.3687 47.7286C30.2654 47.775 30.1533 47.7987 30.04 47.7982H27.9612V46.9614H30.1636L29.8371 46.6196L28.4073 45.1277C28.3052 44.9921 28.2539 44.825 28.2622 44.6555C28.2598 44.5369 28.281 44.419 28.3243 44.3087C28.3677 44.1983 28.4324 44.0976 28.5148 44.0124C28.5894 43.9269 28.6816 43.8586 28.7851 43.8122C28.8885 43.7658 29.0008 43.7423 29.1141 43.7433H30.6931ZM30.8274 43.5415H29.1074C28.9664 43.5404 28.8268 43.5695 28.698 43.6268C28.5691 43.6841 28.454 43.7683 28.3603 43.8738C28.1598 44.0841 28.0497 44.3648 28.0539 44.6555C28.0451 44.8746 28.1147 45.0898 28.2501 45.2622L29.6852 46.7596H27.7637V48H30.0481C30.1888 48.0006 30.3281 47.9714 30.4566 47.9141C30.5852 47.8568 30.7001 47.7728 30.7938 47.6677C30.9957 47.458 31.1072 47.1773 31.1042 46.886C31.1029 46.67 31.0354 46.4596 30.9107 46.2833C29.9594 45.2923 29.4783 44.7913 29.4676 44.7806H31.283L30.8342 43.5429L30.8274 43.5415Z" fill="black"/>
</g>
<defs>
<clipPath id="clip0_276_5957">
<rect width="60" height="16" fill="white" transform="translate(6.66699 32)"/>
</clipPath>
</defs>
</svg>
