<svg width="73" height="72" viewBox="0 0 73 72" fill="none" xmlns="http://www.w3.org/2000/svg">
<rect x="0.333008" width="72" height="72" rx="8" fill="white"/>
<path d="M34.6744 30C34.1337 30 33.6965 30.4335 33.6965 30.9697V38.6873L28.9969 34.0276C28.805 33.8373 28.5513 33.743 28.2993 33.7446C28.0473 33.743 27.7953 33.8373 27.6017 34.0276L22.9022 38.6873V30.9697C22.9022 30.4335 22.465 30 21.9242 30C21.3852 30 20.9463 30.4335 20.9463 30.9697V41.0287C20.9463 41.0899 20.953 41.1495 20.963 41.2074C20.963 41.2107 20.9646 41.214 20.9646 41.2173C20.9763 41.2752 20.993 41.3315 21.0147 41.3861C21.0164 41.3894 21.0181 41.3944 21.0197 41.3993C21.0431 41.4539 21.0715 41.5069 21.1032 41.5565C21.1048 41.5598 21.1065 41.5632 21.1098 41.5665C21.1816 41.674 21.2751 41.7667 21.3835 41.8378C21.3869 41.8395 21.3902 41.8428 21.3935 41.8445C21.4436 41.8759 21.497 41.904 21.5521 41.9272C21.5554 41.9288 21.5604 41.9305 21.5638 41.9322C21.6188 41.9537 21.6756 41.9702 21.734 41.9818C21.7373 41.9818 21.7407 41.9835 21.744 41.9835C21.8024 41.995 21.8625 42 21.9242 42C21.986 42 22.0461 41.9934 22.1045 41.9835C22.1078 41.9835 22.1112 41.9835 22.1145 41.9818C22.1729 41.9702 22.2297 41.9537 22.2847 41.9322C22.2881 41.9305 22.2931 41.9288 22.2964 41.9272C22.3515 41.904 22.4049 41.8759 22.4549 41.8445C22.4583 41.8428 22.4616 41.8395 22.465 41.8378C22.5184 41.8014 22.5701 41.7617 22.6152 41.7154L28.2993 36.0794L33.9835 41.7154C34.0286 41.7601 34.0803 41.8014 34.1337 41.8378C34.137 41.8395 34.1404 41.8428 34.1437 41.8445C34.1938 41.8759 34.2472 41.904 34.3023 41.9272C34.3056 41.9288 34.3106 41.9305 34.3139 41.9322C34.369 41.9537 34.4258 41.9702 34.4842 41.9818C34.4875 41.9818 34.4908 41.9835 34.4942 41.9835C34.5526 41.995 34.6127 42 34.6744 42C34.7362 42 34.7962 41.9934 34.8547 41.9835C34.858 41.9835 34.8613 41.9835 34.8647 41.9818C34.9231 41.9702 34.9798 41.9537 35.0349 41.9322C35.0382 41.9305 35.0432 41.9288 35.0466 41.9272C35.1016 41.904 35.1551 41.8759 35.2051 41.8445C35.2085 41.8428 35.2118 41.8412 35.2151 41.8378C35.3236 41.7667 35.4171 41.674 35.4888 41.5665C35.4905 41.5632 35.4938 41.5598 35.4955 41.5565C35.5272 41.5069 35.5556 41.4539 35.5789 41.3993C35.5806 41.396 35.5823 41.3911 35.584 41.3878C35.6056 41.3332 35.6223 41.2769 35.634 41.219C35.634 41.2157 35.6357 41.2124 35.6357 41.209C35.6474 41.1511 35.6524 41.0916 35.6524 41.0303V30.9713C35.6507 30.4335 35.2135 30 34.6744 30Z" fill="#3070D6"/>
<path d="M56.8185 40.059H53.701V30.9697C53.701 30.4335 53.2638 30 52.7231 30C52.1824 30 51.7451 30.4335 51.7451 30.9697V41.0287C51.7451 41.5648 52.1824 41.9983 52.7231 41.9983H56.8185C57.3592 41.9983 57.7964 41.5648 57.7964 41.0287C57.7948 40.4926 57.3575 40.059 56.8185 40.059Z" fill="#3070D6"/>
<path d="M65.3546 40.059H62.2372V30.9697C62.2372 30.4335 61.7999 30 61.2592 30C60.7185 30 60.2812 30.4335 60.2812 30.9697V41.0287C60.2812 41.5648 60.7185 41.9983 61.2592 41.9983H65.3546C65.8937 41.9983 66.3326 41.5648 66.3326 41.0287C66.3309 40.4926 65.8937 40.059 65.3546 40.059Z" fill="#3070D6"/>
<path d="M19.4177 36.0033C19.4094 35.7567 19.3142 35.5135 19.124 35.3265C18.7285 34.9343 18.0876 34.9343 17.6921 35.3265C17.5035 35.5135 17.4067 35.7584 17.3984 36.0033H17.3934C17.3934 37.0557 16.9762 38.0733 16.2218 38.8196C14.6548 40.3734 12.1064 40.3734 10.5393 38.8196L16.861 32.5515C16.8643 32.5482 16.8677 32.5449 16.871 32.5416L16.8777 32.535C17.0546 32.3546 17.1631 32.1081 17.1631 31.8367C17.1631 31.4727 16.9661 31.1566 16.6724 30.9812C16.6641 30.9746 16.6541 30.968 16.6457 30.9614C16.6457 30.9614 16.6441 30.9614 16.6441 30.9597C16.3754 30.7876 16.095 30.642 15.8063 30.5179C15.7796 30.5063 15.7529 30.4914 15.7245 30.4798C15.6127 30.4335 15.4992 30.3938 15.3841 30.3541C15.3256 30.3342 15.2689 30.3127 15.2105 30.2929C15.1037 30.2598 14.9952 30.23 14.8867 30.2035C14.8183 30.187 14.7516 30.1688 14.6831 30.1539C14.578 30.1307 14.4745 30.1108 14.3677 30.0943C14.2943 30.0827 14.2192 30.0728 14.1458 30.0629C14.044 30.0496 13.9405 30.038 13.8387 30.0298C13.7602 30.0231 13.6801 30.0215 13.6017 30.0182C13.5032 30.0149 13.4031 30.0099 13.3046 30.0116C13.2162 30.0132 13.1277 30.0198 13.0393 30.0248C12.9492 30.0298 12.8574 30.0314 12.7673 30.0413C12.5954 30.0579 12.4251 30.0827 12.2566 30.1142C12.1848 30.1274 12.1131 30.1472 12.0413 30.1638C11.9345 30.187 11.8277 30.2118 11.7209 30.2416C11.6458 30.2631 11.5724 30.2879 11.4973 30.3127C11.3955 30.3458 11.2953 30.3789 11.1952 30.417C11.1218 30.4451 11.05 30.4765 10.9766 30.5063C10.8764 30.5493 10.7796 30.594 10.6812 30.642C10.6111 30.6768 10.5427 30.7115 10.4742 30.7479C10.3741 30.8025 10.2773 30.8604 10.1805 30.92C10.1171 30.9597 10.0554 30.9961 9.9936 31.0375C9.88847 31.1086 9.78666 31.1848 9.68653 31.2625C9.63647 31.3006 9.58473 31.337 9.53633 31.3767C9.3878 31.4975 9.24428 31.6266 9.1041 31.7639C6.74264 34.1053 6.74264 37.8996 9.1041 40.241C11.4655 42.5824 15.2923 42.5824 17.6521 40.241C18.8086 39.0943 19.3877 37.5968 19.411 36.0926C19.4127 36.0678 19.4144 36.0413 19.4144 36.0165C19.4144 36.0116 19.4144 36.0082 19.4144 36.0033H19.4177Z" fill="#3070D6"/>
<path d="M50.2153 36.0066C50.207 35.7617 50.1118 35.5168 49.9216 35.3298C49.5261 34.9376 48.8852 34.9376 48.4897 35.3298C48.3011 35.5168 48.2043 35.7617 48.196 36.0066H48.191C48.191 37.059 47.7738 38.0766 47.0194 38.8229C46.9343 38.9073 46.8475 38.9851 46.7574 39.0595C46.7324 39.081 46.704 39.0992 46.679 39.1207C46.6139 39.172 46.5488 39.2233 46.482 39.2697C46.447 39.2945 46.4086 39.316 46.3736 39.3392C46.3135 39.3772 46.2551 39.4169 46.1933 39.4517C46.1533 39.4748 46.1099 39.4947 46.0682 39.5179C46.0098 39.5493 45.9513 39.5807 45.8913 39.6089C45.8479 39.6287 45.8028 39.6469 45.7578 39.6651C45.6993 39.69 45.6409 39.7148 45.5809 39.7379C45.5341 39.7545 45.4874 39.7694 45.4407 39.7843C45.3823 39.8041 45.3222 39.824 45.2638 39.8405C45.2154 39.8538 45.167 39.8637 45.1186 39.8753C45.0585 39.8902 44.9984 39.9034 44.9383 39.915C44.8899 39.9249 44.8399 39.9315 44.7915 39.9382C44.7314 39.9481 44.6697 39.9564 44.6096 39.963C44.5612 39.968 44.5111 39.9713 44.4627 39.9746C44.401 39.9795 44.3392 39.9828 44.2791 39.9845C44.2307 39.9862 44.1807 39.9845 44.1323 39.9845C44.0705 39.9845 44.0088 39.9828 43.947 39.9795C43.8986 39.9762 43.8502 39.9729 43.8018 39.9679C43.7401 39.9613 43.6767 39.9547 43.6149 39.9464C43.5682 39.9398 43.5198 39.9315 43.4731 39.9233C43.4097 39.9117 43.3479 39.9001 43.2862 39.8852C43.2411 39.8753 43.1944 39.8637 43.1493 39.8521C43.0859 39.8356 43.0241 39.8174 42.9607 39.7975C42.9173 39.7843 42.874 39.7694 42.8306 39.7545C42.7671 39.733 42.7054 39.7082 42.6436 39.6833C42.6019 39.6668 42.5602 39.6486 42.5202 39.6304C42.4584 39.6023 42.395 39.5725 42.3349 39.541C42.2965 39.5212 42.2565 39.5013 42.2181 39.4798C42.1947 39.4666 42.173 39.4533 42.1497 39.4401L48.4296 33.2134C48.6282 33.0297 48.755 32.7699 48.755 32.4787C48.755 32.1842 48.6249 31.9227 48.4229 31.739C46.0632 29.4324 42.2515 29.439 39.905 31.7672C37.5486 34.1036 37.5486 37.9062 39.905 40.2443C40.0986 40.4362 40.3039 40.605 40.5158 40.7655L40.5175 40.7672C41.362 41.4059 42.3349 41.7948 43.3412 41.9321C43.4047 41.9404 43.4664 41.952 43.5298 41.9586C43.6299 41.9685 43.7301 41.9735 43.8302 41.9801C43.9187 41.9851 44.0071 41.9917 44.0972 41.9933C44.1857 41.995 44.2725 41.9917 44.3609 41.9884C44.4627 41.9851 44.5645 41.9817 44.6647 41.9735C44.7448 41.9668 44.8249 41.9586 44.9033 41.9486C45.0118 41.9354 45.1202 41.9205 45.2287 41.9023C45.3038 41.8891 45.3773 41.8742 45.4507 41.8593C45.5625 41.8361 45.6726 41.808 45.7845 41.7782C45.8546 41.7584 45.9246 41.7402 45.9947 41.7186C46.1066 41.6839 46.2184 41.6442 46.3285 41.6028C46.3953 41.578 46.462 41.5532 46.5288 41.525C46.6389 41.4787 46.7491 41.4274 46.8575 41.3745C46.921 41.343 46.9844 41.3149 47.0478 41.2801C47.1563 41.2222 47.2631 41.1577 47.3682 41.0932C47.4266 41.0568 47.4867 41.0237 47.5451 40.9856C47.6553 40.9128 47.7621 40.8317 47.8689 40.7506C47.9189 40.7126 47.969 40.6795 48.0174 40.6398C48.1643 40.5206 48.3078 40.3932 48.4446 40.2575C48.4496 40.2526 48.4547 40.2493 48.458 40.2459C49.6145 39.0992 50.1936 37.6017 50.217 36.0976C50.2187 36.0728 50.2203 36.0463 50.2203 36.0215C50.2203 36.0165 50.2203 36.0132 50.2203 36.0082H50.2153V36.0066ZM41.3386 33.1902C42.657 31.883 44.673 31.6762 46.2117 32.5697L40.7128 38.022C39.8116 36.4964 40.0202 34.4975 41.3386 33.1902Z" fill="#3070D6"/>
</svg>
