<svg width="73" height="72" viewBox="0 0 73 72" fill="none" xmlns="http://www.w3.org/2000/svg">
<rect x="0.666626" width="72" height="72" rx="8" fill="white"/>
<path d="M46.2366 33.2896C44.4378 30.3666 41.0651 28.343 37.2428 28.343C31.3968 28.343 26.8999 33.0648 26.8999 38.6859C26.8999 40.7095 27.3496 42.5083 28.249 44.0822L46.2366 33.2896Z" fill="#446BF4"/>
<path d="M61.9757 23.1714C61.7509 22.9466 61.526 22.7217 61.3012 22.9466C56.5794 23.846 51.6328 22.9466 47.5856 20.6981C44.6626 18.8994 41.0651 18 37.2428 18C26.8999 18 18.3558 25.6447 16.7818 35.5379V35.7628C16.7818 36.2124 16.7819 36.6621 16.557 37.1118C16.557 37.3367 16.557 37.3367 16.557 37.5615C16.557 38.0112 16.557 38.2361 16.557 38.6857C16.557 38.6857 16.557 38.6857 16.557 38.9106C16.557 43.8572 14.9831 48.5789 11.8353 52.4013C11.6104 52.6261 11.6104 52.851 11.8353 53.0758C12.0601 53.3007 12.5098 53.5255 12.7346 53.3007L19.48 49.2535L22.8527 47.2299L23.752 46.5553C22.403 44.3069 21.5036 41.6087 21.5036 38.6857C21.5036 30.1416 28.4738 23.1714 37.0179 23.1714C42.639 23.1714 47.5856 26.3193 50.2838 30.8162L54.7807 28.118L61.3012 24.0708C62.2005 23.846 62.2005 23.3963 61.9757 23.1714Z" fill="#446BF4"/>
<path d="M52.7571 37.5615C52.7571 37.3367 52.7571 37.5615 52.7571 37.5615C52.7571 37.3367 52.7571 37.3367 52.7571 37.5615C52.7571 37.1118 52.5322 36.887 52.0826 36.887C51.8577 36.887 51.8577 36.887 51.8577 36.887L47.8105 39.3603C47.3608 44.7565 42.8639 49.0286 37.4676 49.0286C33.6453 49.0286 30.2726 47.005 28.4738 43.8572L23.9769 46.5553C26.6751 51.0522 31.6217 54.2 37.4676 54.2C46.0117 54.2 52.9819 47.2298 52.9819 38.6857C52.9819 38.236 52.9819 37.7863 52.7571 37.5615Z" fill="#446BF4"/>
</svg>
