<svg width="72" height="72" viewBox="0 0 72 72" fill="none" xmlns="http://www.w3.org/2000/svg">
<rect width="72" height="72" rx="8" fill="white"/>
<path d="M33.5196 22.8276C27.7169 25.3528 24.0666 31.5291 26.1874 37.6584C27.4725 41.3641 30.0585 44.0144 33.9059 45.3669C40.6232 47.7279 47.6242 42.5368 46.8437 35.782C46.5047 32.9128 45.0382 30.7316 42.0581 29.8169C39.8426 29.1446 37.7139 29.4573 35.9716 31.06C34.5051 32.4125 33.9375 34.0855 34.5288 36.0322C34.852 37.1033 35.6325 37.7678 36.6969 38.0805C37.6272 38.362 38.3526 37.9555 38.9123 37.1893C38.8019 37.0017 38.6994 36.7984 38.5654 36.6264C37.8401 35.6961 38.4235 34.3435 39.0542 33.7806C39.9057 33.0145 41.2854 32.9441 42.2 33.5774C43.6664 34.6015 44.3445 37.33 43.5403 39.05C42.2 41.9192 38.7546 43.5844 35.601 42.7713C30.6183 41.4892 28.1584 36.6029 29.7668 31.8887C31.9034 25.6187 39.0937 22.8745 45.2196 25.8845C50.1708 28.3159 52.0078 32.5532 51.8186 37.6115C51.4953 45.9298 43.0357 52.0982 34.5445 50.4955C26.3136 48.9397 20.1955 41.1217 20.637 33.7337C20.7947 31.0053 21.4175 28.4488 22.8209 26.1034C26.4712 19.9975 32.1793 17.1283 39.3144 16.6592C41.1908 16.5341 43.0909 16.6358 44.8806 16.6358C44.786 16.5967 44.5573 16.4794 44.3287 16.4012C40.836 15.1113 37.233 14.6969 33.5433 15.2207C31.2569 15.5022 29.1361 16.1198 27.2202 16.9876C27.1887 16.9876 27.1414 17.0032 27.0941 17.0267C26.2347 17.3941 26.0849 16.5576 25.7774 16.2996C25.4778 16.0572 25.5173 16.3622 25.5173 16.3622C25.7774 17.5896 25.1231 18.0821 25.0363 18.1447C24.4923 18.4808 23.972 18.8405 23.4674 19.2235C23.4516 19.2235 23.4359 19.2235 23.428 19.2392C22.2375 19.7786 21.7408 18.8639 21.1968 18.5903C20.6134 18.301 20.8341 18.7779 20.8341 18.7779C21.5516 20.193 20.9287 21.4048 20.8105 21.6002C20.3059 22.1396 19.8328 22.7104 19.3835 23.3045C19.3361 23.3358 19.2888 23.3593 19.2337 23.4062C18.0668 24.4538 17.1523 23.6251 16.4348 23.4687C15.6385 23.2967 16.0879 23.8127 16.0879 23.8127C17.5622 25.3138 17.0971 27.1119 17.0971 27.1119C15.2128 31.1773 14.5347 35.8759 15.3232 40.5901C17.917 56.0932 37.1463 63.4187 49.745 53.4273C53.8369 50.1828 56.6752 43.9362 56.9748 38.7685C57.1876 35.0941 56.0444 31.7636 53.9315 28.7537C49.4533 22.3507 40.5049 19.7864 33.5117 22.8276H33.5196Z" fill="#5B8EF4"/>
</svg>
