<svg width="478" height="422" viewBox="0 0 478 422" fill="none" xmlns="http://www.w3.org/2000/svg">
<path d="M478 1L56 1M476 61H56M476 121H56M476 181H56M476 241H56M476 301H56M476 361H56M476 421H56M477 422V2M417 422V2M357 422V2M297 422V2M237 422V2M177 422V2M117 422V2M57 422V2" stroke="url(#paint0_linear_280_12626)" stroke-width="2"/>
<g clip-path="url(#clip0_280_12626)">
<g clip-path="url(#clip1_280_12626)">
<g clip-path="url(#clip2_280_12626)">
<rect x="0.75" y="196.5" width="238.5" height="145.5" rx="8.25" fill="#1A1A1A" stroke="#808080" stroke-width="1.5"/>
<path d="M0.75 204.75C0.75 200.194 4.44365 196.5 9 196.5H231C235.556 196.5 239.25 200.194 239.25 204.75V225H0.75V204.75Z" fill="#1A1A1A" stroke="#808080" stroke-width="1.5"/>
<circle cx="15" cy="210.75" r="2.25" fill="#1A1A1A" stroke="#3B92F9" stroke-width="1.5"/>
<circle cx="28.5" cy="210.75" r="2.25" fill="#1A1A1A" stroke="#808080" stroke-width="1.5"/>
<circle cx="42" cy="210.75" r="2.25" fill="#1A1A1A" stroke="#808080" stroke-width="1.5"/>
<rect x="18.75" y="244.5" width="79.5" height="79.5" rx="5.25" fill="#1A1A1A" stroke="#808080" stroke-width="1.5"/>
<g clip-path="url(#clip3_280_12626)">
<rect x="40.5" y="266.25" width="36" height="36" fill="#1B76E2"/>
<path d="M64.0566 291.547H59.9101V292.961C59.9101 293.744 59.2795 294.375 58.4961 294.375C57.7126 294.375 57.082 293.744 57.082 292.961V291.547H52.9355C51.8464 291.547 51.1585 290.362 51.7126 289.426L54.7699 284.133H54.3496C53.2604 284.133 52.5725 282.948 53.1266 282.012L57.2731 274.827C57.8273 273.891 59.1839 273.891 59.7381 274.827L63.8846 282.012C64.4387 282.948 63.7508 284.133 62.6617 284.133H62.2413L65.2986 289.426C65.8336 290.362 65.1457 291.547 64.0566 291.547Z" fill="white"/>
<rect x="40.7812" y="266.531" width="35.4375" height="35.4375" rx="4.21875" stroke="#1E1E1E" stroke-opacity="0.06" stroke-width="0.5625"/>
</g>
<rect x="117.75" y="244.5" width="103.5" height="21" rx="5.25" fill="#1A1A1A" stroke="#3B92F9" stroke-width="1.5"/>
<path d="M130.314 258.5H129.288L126.201 253.829V258.5H125.175V252.236H126.201L129.288 256.898V252.236H130.314V258.5ZM135.342 252.245V253.082H132.687V254.927H134.757V255.764H132.687V258.5H131.661V252.245H135.342ZM140.334 252.245V253.082H138.669V258.5H137.643V253.082H135.969V252.245H140.334ZM148.85 258.5H147.824L144.737 253.829V258.5H143.711V252.236H144.737L147.824 256.898V252.236H148.85V258.5ZM149.855 255.998C149.855 255.5 149.957 255.059 150.161 254.675C150.371 254.291 150.653 253.994 151.007 253.784C151.367 253.568 151.763 253.46 152.195 253.46C152.585 253.46 152.924 253.538 153.212 253.694C153.506 253.844 153.74 254.033 153.914 254.261V253.541H154.949V258.5H153.914V257.762C153.74 257.996 153.503 258.191 153.203 258.347C152.903 258.503 152.561 258.581 152.177 258.581C151.751 258.581 151.361 258.473 151.007 258.257C150.653 258.035 150.371 257.729 150.161 257.339C149.957 256.943 149.855 256.496 149.855 255.998ZM153.914 256.016C153.914 255.674 153.842 255.377 153.698 255.125C153.56 254.873 153.377 254.681 153.149 254.549C152.921 254.417 152.675 254.351 152.411 254.351C152.147 254.351 151.901 254.417 151.673 254.549C151.445 254.675 151.259 254.864 151.115 255.116C150.977 255.362 150.908 255.656 150.908 255.998C150.908 256.34 150.977 256.64 151.115 256.898C151.259 257.156 151.445 257.354 151.673 257.492C151.907 257.624 152.153 257.69 152.411 257.69C152.675 257.69 152.921 257.624 153.149 257.492C153.377 257.36 153.56 257.168 153.698 256.916C153.842 256.658 153.914 256.358 153.914 256.016ZM162.3 253.46C162.69 253.46 163.038 253.541 163.344 253.703C163.656 253.865 163.899 254.105 164.073 254.423C164.253 254.741 164.343 255.125 164.343 255.575V258.5H163.326V255.728C163.326 255.284 163.215 254.945 162.993 254.711C162.771 254.471 162.468 254.351 162.084 254.351C161.7 254.351 161.394 254.471 161.166 254.711C160.944 254.945 160.833 255.284 160.833 255.728V258.5H159.816V255.728C159.816 255.284 159.705 254.945 159.483 254.711C159.261 254.471 158.958 254.351 158.574 254.351C158.19 254.351 157.884 254.471 157.656 254.711C157.434 254.945 157.323 255.284 157.323 255.728V258.5H156.297V253.541H157.323V254.108C157.491 253.904 157.704 253.745 157.962 253.631C158.22 253.517 158.496 253.46 158.79 253.46C159.186 253.46 159.54 253.544 159.852 253.712C160.164 253.88 160.404 254.123 160.572 254.441C160.722 254.141 160.956 253.904 161.274 253.73C161.592 253.55 161.934 253.46 162.3 253.46ZM170.194 255.899C170.194 256.085 170.182 256.253 170.158 256.403H166.369C166.399 256.799 166.546 257.117 166.81 257.357C167.074 257.597 167.398 257.717 167.782 257.717C168.334 257.717 168.724 257.486 168.952 257.024H170.059C169.909 257.48 169.636 257.855 169.24 258.149C168.85 258.437 168.364 258.581 167.782 258.581C167.308 258.581 166.882 258.476 166.504 258.266C166.132 258.05 165.838 257.75 165.622 257.366C165.412 256.976 165.307 256.526 165.307 256.016C165.307 255.506 165.409 255.059 165.613 254.675C165.823 254.285 166.114 253.985 166.486 253.775C166.864 253.565 167.296 253.46 167.782 253.46C168.25 253.46 168.667 253.562 169.033 253.766C169.399 253.97 169.684 254.258 169.888 254.63C170.092 254.996 170.194 255.419 170.194 255.899ZM169.123 255.575C169.117 255.197 168.982 254.894 168.718 254.666C168.454 254.438 168.127 254.324 167.737 254.324C167.383 254.324 167.08 254.438 166.828 254.666C166.576 254.888 166.426 255.191 166.378 255.575H169.123Z" fill="#E8E8E8"/>
<rect x="117.75" y="276" width="103.5" height="21" rx="5.25" fill="#1A1A1A" stroke="#808080" stroke-width="1.5"/>
<rect x="117" y="306.75" width="54" height="18" rx="3" fill="#F5F5F5"/>
<path d="M128.833 316.109C128.833 315.497 128.974 314.948 129.256 314.462C129.544 313.976 129.931 313.598 130.417 313.328C130.909 313.052 131.446 312.914 132.028 312.914C132.694 312.914 133.285 313.079 133.801 313.409C134.323 313.733 134.701 314.195 134.935 314.795H133.702C133.54 314.465 133.315 314.219 133.027 314.057C132.739 313.895 132.406 313.814 132.028 313.814C131.614 313.814 131.245 313.907 130.921 314.093C130.597 314.279 130.342 314.546 130.156 314.894C129.976 315.242 129.886 315.647 129.886 316.109C129.886 316.571 129.976 316.976 130.156 317.324C130.342 317.672 130.597 317.942 130.921 318.134C131.245 318.32 131.614 318.413 132.028 318.413C132.406 318.413 132.739 318.332 133.027 318.17C133.315 318.008 133.54 317.762 133.702 317.432H134.935C134.701 318.032 134.323 318.494 133.801 318.818C133.285 319.142 132.694 319.304 132.028 319.304C131.44 319.304 130.903 319.169 130.417 318.899C129.931 318.623 129.544 318.242 129.256 317.756C128.974 317.27 128.833 316.721 128.833 316.109ZM137.162 315.011C137.312 314.759 137.51 314.564 137.756 314.426C138.008 314.282 138.305 314.21 138.647 314.21V315.272H138.386C137.984 315.272 137.678 315.374 137.468 315.578C137.264 315.782 137.162 316.136 137.162 316.64V319.25H136.136V314.291H137.162V315.011ZM144.135 316.649C144.135 316.835 144.123 317.003 144.099 317.153H140.31C140.34 317.549 140.487 317.867 140.751 318.107C141.015 318.347 141.339 318.467 141.723 318.467C142.275 318.467 142.665 318.236 142.893 317.774H144C143.85 318.23 143.577 318.605 143.181 318.899C142.791 319.187 142.305 319.331 141.723 319.331C141.249 319.331 140.823 319.226 140.445 319.016C140.073 318.8 139.779 318.5 139.563 318.116C139.353 317.726 139.248 317.276 139.248 316.766C139.248 316.256 139.35 315.809 139.554 315.425C139.764 315.035 140.055 314.735 140.427 314.525C140.805 314.315 141.237 314.21 141.723 314.21C142.191 314.21 142.608 314.312 142.974 314.516C143.34 314.72 143.625 315.008 143.829 315.38C144.033 315.746 144.135 316.169 144.135 316.649ZM143.064 316.325C143.058 315.947 142.923 315.644 142.659 315.416C142.395 315.188 142.068 315.074 141.678 315.074C141.324 315.074 141.021 315.188 140.769 315.416C140.517 315.638 140.367 315.941 140.319 316.325H143.064ZM144.803 316.748C144.803 316.25 144.905 315.809 145.109 315.425C145.319 315.041 145.601 314.744 145.955 314.534C146.315 314.318 146.711 314.21 147.143 314.21C147.533 314.21 147.872 314.288 148.16 314.444C148.454 314.594 148.688 314.783 148.862 315.011V314.291H149.897V319.25H148.862V318.512C148.688 318.746 148.451 318.941 148.151 319.097C147.851 319.253 147.509 319.331 147.125 319.331C146.699 319.331 146.309 319.223 145.955 319.007C145.601 318.785 145.319 318.479 145.109 318.089C144.905 317.693 144.803 317.246 144.803 316.748ZM148.862 316.766C148.862 316.424 148.79 316.127 148.646 315.875C148.508 315.623 148.325 315.431 148.097 315.299C147.869 315.167 147.623 315.101 147.359 315.101C147.095 315.101 146.849 315.167 146.621 315.299C146.393 315.425 146.207 315.614 146.063 315.866C145.925 316.112 145.856 316.406 145.856 316.748C145.856 317.09 145.925 317.39 146.063 317.648C146.207 317.906 146.393 318.104 146.621 318.242C146.855 318.374 147.101 318.44 147.359 318.44C147.623 318.44 147.869 318.374 148.097 318.242C148.325 318.11 148.508 317.918 148.646 317.666C148.79 317.408 148.862 317.108 148.862 316.766ZM152.441 315.128V317.873C152.441 318.059 152.483 318.194 152.567 318.278C152.657 318.356 152.807 318.395 153.017 318.395H153.647V319.25H152.837C152.375 319.25 152.021 319.142 151.775 318.926C151.529 318.71 151.406 318.359 151.406 317.873V315.128H150.821V314.291H151.406V313.058H152.441V314.291H153.647V315.128H152.441ZM159.138 316.649C159.138 316.835 159.126 317.003 159.102 317.153H155.313C155.343 317.549 155.49 317.867 155.754 318.107C156.018 318.347 156.342 318.467 156.726 318.467C157.278 318.467 157.668 318.236 157.896 317.774H159.003C158.853 318.23 158.58 318.605 158.184 318.899C157.794 319.187 157.308 319.331 156.726 319.331C156.252 319.331 155.826 319.226 155.448 319.016C155.076 318.8 154.782 318.5 154.566 318.116C154.356 317.726 154.251 317.276 154.251 316.766C154.251 316.256 154.353 315.809 154.557 315.425C154.767 315.035 155.058 314.735 155.43 314.525C155.808 314.315 156.24 314.21 156.726 314.21C157.194 314.21 157.611 314.312 157.977 314.516C158.343 314.72 158.628 315.008 158.832 315.38C159.036 315.746 159.138 316.169 159.138 316.649ZM158.067 316.325C158.061 315.947 157.926 315.644 157.662 315.416C157.398 315.188 157.071 315.074 156.681 315.074C156.327 315.074 156.024 315.188 155.772 315.416C155.52 315.638 155.37 315.941 155.322 316.325H158.067Z" fill="#1A1A1A"/>
</g>
<mask id="path-17-inside-1_280_12626" fill="white">
<path fill-rule="evenodd" clip-rule="evenodd" d="M141.65 216.859C151.961 211.478 159 200.686 159 188.25C159 170.439 144.561 156 126.75 156C108.939 156 94.5 170.439 94.5 188.25C94.5 205.271 107.686 219.212 124.401 220.416L135.57 235.746C136.345 236.81 138.017 236.431 138.257 235.137L141.65 216.859Z"/>
</mask>
<path fill-rule="evenodd" clip-rule="evenodd" d="M141.65 216.859C151.961 211.478 159 200.686 159 188.25C159 170.439 144.561 156 126.75 156C108.939 156 94.5 170.439 94.5 188.25C94.5 205.271 107.686 219.212 124.401 220.416L135.57 235.746C136.345 236.81 138.017 236.431 138.257 235.137L141.65 216.859Z" fill="#1A1A1A"/>
<path d="M141.65 216.859L140.956 215.529L140.308 215.867L140.175 216.586L141.65 216.859ZM124.401 220.416L125.613 219.532L125.203 218.97L124.508 218.92L124.401 220.416ZM135.57 235.746L136.782 234.863L135.57 235.746ZM138.257 235.137L136.782 234.863L138.257 235.137ZM157.5 188.25C157.5 200.106 150.791 210.397 140.956 215.529L142.344 218.189C153.131 212.56 160.5 201.267 160.5 188.25H157.5ZM126.75 157.5C143.733 157.5 157.5 171.267 157.5 188.25H160.5C160.5 169.61 145.39 154.5 126.75 154.5V157.5ZM96 188.25C96 171.267 109.767 157.5 126.75 157.5V154.5C108.11 154.5 93 169.61 93 188.25H96ZM124.508 218.92C108.573 217.772 96 204.479 96 188.25H93C93 206.063 106.8 220.652 124.293 221.912L124.508 218.92ZM136.782 234.863L125.613 219.532L123.188 221.299L134.358 236.629L136.782 234.863ZM136.782 234.863L134.358 236.629C135.908 238.757 139.251 237.999 139.732 235.41L136.782 234.863ZM140.175 216.586L136.782 234.863L139.732 235.41L143.124 217.133L140.175 216.586Z" fill="#808080" mask="url(#path-17-inside-1_280_12626)"/>
<circle cx="110.25" cy="188.25" r="2.25" fill="#D6D6D6"/>
<circle cx="126.75" cy="188.25" r="2.25" fill="#D6D6D6"/>
<circle cx="143.25" cy="188.25" r="2.25" fill="#D6D6D6"/>
</g>
<g clip-path="url(#clip4_280_12626)">
<g clip-path="url(#clip5_280_12626)">
<rect x="195" y="99" width="214.5" height="243" rx="8.25" stroke="#8C8C8C" stroke-width="1.5"/>
<g opacity="0.9">
<rect x="202.5" y="99" width="214.5" height="243" rx="8.25" stroke="#8C8C8C" stroke-width="1.5"/>
</g>
<g opacity="0.8">
<rect x="210" y="99" width="214.5" height="243" rx="8.25" stroke="#8C8C8C" stroke-width="1.5"/>
</g>
<g opacity="0.7">
<rect x="217.5" y="99" width="214.5" height="243" rx="8.25" stroke="#8C8C8C" stroke-width="1.5"/>
</g>
<g opacity="0.6">
<rect x="225" y="99" width="214.5" height="243" rx="8.25" stroke="#8C8C8C" stroke-width="1.5"/>
</g>
<g opacity="0.5">
<rect x="232.5" y="99" width="214.5" height="243" rx="8.25" stroke="#8C8C8C" stroke-width="1.5"/>
</g>
<g opacity="0.4">
<rect x="240" y="99" width="214.5" height="243" rx="8.25" stroke="#8C8C8C" stroke-width="1.5"/>
</g>
<g opacity="0.3">
<rect x="247.5" y="99" width="214.5" height="243" rx="8.25" stroke="#8C8C8C" stroke-width="1.5"/>
</g>
<g opacity="0.2">
<rect x="255" y="99" width="214.5" height="243" rx="8.25" stroke="#8C8C8C" stroke-width="1.5"/>
</g>
<g opacity="0.1">
<rect x="262.5" y="99" width="214.5" height="243" rx="8.25" stroke="#8C8C8C" stroke-width="1.5"/>
</g>
<rect x="187.5" y="98.75" width="214.5" height="243.5" rx="8.25" fill="#1A1A1A"/>
<rect x="187.5" y="98.75" width="214.5" height="243.5" rx="8.25" stroke="#8C8C8C" stroke-width="1.5"/>
<g clip-path="url(#clip6_280_12626)">
<rect x="216" y="127.25" width="168.75" height="168.75" fill="#BBD6F6"/>
<rect x="204.75" y="116" width="168.75" height="168.75" fill="#1B76E2"/>
<rect x="204.75" y="116" width="11.25" height="11.25" fill="#1A1A1A"/>
<path fill-rule="evenodd" clip-rule="evenodd" d="M322.5 155.75H266.25V167H255V200.75H277.5V167H311.25V200.75H300V212H288.75V234.5H300H311.25V212H333.75V167H322.5V155.75ZM311.25 268.25V245.75H288.75V268.25H311.25Z" fill="#1A1A1A"/>
<path fill-rule="evenodd" clip-rule="evenodd" d="M311.25 144.5H255V155.75H243.75V189.5H266.25V155.75H300V189.5H288.75V200.75H277.5V223.25H288.75H300V200.75H322.5V155.75H311.25V144.5ZM300 257V234.5H277.5V257H300Z" fill="white"/>
<path fill-rule="evenodd" clip-rule="evenodd" d="M232.5 132.5H221.25V143.75H232.5V132.5ZM232.5 257H221.25V268.25H232.5V257ZM345.75 132.5H357V143.75H345.75V132.5ZM357 257H345.75V268.25H357V257Z" fill="#1A1A1A"/>
<path fill-rule="evenodd" clip-rule="evenodd" d="M373.5 116H216V127.25H204.75V284.75H216V127.25H373.5V116Z" fill="#3B92F9"/>
</g>
<path d="M205.139 316.335C205.139 315.621 205.303 314.981 205.632 314.414C205.968 313.847 206.42 313.406 206.987 313.091C207.561 312.769 208.187 312.608 208.866 312.608C209.643 312.608 210.333 312.8 210.935 313.185C211.544 313.563 211.985 314.102 212.258 314.802H210.819C210.63 314.417 210.368 314.13 210.032 313.941C209.696 313.752 209.307 313.658 208.866 313.658C208.383 313.658 207.953 313.766 207.575 313.983C207.197 314.2 206.899 314.512 206.682 314.918C206.472 315.324 206.367 315.796 206.367 316.335C206.367 316.874 206.472 317.347 206.682 317.753C206.899 318.159 207.197 318.474 207.575 318.698C207.953 318.915 208.383 319.023 208.866 319.023C209.307 319.023 209.696 318.929 210.032 318.74C210.368 318.551 210.63 318.264 210.819 317.879H212.258C211.985 318.579 211.544 319.118 210.935 319.496C210.333 319.874 209.643 320.063 208.866 320.063C208.18 320.063 207.554 319.905 206.987 319.59C206.42 319.268 205.968 318.824 205.632 318.257C205.303 317.69 205.139 317.049 205.139 316.335ZM214.856 315.054C215.031 314.76 215.262 314.533 215.549 314.372C215.843 314.204 216.189 314.12 216.588 314.12V315.359H216.284C215.815 315.359 215.458 315.478 215.213 315.716C214.975 315.954 214.856 316.367 214.856 316.955V320H213.659V314.215H214.856V315.054ZM222.991 316.965C222.991 317.182 222.977 317.378 222.949 317.553H218.528C218.563 318.015 218.735 318.386 219.043 318.666C219.351 318.946 219.729 319.086 220.177 319.086C220.821 319.086 221.276 318.817 221.542 318.278H222.833C222.658 318.81 222.34 319.247 221.878 319.59C221.423 319.927 220.856 320.095 220.177 320.095C219.624 320.095 219.127 319.972 218.686 319.727C218.252 319.475 217.909 319.125 217.657 318.677C217.412 318.222 217.289 317.697 217.289 317.102C217.289 316.507 217.408 315.985 217.646 315.537C217.891 315.082 218.231 314.732 218.665 314.487C219.106 314.242 219.61 314.12 220.177 314.12C220.723 314.12 221.209 314.239 221.636 314.477C222.063 314.715 222.396 315.051 222.634 315.485C222.872 315.912 222.991 316.405 222.991 316.965ZM221.741 316.587C221.734 316.146 221.577 315.793 221.269 315.527C220.961 315.261 220.579 315.128 220.124 315.128C219.711 315.128 219.358 315.261 219.064 315.527C218.77 315.786 218.595 316.139 218.539 316.587H221.741ZM223.77 317.081C223.77 316.5 223.889 315.985 224.127 315.537C224.372 315.089 224.701 314.743 225.114 314.498C225.534 314.246 225.996 314.12 226.5 314.12C226.955 314.12 227.35 314.211 227.686 314.393C228.029 314.568 228.302 314.788 228.505 315.054V314.215H229.713V320H228.505V319.139C228.302 319.412 228.026 319.639 227.676 319.821C227.326 320.004 226.927 320.095 226.479 320.095C225.982 320.095 225.527 319.969 225.114 319.716C224.701 319.457 224.372 319.1 224.127 318.645C223.889 318.183 223.77 317.662 223.77 317.081ZM228.505 317.102C228.505 316.703 228.421 316.356 228.253 316.062C228.092 315.768 227.879 315.544 227.613 315.39C227.347 315.236 227.06 315.159 226.752 315.159C226.444 315.159 226.157 315.236 225.891 315.39C225.625 315.537 225.408 315.758 225.24 316.052C225.079 316.339 224.998 316.682 224.998 317.081C224.998 317.48 225.079 317.83 225.24 318.131C225.408 318.432 225.625 318.663 225.891 318.824C226.164 318.978 226.451 319.055 226.752 319.055C227.06 319.055 227.347 318.978 227.613 318.824C227.879 318.67 228.092 318.446 228.253 318.152C228.421 317.851 228.505 317.501 228.505 317.102ZM232.682 315.191V318.393C232.682 318.61 232.731 318.768 232.829 318.866C232.934 318.957 233.109 319.002 233.354 319.002H234.089V320H233.144C232.605 320 232.192 319.874 231.905 319.622C231.618 319.37 231.474 318.96 231.474 318.393V315.191H230.792V314.215H231.474V312.776H232.682V314.215H234.089V315.191H232.682ZM240.494 316.965C240.494 317.182 240.48 317.378 240.452 317.553H236.032C236.067 318.015 236.238 318.386 236.546 318.666C236.854 318.946 237.232 319.086 237.68 319.086C238.324 319.086 238.779 318.817 239.045 318.278H240.337C240.162 318.81 239.843 319.247 239.381 319.59C238.926 319.927 238.359 320.095 237.68 320.095C237.127 320.095 236.63 319.972 236.189 319.727C235.755 319.475 235.412 319.125 235.16 318.677C234.915 318.222 234.793 317.697 234.793 317.102C234.793 316.507 234.912 315.985 235.15 315.537C235.395 315.082 235.734 314.732 236.168 314.487C236.609 314.242 237.113 314.12 237.68 314.12C238.226 314.12 238.713 314.239 239.14 314.477C239.567 314.715 239.899 315.051 240.137 315.485C240.375 315.912 240.494 316.405 240.494 316.965ZM239.245 316.587C239.238 316.146 239.08 315.793 238.772 315.527C238.464 315.261 238.083 315.128 237.628 315.128C237.215 315.128 236.861 315.261 236.567 315.527C236.273 315.786 236.098 316.139 236.042 316.587H239.245ZM244.001 317.081C244.001 316.5 244.12 315.985 244.358 315.537C244.603 315.089 244.932 314.743 245.345 314.498C245.765 314.246 246.227 314.12 246.731 314.12C247.186 314.12 247.581 314.211 247.917 314.393C248.26 314.568 248.533 314.788 248.736 315.054V314.215H249.944V320H248.736V319.139C248.533 319.412 248.257 319.639 247.907 319.821C247.557 320.004 247.158 320.095 246.71 320.095C246.213 320.095 245.758 319.969 245.345 319.716C244.932 319.457 244.603 319.1 244.358 318.645C244.12 318.183 244.001 317.662 244.001 317.081ZM248.736 317.102C248.736 316.703 248.652 316.356 248.484 316.062C248.323 315.768 248.11 315.544 247.844 315.39C247.578 315.236 247.291 315.159 246.983 315.159C246.675 315.159 246.388 315.236 246.122 315.39C245.856 315.537 245.639 315.758 245.471 316.052C245.31 316.339 245.229 316.682 245.229 317.081C245.229 317.48 245.31 317.83 245.471 318.131C245.639 318.432 245.856 318.663 246.122 318.824C246.395 318.978 246.682 319.055 246.983 319.055C247.291 319.055 247.578 318.978 247.844 318.824C248.11 318.67 248.323 318.446 248.484 318.152C248.652 317.851 248.736 317.501 248.736 317.102ZM254.435 314.12C254.89 314.12 255.296 314.214 255.653 314.403C256.017 314.592 256.301 314.872 256.504 315.243C256.707 315.614 256.808 316.062 256.808 316.587V320H255.622V316.766C255.622 316.248 255.492 315.852 255.233 315.579C254.974 315.299 254.621 315.159 254.173 315.159C253.725 315.159 253.368 315.299 253.102 315.579C252.843 315.852 252.713 316.248 252.713 316.766V320H251.516V314.215H252.713V314.876C252.909 314.638 253.158 314.452 253.459 314.319C253.767 314.186 254.092 314.12 254.435 314.12Z" fill="#8C8C8C"/>
<path d="M267.058 320H265.861L262.259 314.55V320H261.062V312.692H262.259L265.861 318.131V312.692H267.058V320ZM272.924 312.702V313.679H269.827V315.831H272.242V316.808H269.827V320H268.63V312.702H272.924ZM278.748 312.702V313.679H276.806V320H275.609V313.679H273.656V312.702H278.748Z" fill="#808080"/>
</g>
<g clip-path="url(#clip7_280_12626)">
<path fill-rule="evenodd" clip-rule="evenodd" d="M152.25 81.75C148.936 81.75 146.25 84.4363 146.25 87.75V129.75C146.25 133.064 148.936 135.75 152.25 135.75H211.093L228.704 152.409C230.138 153.766 232.5 152.749 232.5 150.774V135.75H245.25C248.564 135.75 251.25 133.064 251.25 129.75V87.75C251.25 84.4363 248.564 81.75 245.25 81.75H152.25Z" fill="#1A1A1A"/>
<path d="M211.093 135.75L211.608 135.205L211.391 135H211.093V135.75ZM228.704 152.409L229.219 151.864L228.704 152.409ZM232.5 135.75V135H231.75V135.75H232.5ZM147 87.75C147 84.8505 149.351 82.5 152.25 82.5V81C148.522 81 145.5 84.0221 145.5 87.75H147ZM147 129.75V87.75H145.5V129.75H147ZM152.25 135C149.351 135 147 132.649 147 129.75H145.5C145.5 133.478 148.522 136.5 152.25 136.5V135ZM211.093 135H152.25V136.5H211.093V135ZM229.219 151.864L211.608 135.205L210.577 136.295L228.188 152.954L229.219 151.864ZM231.75 150.774C231.75 152.091 230.175 152.769 229.219 151.864L228.188 152.954C230.101 154.763 233.25 153.407 233.25 150.774H231.75ZM231.75 135.75V150.774H233.25V135.75H231.75ZM245.25 135H232.5V136.5H245.25V135ZM250.5 129.75C250.5 132.649 248.149 135 245.25 135V136.5C248.978 136.5 252 133.478 252 129.75H250.5ZM250.5 87.75V129.75H252V87.75H250.5ZM245.25 82.5C248.149 82.5 250.5 84.8505 250.5 87.75H252C252 84.0221 248.978 81 245.25 81V82.5ZM152.25 82.5H245.25V81H152.25V82.5Z" fill="#808080"/>
<path fill-rule="evenodd" clip-rule="evenodd" d="M164.877 104.162V123.858H158.361V92.3635H164.871L164.878 92.3584L177.91 112.054V92.3635H184.426V123.858H177.91L177.909 123.858L164.877 104.162ZM195.286 92.3635H188.77V98.8797V104.31V110.826V123.858H195.286V110.826H210.491V104.31H195.286V98.8797H211.577V92.3635H195.286ZM224.609 92.3635H215.921V98.8797H224.609V123.858H231.125V98.8797H239.813V92.3635H231.125H224.609Z" fill="white"/>
</g>
</g>
</g>
<defs>
<linearGradient id="paint0_linear_280_12626" x1="267" y1="1" x2="267" y2="422" gradientUnits="userSpaceOnUse">
<stop stop-opacity="0.13"/>
<stop offset="1" stop-opacity="0.04"/>
</linearGradient>
<clipPath id="clip0_280_12626">
<rect width="477.75" height="261.75" fill="white" transform="translate(0 81)"/>
</clipPath>
<clipPath id="clip1_280_12626">
<rect width="240" height="186.75" fill="white" transform="translate(0 156)"/>
</clipPath>
<clipPath id="clip2_280_12626">
<rect width="240" height="147" fill="white" transform="translate(0 195.75)"/>
</clipPath>
<clipPath id="clip3_280_12626">
<rect x="40.5" y="266.25" width="36" height="36" rx="18" fill="white"/>
</clipPath>
<clipPath id="clip4_280_12626">
<rect width="332.25" height="261.75" fill="white" transform="translate(145.5 81)"/>
</clipPath>
<clipPath id="clip5_280_12626">
<rect width="291" height="244.5" fill="white" transform="translate(186.75 98.25)"/>
</clipPath>
<clipPath id="clip6_280_12626">
<rect width="180" height="180" fill="white" transform="translate(204.75 116)"/>
</clipPath>
<clipPath id="clip7_280_12626">
<rect width="106.5" height="72.75" fill="white" transform="translate(145.5 81)"/>
</clipPath>
</defs>
</svg>
