<svg width="12" height="12" viewBox="0 0 12 12" fill="none" xmlns="http://www.w3.org/2000/svg">
<g id="direction/left">
<path id="Union" d="M8.39873 5.64658L8.75228 6.00013L8.39873 6.35369L4.87733 9.87508L4.91269 9.91044L8.82322 5.99991L4.91218 2.0893L4.87682 2.12467L8.39873 5.64658ZM8.91161 5.91152C8.91156 5.91157 8.91151 5.91161 8.91147 5.91166L8.91161 5.91152L9 5.99991L8.91161 5.91152ZM4.66468 1.84182C4.66478 1.84192 4.66488 1.84202 4.66498 1.84212L4.6647 1.84184L4.66468 1.84182ZM5.15941 1.84207C5.15949 1.84199 5.15958 1.8419 5.15966 1.84182L4.91218 1.59434L5.15966 1.84182L5.15941 1.84207Z" stroke="#8D8D8D"/>
</g>
</svg>
