<svg width="506" height="422" viewBox="0 0 506 422" fill="none" xmlns="http://www.w3.org/2000/svg">
<path d="M84 1L506 1M86 61H506M86 121H506M86 181H506M86 241H506M86 301H506M86 361H506M86 421H506M85 422V2M145 422V2M205 422V2M265 422V2M325 422V2M385 422V2M445 422V2M505 422V2" stroke="url(#paint0_linear_285_20045)" stroke-width="2"/>
<path d="M100.944 233.27H321.533C322.832 233.27 324.077 233.786 324.995 234.704C325.913 235.622 326.429 236.867 326.429 238.165V379.778H96.037V238.165C96.037 237.522 96.164 236.884 96.4107 236.289C96.6575 235.695 97.0191 235.155 97.4749 234.7C97.9306 234.245 98.4717 233.885 99.0669 233.639C99.6622 233.394 100.3 233.269 100.944 233.27Z" fill="#127FFF" stroke="#011853" stroke-linecap="round" stroke-linejoin="round"/>
<path d="M112.777 244.385H309.7C310.343 244.385 310.979 244.511 311.573 244.757C312.167 245.003 312.707 245.364 313.161 245.819C313.616 246.273 313.977 246.813 314.223 247.407C314.469 248.001 314.595 248.637 314.595 249.28V381.753H107.87V249.292C107.869 248.647 107.995 248.008 108.241 247.412C108.487 246.816 108.848 246.275 109.304 245.819C109.76 245.363 110.302 245.001 110.898 244.755C111.494 244.509 112.132 244.383 112.777 244.385Z" fill="#011853" stroke="#011853" stroke-linecap="round" stroke-linejoin="round"/>
<path d="M324.454 391.612H87.7639C76.8662 391.612 68.0339 385.016 68.0339 376.88H344.184C344.184 385.016 335.352 391.612 324.454 391.612Z" fill="#127FFF" stroke="#011853" stroke-linecap="round" stroke-linejoin="round"/>
<path d="M210.252 98.3672C195.052 112.825 156.174 127.431 110.837 158.413C110.837 158.413 113.667 263.099 210.252 320.326V98.3672Z" fill="#127FFF" stroke="#011853" stroke-linecap="round" stroke-linejoin="round"/>
<path d="M210.252 98.3672C225.44 112.825 264.329 127.431 309.666 158.413C309.666 158.413 306.836 263.099 210.252 320.326V98.3672Z" fill="#011853" stroke="#011853" stroke-linecap="round" stroke-linejoin="round"/>
<path d="M210.252 107.279C191.914 120.277 160.134 132.669 118.129 161.368C118.129 161.368 120.754 258.363 210.252 311.414C299.749 258.386 302.374 161.368 302.374 161.368C260.358 132.681 228.726 120.277 210.252 107.279Z" fill="#011853" stroke="#011853" stroke-linecap="round" stroke-linejoin="round"/>
<path d="M286.672 151.064C222.587 170.463 173.702 226.777 151.473 256.481C166.763 278.912 186.838 297.674 210.252 311.414C299.75 258.386 302.374 161.369 302.374 161.369C296.965 157.686 291.731 154.252 286.672 151.064Z" fill="#127FFF" stroke="#011853" stroke-linecap="round" stroke-linejoin="round"/>
<path d="M245.147 205.084H176.44C174.927 205.084 173.476 204.483 172.406 203.413C171.336 202.343 170.735 200.892 170.735 199.379V167.039C170.912 156.538 175.208 146.527 182.697 139.164C190.186 131.8 200.268 127.674 210.771 127.674C221.274 127.674 231.356 131.8 238.845 139.164C246.334 146.527 250.63 156.538 250.807 167.039V199.379C250.807 200.884 250.212 202.328 249.152 203.397C248.092 204.466 246.652 205.072 245.147 205.084ZM182.192 193.673H239.441V167.039C239.292 159.547 236.21 152.411 230.858 147.165C225.506 141.919 218.311 138.98 210.817 138.98C203.322 138.98 196.127 141.919 190.775 147.165C185.423 152.411 182.341 159.547 182.192 167.039V193.673Z" fill="white" stroke="#011853" stroke-linecap="round" stroke-linejoin="round"/>
<path d="M253.956 189.497H166.547V263.361H253.956V189.497Z" fill="white" stroke="#011853" stroke-linecap="round" stroke-linejoin="round"/>
<path d="M219.335 220.17C219.335 218.488 218.889 216.836 218.043 215.382C217.196 213.928 215.98 212.725 214.517 211.894C213.054 211.063 211.397 210.635 209.715 210.654C208.033 210.672 206.386 211.136 204.941 211.998C203.497 212.86 202.306 214.089 201.492 215.561C200.677 217.033 200.267 218.694 200.303 220.376C200.34 222.058 200.821 223.7 201.699 225.135C202.576 226.57 203.819 227.747 205.299 228.546L203.702 245.32H215.934L214.337 228.546C215.85 227.732 217.113 226.524 217.994 225.049C218.874 223.574 219.337 221.888 219.335 220.17Z" fill="#011853" stroke="#011853" stroke-linecap="round" stroke-linejoin="round"/>
<path d="M382.469 205.814L382.332 204.103" stroke="#011853" stroke-linecap="round" stroke-linejoin="round"/>
<path d="M382.001 200.691C377.483 157.919 357.534 118.26 325.889 89.1331C294.243 60.0063 253.069 43.4081 210.07 42.4444C167.072 41.4806 125.195 56.2173 92.2761 83.8969C59.3573 111.577 37.652 150.303 31.2216 192.829C30.7347 196.069 30.3543 199.322 30.0804 202.585" stroke="#011853" stroke-linecap="round" stroke-linejoin="round" stroke-dasharray="3.01 3.01"/>
<path d="M29.875 204.274L29.738 205.974" stroke="#011853" stroke-linecap="round" stroke-linejoin="round"/>
<path d="M69.1636 176.077L79.274 134.94H48.6007L69.1636 176.077Z" fill="#011853" stroke="#011853" stroke-linecap="round" stroke-linejoin="round"/>
<path d="M69.1637 176.077L71.4117 136.503H51.8872L69.1637 176.077Z" fill="#127FFF" stroke="#011853" stroke-linecap="round" stroke-linejoin="round"/>
<path d="M69.1637 176.077L67.0754 133.422H47.5509L69.1637 176.077Z" fill="#127FFF" stroke="#011853" stroke-linecap="round" stroke-linejoin="round"/>
<path d="M32.7163 131.448L27.684 125.753H1.18726L13.614 176.077H69.1636L60.3542 131.448H32.7163Z" fill="#011853" stroke="#011853" stroke-linecap="round" stroke-linejoin="round"/>
<path d="M128.125 53.5664H61.9518C59.6389 53.5664 57.7639 55.4414 57.7639 57.7543V93.5055C57.7639 95.8184 59.6389 97.6934 61.9518 97.6934H128.125C130.438 97.6934 132.313 95.8184 132.313 93.5055V57.7543C132.313 55.4414 130.438 53.5664 128.125 53.5664Z" fill="#011853" stroke="#011853" stroke-linecap="round" stroke-linejoin="round"/>
<path d="M132.313 61.9312H57.7639V77.9068H132.313V61.9312Z" fill="#127FFF" stroke="#011853" stroke-linecap="round" stroke-linejoin="round"/>
<path d="M116.577 90.6411C116.577 90.025 116.394 89.4227 116.052 88.9104C115.71 88.3981 115.223 87.9988 114.654 87.763C114.085 87.5272 113.458 87.4655 112.854 87.5857C112.25 87.7059 111.695 88.0026 111.259 88.4383C110.823 88.874 110.527 89.4291 110.407 90.0334C110.286 90.6377 110.348 91.2641 110.584 91.8333C110.82 92.4025 111.219 92.8891 111.731 93.2314C112.243 93.5737 112.846 93.7564 113.462 93.7564C114.288 93.7564 115.081 93.4282 115.665 92.844C116.249 92.2597 116.577 91.4674 116.577 90.6411Z" fill="white" stroke="#011853" stroke-linecap="round" stroke-linejoin="round"/>
<path d="M125.238 90.6411C125.238 90.025 125.055 89.4227 124.713 88.9104C124.371 88.3981 123.884 87.9988 123.315 87.763C122.746 87.5272 122.119 87.4655 121.515 87.5857C120.911 87.7059 120.356 88.0026 119.92 88.4383C119.484 88.874 119.188 89.4291 119.068 90.0334C118.947 90.6377 119.009 91.2641 119.245 91.8333C119.481 92.4025 119.88 92.8891 120.392 93.2314C120.905 93.5737 121.507 93.7564 122.123 93.7564C122.949 93.7564 123.742 93.4282 124.326 92.844C124.91 92.2597 125.238 91.4674 125.238 90.6411Z" fill="white" stroke="#011853" stroke-linecap="round" stroke-linejoin="round"/>
<path d="M251.834 24H172.001V75.7611H251.834V24Z" fill="#127FFF" stroke="#011853" stroke-linecap="round" stroke-linejoin="round"/>
<path d="M248.216 27.2864H175.892V72.0524H248.216V27.2864Z" fill="#011853" stroke="#011853" stroke-linecap="round" stroke-linejoin="round"/>
<path d="M197.049 58.5075C197.049 53.6235 193.078 45.2249 188.194 45.2249C183.31 45.2249 179.327 53.6235 179.327 58.5075C179.327 63.3915 183.298 64.601 188.194 64.601C193.089 64.601 197.049 63.3572 197.049 58.5075Z" fill="white" stroke="#011853" stroke-linecap="round" stroke-linejoin="round"/>
<path d="M188.194 46.8449C191.559 46.8449 194.287 44.1167 194.287 40.7513C194.287 37.3859 191.559 34.6577 188.194 34.6577C184.828 34.6577 182.1 37.3859 182.1 40.7513C182.1 44.1167 184.828 46.8449 188.194 46.8449Z" fill="white" stroke="#011853" stroke-linecap="round" stroke-linejoin="round"/>
<path d="M205.904 35.8105H220.658" stroke="white" stroke-width="2" stroke-linecap="round" stroke-linejoin="round"/>
<path d="M205.904 42.2012H220.658" stroke="white" stroke-width="2" stroke-linecap="round" stroke-linejoin="round"/>
<path d="M205.904 53.521H240.331" stroke="white" stroke-width="2" stroke-linecap="round" stroke-linejoin="round"/>
<path d="M205.904 61.8853H240.331" stroke="white" stroke-width="2" stroke-linecap="round" stroke-linejoin="round"/>
<path d="M361.085 53.5664H301.712C298.038 53.5664 295.059 56.5449 295.059 60.2191V91.1206C295.059 94.7948 298.038 97.7733 301.712 97.7733H361.085C364.759 97.7733 367.737 94.7948 367.737 91.1206V60.2191C367.737 56.5449 364.759 53.5664 361.085 53.5664Z" fill="#011853" stroke="#011853" stroke-width="2" stroke-linecap="round" stroke-linejoin="round"/>
<path d="M334.302 74.563L367.737 57.6516V56.8756C367.737 55.998 367.389 55.1563 366.768 54.5357C366.147 53.9151 365.306 53.5664 364.428 53.5664H298.38C297.501 53.5664 296.658 53.9147 296.036 54.535C295.414 55.1552 295.062 55.9969 295.059 56.8756V57.8L327.889 74.6429C328.89 75.1312 329.992 75.3783 331.105 75.3645C332.219 75.3506 333.314 75.0761 334.302 74.563Z" fill="#127FFF" stroke="#011853" stroke-width="2" stroke-linecap="round" stroke-linejoin="round"/>
<path d="M404.379 130.638H340.168C337.615 130.638 335.546 132.707 335.546 135.259V163.091C335.546 165.643 337.615 167.713 340.168 167.713H404.379C406.931 167.713 409 165.643 409 163.091V135.259C409 132.707 406.931 130.638 404.379 130.638Z" fill="#011853"/>
<path d="M335.558 158.013V177.925L346.661 165.145" fill="#011853"/>
<path d="M361.164 149.854C361.167 149.099 360.945 148.361 360.527 147.732C360.109 147.103 359.514 146.613 358.817 146.323C358.12 146.033 357.353 145.957 356.612 146.104C355.872 146.25 355.192 146.614 354.658 147.147C354.124 147.681 353.761 148.361 353.614 149.102C353.468 149.842 353.544 150.609 353.834 151.306C354.124 152.003 354.614 152.598 355.243 153.016C355.871 153.434 356.61 153.656 357.364 153.654C358.371 153.651 359.336 153.249 360.048 152.537C360.76 151.825 361.161 150.861 361.164 149.854Z" fill="#127FFF"/>
<path d="M377.471 149.854C377.473 149.099 377.251 148.361 376.833 147.732C376.415 147.103 375.82 146.613 375.123 146.323C374.427 146.033 373.659 145.957 372.919 146.104C372.178 146.25 371.498 146.614 370.965 147.147C370.431 147.681 370.068 148.361 369.921 149.102C369.774 149.842 369.851 150.609 370.141 151.306C370.43 152.003 370.921 152.598 371.549 153.016C372.178 153.434 372.916 153.656 373.671 153.654C374.678 153.651 375.643 153.249 376.355 152.537C377.067 151.825 377.468 150.861 377.471 149.854Z" fill="#127FFF"/>
<path d="M393.789 149.854C393.791 149.099 393.57 148.361 393.152 147.733C392.735 147.105 392.14 146.615 391.444 146.324C390.748 146.034 389.981 145.957 389.241 146.103C388.501 146.249 387.821 146.611 387.287 147.143C386.752 147.676 386.388 148.355 386.24 149.095C386.092 149.834 386.167 150.601 386.455 151.298C386.743 151.995 387.232 152.591 387.859 153.011C388.486 153.43 389.223 153.654 389.978 153.654C390.986 153.651 391.951 153.25 392.665 152.538C393.379 151.826 393.783 150.862 393.789 149.854Z" fill="#127FFF"/>
<path d="M68.7757 223.137C68.5974 222.903 68.3677 222.714 68.1046 222.583C67.8414 222.453 67.5518 222.384 67.258 222.383H17.9618L16.0675 216.678C15.9388 216.299 15.6946 215.969 15.3692 215.736C15.0438 215.503 14.6535 215.377 14.2531 215.377H1.76928C1.28787 215.414 0.838223 215.632 0.510217 215.986C0.182211 216.34 0 216.805 0 217.288C0 217.771 0.182211 218.236 0.510217 218.591C0.838223 218.945 1.28787 219.162 1.76928 219.2H12.8724L24.9112 255.316C25.0384 255.696 25.2822 256.026 25.6079 256.26C25.9336 256.494 26.3247 256.618 26.7255 256.617H27.4216C26.736 257.674 26.3714 258.906 26.3718 260.166C26.3657 261.193 26.5999 262.208 27.0556 263.129C27.5114 264.051 28.176 264.852 28.9966 265.471C29.8172 266.09 30.771 266.508 31.782 266.693C32.7929 266.878 33.833 266.824 34.8194 266.535C35.8057 266.246 36.711 265.731 37.463 265.031C38.2149 264.33 38.7928 263.464 39.1505 262.5C39.5083 261.537 39.6359 260.503 39.5233 259.482C39.4106 258.46 39.0609 257.479 38.5019 256.617H47.6308C46.9452 257.674 46.5805 258.906 46.581 260.166C46.544 261.054 46.6871 261.941 47.0016 262.773C47.3161 263.605 47.7955 264.364 48.4111 265.006C49.0267 265.648 49.7657 266.158 50.5837 266.507C51.4016 266.856 52.2817 267.036 53.1709 267.036C54.0602 267.036 54.9402 266.856 55.7582 266.507C56.5762 266.158 57.3152 265.648 57.9308 265.006C58.5463 264.364 59.0258 263.605 59.3403 262.773C59.6548 261.941 59.7979 261.054 59.7609 260.166C59.7613 258.906 59.3967 257.674 58.7111 256.617H60.1831C60.4465 256.637 60.7113 256.603 60.9609 256.516C61.2104 256.429 61.4393 256.292 61.6332 256.112C61.8271 255.933 61.9818 255.715 62.0876 255.473C62.1934 255.231 62.248 254.97 62.248 254.706C62.248 254.441 62.1934 254.18 62.0876 253.938C61.9818 253.696 61.8271 253.478 61.6332 253.299C61.4393 253.119 61.2104 252.982 60.9609 252.895C60.7113 252.808 60.4465 252.774 60.1831 252.794H28.0949L25.9838 246.484H61.7921C62.2128 246.483 62.6217 246.345 62.9558 246.089C63.2898 245.833 63.5305 245.475 63.6407 245.069L69.0952 224.803C69.1751 224.519 69.1879 224.221 69.1324 223.932C69.0769 223.643 68.9548 223.37 68.7757 223.137ZM32.956 262.927C32.4099 262.927 31.8759 262.765 31.4218 262.462C30.9677 262.158 30.6137 261.727 30.4047 261.223C30.1957 260.718 30.141 260.163 30.2476 259.627C30.3541 259.091 30.6172 258.599 31.0034 258.213C31.3896 257.827 31.8816 257.564 32.4173 257.457C32.953 257.351 33.5082 257.406 34.0128 257.615C34.5174 257.824 34.9487 258.177 35.2521 258.632C35.5556 259.086 35.7175 259.62 35.7175 260.166C35.7145 260.897 35.4226 261.598 34.9054 262.115C34.3882 262.632 33.6875 262.924 32.956 262.927ZM53.2337 262.927C52.6875 262.927 52.1536 262.765 51.6995 262.462C51.2454 262.158 50.8914 261.727 50.6824 261.223C50.4734 260.718 50.4187 260.163 50.5253 259.627C50.6318 259.091 50.8948 258.599 51.281 258.213C51.6672 257.827 52.1593 257.564 52.695 257.457C53.2306 257.351 53.7859 257.406 54.2905 257.615C54.7951 257.824 55.2264 258.177 55.5298 258.632C55.8332 259.086 55.9952 259.62 55.9952 260.166C55.9937 260.531 55.9201 260.892 55.7787 261.229C55.6372 261.565 55.4307 261.871 55.1709 262.127C54.9112 262.384 54.6033 262.587 54.265 262.724C53.9267 262.861 53.5646 262.93 53.1995 262.927H53.2337ZM58.3345 242.661H51.2482V226.252H58.3345V242.661ZM40.3277 226.252H47.414V242.695H40.3277V226.252ZM36.5049 242.695H29.4186V226.252H36.5049V242.695ZM19.2398 226.252H25.5844V242.695H24.7286L19.2398 226.252ZM62.1572 235.928V226.252H64.759L62.1572 235.928Z" fill="#011853"/>
<path d="M379.73 213.894C374.274 213.891 368.94 215.507 364.403 218.537C359.866 221.567 356.329 225.874 354.24 230.914C352.151 235.955 351.604 241.501 352.667 246.852C353.731 252.204 356.358 257.119 360.216 260.977C364.074 264.835 368.99 267.462 374.341 268.526C379.692 269.59 385.239 269.042 390.279 266.954C395.319 264.865 399.627 261.328 402.656 256.79C405.686 252.253 407.302 246.919 407.3 241.463C407.291 234.154 404.383 227.147 399.215 221.978C394.047 216.81 387.039 213.903 379.73 213.894ZM379.73 217.317C382.013 217.317 384.5 220.307 386.257 225.305H373.203C374.995 220.307 377.414 217.317 379.73 217.317ZM387.25 228.728C388.089 232.334 388.551 236.016 388.631 239.717H370.818C370.898 236.016 371.361 232.334 372.199 228.728H387.25ZM388.688 243.175C388.594 247.486 387.958 251.769 386.794 255.921H372.712C371.571 251.781 370.954 247.514 370.875 243.22L388.688 243.175ZM367.44 239.751H355.653C355.93 235.854 357.152 232.082 359.213 228.762H368.661C367.887 232.376 367.459 236.056 367.383 239.751H367.44ZM367.44 243.175C367.498 247.472 368.045 251.748 369.072 255.921H360.388C357.62 252.231 355.976 247.821 355.653 243.22L367.44 243.175ZM370.145 259.344C370.816 261.215 371.713 262.997 372.815 264.65C369.349 263.604 366.162 261.79 363.492 259.344H370.145ZM373.854 259.344H385.596C383.918 263.338 381.761 265.666 379.73 265.666C377.699 265.666 375.542 263.293 373.854 259.344ZM389.304 259.344H395.957C393.287 261.79 390.1 263.604 386.634 264.65C387.736 262.997 388.633 261.215 389.304 259.344ZM390.377 255.921C391.444 251.753 392.026 247.476 392.111 243.175H403.842C403.514 247.796 401.853 252.224 399.061 255.921H390.377ZM392.111 239.751C392.036 236.056 391.608 232.376 390.833 228.762H400.282C402.343 232.082 403.565 235.854 403.842 239.751H392.111ZM397.703 225.339H389.932C389.196 222.857 388.1 220.497 386.68 218.332C390.91 219.622 394.706 222.045 397.657 225.339H397.703ZM372.861 218.332C371.44 220.495 370.348 222.856 369.62 225.339H361.838C364.789 222.045 368.585 219.622 372.815 218.332H372.861Z" fill="#011853"/>
<defs>
<linearGradient id="paint0_linear_285_20045" x1="295" y1="1" x2="295" y2="422" gradientUnits="userSpaceOnUse">
<stop stop-color="#011853" stop-opacity="0.25"/>
<stop offset="1" stop-color="#011853" stop-opacity="0.05"/>
</linearGradient>
</defs>
</svg>
