<svg width="517" height="422" viewBox="0 0 517 422" fill="none" xmlns="http://www.w3.org/2000/svg">
<path d="M95 1L517 1M97 61H517M97 121H517M97 181H517M97 241H517M97 301H517M97 361H517M97 421H517M96 422V2M156 422V2M216 422V2M276 422V2M336 422V2M396 422V2M456 422V2M516 422V2" stroke="url(#paint0_linear_267_3319)" stroke-width="2"/>
<path d="M28.35 193.75H22.93C17.1138 193.75 11.5358 196.06 7.42315 200.173C3.31048 204.286 1 209.864 1 215.68V336.02C1 341.836 3.31048 347.414 7.42315 351.527C11.5358 355.64 17.1138 357.95 22.93 357.95H97.29C103.106 357.95 108.684 355.64 112.797 351.527C116.91 347.414 119.22 341.836 119.22 336.02" stroke="#266CD3" stroke-width="1.10311" stroke-linecap="round" stroke-linejoin="round" stroke-dasharray="4.41 4.41"/>
<path d="M113.16 80.2V56.43C113.16 52.8733 114.571 49.4619 117.083 46.9441C119.595 44.4264 123.003 43.0079 126.56 43H223.26C226.822 43 230.238 44.4149 232.756 46.9336C235.275 49.4522 236.69 52.8681 236.69 56.43" stroke="#266CD3" stroke-width="1.10311" stroke-linecap="round" stroke-linejoin="round" stroke-dasharray="4.41 4.41"/>
<path d="M380.7 112.09V292.15C380.7 298.036 378.363 303.681 374.201 307.844C370.04 312.007 364.396 314.347 358.51 314.35H41.8101C35.924 314.347 30.28 312.007 26.1188 307.844C21.9577 303.681 19.6201 298.036 19.6201 292.15V112.09C19.6201 111.56 19.6201 111.09 19.6901 110.53C20.08 104.929 22.5796 99.6839 26.6849 95.8534C30.7901 92.0228 36.1953 89.8918 41.8101 89.8901H358.51C364.131 89.8925 369.542 92.0291 373.648 95.868C377.755 99.7069 380.25 104.962 380.63 110.57C380.68 111.05 380.7 111.57 380.7 112.09Z" fill="white" stroke="#263238" stroke-width="1.10311" stroke-linecap="round" stroke-linejoin="round"/>
<path d="M30.4202 118.85H371.03V285.18C371.03 290.697 368.839 295.987 364.938 299.888C361.037 303.789 355.747 305.98 350.23 305.98H51.2302C45.7137 305.98 40.4231 303.789 36.5223 299.888C32.6216 295.987 30.4302 290.697 30.4302 285.18V118.85H30.4202Z" fill="#263238"/>
<path opacity="0.2" d="M371.04 118.85V285.18C371.069 290.666 368.919 295.938 365.062 299.839C361.204 303.739 355.956 305.948 350.47 305.98H50.9902C45.5046 305.948 40.2561 303.739 36.3988 299.839C32.5414 295.938 30.391 290.666 30.4202 285.18V118.85H371.04Z" fill="white"/>
<path d="M380.63 110.57H19.6902C20.08 104.969 22.5797 99.724 26.6849 95.8934C30.7902 92.0629 36.1954 89.9318 41.8102 89.9302H358.51C364.125 89.9318 369.53 92.0629 373.635 95.8934C377.741 99.724 380.24 104.969 380.63 110.57Z" fill="#127FFF" stroke="#263238" stroke-width="1.10311" stroke-miterlimit="10"/>
<path d="M64.0402 100.21C64.0402 100.987 63.8097 101.747 63.3779 102.394C62.946 103.04 62.3322 103.544 61.6141 103.841C60.896 104.138 60.1058 104.216 59.3435 104.065C58.5811 103.913 57.8809 103.539 57.3313 102.989C56.7816 102.439 56.4073 101.739 56.2557 100.977C56.1041 100.215 56.1819 99.4243 56.4793 98.7062C56.7768 97.9881 57.2805 97.3743 57.9268 96.9425C58.5731 96.5106 59.3329 96.2802 60.1102 96.2802C61.1525 96.2802 62.1521 96.6942 62.8891 97.4312C63.6261 98.1682 64.0402 99.1679 64.0402 100.21Z" fill="#263238"/>
<path d="M80.6602 100.21C80.6602 100.987 80.4297 101.747 79.9978 102.394C79.566 103.04 78.9522 103.544 78.2341 103.841C77.516 104.138 76.7258 104.216 75.9635 104.065C75.2011 103.913 74.5009 103.539 73.9512 102.989C73.4016 102.439 73.0273 101.739 72.8757 100.977C72.724 100.215 72.8019 99.4243 73.0993 98.7062C73.3968 97.9881 73.9005 97.3743 74.5468 96.9425C75.1931 96.5106 75.9529 96.2802 76.7302 96.2802C77.7725 96.2802 78.7721 96.6942 79.5091 97.4312C80.2461 98.1682 80.6602 99.1679 80.6602 100.21Z" fill="#263238"/>
<path d="M93.3502 104.14C95.5207 104.14 97.2802 102.381 97.2802 100.21C97.2802 98.0397 95.5207 96.2802 93.3502 96.2802C91.1797 96.2802 89.4202 98.0397 89.4202 100.21C89.4202 102.381 91.1797 104.14 93.3502 104.14Z" fill="#263238"/>
<path d="M371.03 118.85V285.18C371.03 290.697 368.839 295.987 364.938 299.888C361.037 303.789 355.747 305.98 350.23 305.98H51.2302C46.4156 305.979 41.7503 304.308 38.0302 301.252C34.31 298.195 31.7654 293.943 30.8302 289.22V289.16C30.576 287.842 30.4487 286.503 30.4502 285.16V118.85H371.03Z" stroke="#263238" stroke-width="1.10311" stroke-miterlimit="10"/>
<path d="M370.71 144.57C369.252 143.751 367.701 143.11 366.09 142.66L364.22 134.31H356.28L354.43 142.66C352.81 143.102 351.252 143.743 349.79 144.57L342.62 139.98L337.01 145.57L341.52 152.74C340.694 154.202 340.053 155.761 339.61 157.38L331.26 159.23V167.17L339.61 169.04C340.048 170.668 340.69 172.233 341.52 173.7L336.93 180.92L342.55 186.53L349.76 181.94C351.219 182.768 352.774 183.413 354.39 183.86L356.25 192.2H364.16L366.02 183.86C367.632 183.408 369.183 182.764 370.64 181.94L371.01 182.18V144.37L370.71 144.57ZM360.27 173.57C358.24 173.57 356.256 172.968 354.569 171.84C352.881 170.712 351.566 169.109 350.79 167.234C350.014 165.359 349.811 163.295 350.208 161.305C350.605 159.314 351.583 157.486 353.019 156.052C354.455 154.617 356.284 153.641 358.275 153.246C360.266 152.851 362.329 153.056 364.203 153.834C366.078 154.612 367.68 155.929 368.806 157.617C369.932 159.306 370.532 161.29 370.53 163.32C370.53 164.667 370.265 166.001 369.749 167.245C369.233 168.489 368.477 169.62 367.524 170.571C366.572 171.523 365.44 172.278 364.196 172.793C362.951 173.307 361.617 173.571 360.27 173.57Z" fill="#263238"/>
<path d="M227.61 152.62V135.88L210.01 131.97C209.06 128.569 207.718 125.291 206.01 122.2L208.14 118.85H125.04L127.09 122.11C125.361 125.187 124.018 128.465 123.09 131.87L105.48 135.79V152.57L123.09 156.5C124.018 159.931 125.361 163.235 127.09 166.34L117.42 181.55L129.27 193.39L144.47 183.71C147.554 185.445 150.834 186.804 154.24 187.76L158.16 205.31H174.86L178.8 187.72C182.195 186.76 185.465 185.4 188.54 183.67L203.75 193.35L215.59 181.51L205.98 166.3C207.684 163.215 209.026 159.943 209.98 156.55L227.61 152.62ZM166.61 165.88C162.332 165.88 158.15 164.612 154.593 162.235C151.036 159.858 148.264 156.48 146.627 152.528C144.989 148.575 144.561 144.226 145.396 140.03C146.23 135.834 148.29 131.98 151.315 128.955C154.34 125.93 158.194 123.87 162.39 123.036C166.586 122.201 170.935 122.629 174.888 124.267C178.84 125.904 182.218 128.676 184.595 132.233C186.972 135.79 188.24 139.972 188.24 144.25C188.241 147.091 187.683 149.904 186.596 152.529C185.51 155.154 183.917 157.539 181.908 159.548C179.899 161.557 177.514 163.15 174.889 164.236C172.264 165.323 169.451 165.881 166.61 165.88Z" fill="#263238"/>
<path d="M116.54 267.57L117.25 254.28L103.48 250.4C102.841 247.669 101.895 245.019 100.66 242.5L108.98 230.82L100.06 220.93L87.6002 227.93C85.2185 226.432 82.6716 225.214 80.0102 224.3L77.6302 210.18L64.3502 209.57L60.5102 223.38C57.7742 223.994 55.1218 224.934 52.6102 226.18L40.9402 217.87L31.0302 226.78L38.0902 239.25C36.5766 241.621 35.3545 244.166 34.4502 246.83L30.4502 247.49V265.49L33.3702 266.31C33.976 269.05 34.9128 271.706 36.1602 274.22L30.4202 282.27L30.8002 289.16V289.22L36.7302 295.79L49.2102 288.74C51.5877 290.269 54.1433 291.502 56.8202 292.41L59.1602 305.97L59.2702 306.54L72.5502 307.24L72.9002 305.97L76.3902 293.44C79.1385 292.825 81.8038 291.885 84.3302 290.64L95.9802 298.94L105.88 290.04L98.8802 277.56C100.38 275.192 101.585 272.65 102.47 269.99L116.54 267.57ZM81.2702 246.82C78.9954 244.29 76.0212 242.491 72.724 241.651C69.4267 240.812 65.9545 240.969 62.7466 242.103C59.5386 243.237 56.7391 245.297 54.7022 248.023C52.6653 250.748 51.4824 254.016 51.3033 257.414C51.1242 260.812 51.9568 264.186 53.6959 267.111C55.435 270.035 58.0024 272.378 61.0733 273.843C64.1442 275.308 67.5806 275.83 70.9479 275.341C74.3151 274.853 77.4619 273.377 79.9902 271.1C83.3658 268.05 85.3958 263.787 85.6357 259.244C85.8756 254.701 84.3059 250.248 81.2702 246.86V246.82Z" fill="#263238"/>
<path d="M222.76 247.76C223.274 245.702 223.546 243.591 223.57 241.47L233.12 236.47L230.48 226.78L219.7 227.28C218.608 225.469 217.31 223.791 215.83 222.28L219.02 211.97L210.32 206.97L203.04 214.91C200.986 214.414 198.883 214.146 196.77 214.11L191.77 204.56L182.09 207.19L182.6 217.98C180.789 219.072 179.111 220.37 177.6 221.85L167.28 218.66L162.28 227.35L170.28 234.62C169.763 236.67 169.498 238.776 169.49 240.89L159.92 245.89L162.56 255.57L173.36 255.06C174.431 256.88 175.724 258.56 177.21 260.06L174 270.32L182.71 275.32L189.95 267.44C192.007 267.958 194.119 268.223 196.24 268.23L201.24 277.79L210.92 275.16L210.49 265.94L210.42 264.36C212.257 263.279 213.956 261.98 215.48 260.49L225.79 263.69L230.05 256.25L230.77 254.99L222.76 247.76ZM199.89 253.64C197.408 254.325 194.778 254.257 192.334 253.445C189.891 252.633 187.743 251.113 186.164 249.079C184.585 247.045 183.646 244.587 183.466 242.019C183.286 239.45 183.872 236.885 185.151 234.65C186.43 232.416 188.344 230.611 190.651 229.465C192.957 228.32 195.551 227.885 198.105 228.216C200.659 228.547 203.056 229.629 204.994 231.324C206.932 233.02 208.323 235.253 208.99 237.74C209.879 241.055 209.422 244.587 207.717 247.565C206.012 250.544 203.199 252.728 199.89 253.64Z" fill="#263238"/>
<path d="M333.48 264.8L335.68 251.5L322.22 246.09C321.915 243.256 321.267 240.469 320.29 237.79L329.98 227L322.14 216L308.78 221.67C306.562 219.892 304.138 218.388 301.56 217.19L300.78 202.7L287.48 200.5L282.03 213.9C279.208 214.232 276.433 214.886 273.76 215.85L262.94 206.16L251.99 214L257.67 227.35C256.107 229.301 254.749 231.409 253.62 233.64C253.47 233.95 253.31 234.26 253.17 234.57L238.69 235.37L236.48 248.65L238.66 249.53L249.94 254.08C250.248 256.901 250.896 259.675 251.87 262.34L242.16 273.2L250.01 284.2L263.36 278.5C265.571 280.294 267.992 281.812 270.57 283.02L271.32 297.44L284.61 299.64L290.05 286.34C292.878 286.031 295.659 285.38 298.33 284.4L309.13 294.09L320.13 286.24L314.45 272.88C316.259 270.66 317.788 268.225 319 265.63L333.48 264.8ZM296.18 264.2C293.382 266.208 290.052 267.34 286.61 267.455C283.168 267.569 279.77 266.661 276.845 264.844C273.919 263.027 271.599 260.383 270.176 257.247C268.753 254.111 268.293 250.623 268.852 247.225C269.412 243.828 270.966 240.672 273.32 238.158C275.673 235.644 278.719 233.884 282.072 233.101C285.425 232.317 288.936 232.546 292.159 233.759C295.382 234.971 298.174 237.111 300.18 239.91C302.868 243.664 303.954 248.332 303.2 252.888C302.447 257.443 299.914 261.512 296.16 264.2H296.18Z" fill="#263238"/>
<path d="M153.24 166.34H48.66C41.4196 166.34 35.55 172.21 35.55 179.45V324.24C35.55 331.48 41.4196 337.35 48.66 337.35H153.24C160.481 337.35 166.35 331.48 166.35 324.24V179.45C166.35 172.21 160.481 166.34 153.24 166.34Z" fill="#127FFF" stroke="#263238" stroke-width="1.10311" stroke-miterlimit="10"/>
<path opacity="0.2" d="M153.24 166.34H48.66C41.4196 166.34 35.55 172.21 35.55 179.45V324.24C35.55 331.48 41.4196 337.35 48.66 337.35H153.24C160.481 337.35 166.35 331.48 166.35 324.24V179.45C166.35 172.21 160.481 166.34 153.24 166.34Z" fill="black"/>
<path d="M178.52 192.37V337.16C178.521 338.882 178.183 340.588 177.525 342.18C176.867 343.772 175.901 345.218 174.684 346.437C173.466 347.655 172.021 348.622 170.429 349.281C168.838 349.94 167.132 350.28 165.41 350.28H60.83C59.1084 350.279 57.4038 349.938 55.8138 349.278C54.2237 348.618 52.7792 347.651 51.5627 346.433C50.3463 345.215 49.3817 343.769 48.7241 342.178C48.0665 340.587 47.7287 338.882 47.73 337.16V192.37C47.73 188.895 49.1098 185.562 51.5663 183.103C54.0227 180.645 57.3547 179.263 60.83 179.26H165.41C168.887 179.26 172.222 180.641 174.68 183.1C177.139 185.558 178.52 188.893 178.52 192.37Z" fill="white" stroke="#263238" stroke-width="1.10311" stroke-linecap="round" stroke-linejoin="round"/>
<path d="M178.52 192.37V200.12H47.73V192.37C47.73 188.895 49.1098 185.562 51.5663 183.103C54.0227 180.645 57.3547 179.263 60.83 179.26H165.41C168.887 179.26 172.222 180.641 174.68 183.1C177.139 185.558 178.52 188.893 178.52 192.37Z" fill="#127FFF" stroke="#263238" stroke-width="1.10311" stroke-miterlimit="10"/>
<path d="M92.21 209.1H60.03V214.5H92.21V209.1Z" fill="#127FFF"/>
<path d="M92.21 257.49H60.03V262.89H92.21V257.49Z" fill="#127FFF"/>
<path d="M92.21 301.37H60.03V306.77H92.21V301.37Z" fill="#127FFF"/>
<path d="M151.42 222.47H60.03V226.43H151.42V222.47Z" fill="#263238"/>
<path d="M134.94 230.04H60.03V233.9H134.94V230.04Z" fill="#263238"/>
<path d="M144.75 237.49H60.03V241.35H144.75V237.49Z" fill="#263238"/>
<path d="M144.75 244.93H60.03V248.79H144.75V244.93Z" fill="#263238"/>
<path d="M151.42 266.35H60.03V270.31H151.42V266.35Z" fill="#263238"/>
<path d="M134.94 273.92H60.03V277.78H134.94V273.92Z" fill="#263238"/>
<path d="M144.75 281.37H60.03V285.23H144.75V281.37Z" fill="#263238"/>
<path d="M151.42 314.53H60.03V318.49H151.42V314.53Z" fill="#263238"/>
<path d="M134.94 322.11H60.03V325.97H134.94V322.11Z" fill="#263238"/>
<path d="M144.75 329.56H60.03V333.42H144.75V329.56Z" fill="#263238"/>
<path d="M325.93 78.86V137.38C325.93 139.433 325.525 141.467 324.739 143.364C323.953 145.261 322.801 146.984 321.349 148.436C319.896 149.887 318.172 151.038 316.275 151.823C314.377 152.608 312.344 153.011 310.29 153.01H175.51C173.457 153.011 171.423 152.608 169.526 151.823C167.628 151.038 165.904 149.887 164.452 148.436C162.999 146.984 161.847 145.261 161.061 143.364C160.275 141.467 159.87 139.433 159.87 137.38V78.86C159.873 74.7128 161.521 70.7362 164.454 67.8037C167.386 64.8712 171.363 63.2226 175.51 63.22H310.29C314.438 63.22 318.416 64.8678 321.349 67.8008C324.282 70.7339 325.93 74.712 325.93 78.86Z" fill="white" stroke="#222221" stroke-width="1.10311" stroke-miterlimit="10"/>
<path d="M325.93 78.86V80.2H159.87V78.86C159.873 74.7128 161.521 70.7362 164.454 67.8037C167.386 64.8712 171.363 63.2226 175.51 63.22H310.29C314.438 63.22 318.416 64.8678 321.349 67.8008C324.282 70.7339 325.93 74.712 325.93 78.86Z" fill="#127FFF" stroke="#263238" stroke-width="1.10311" stroke-miterlimit="10"/>
<path d="M184.27 74.51C183.935 74.8463 183.507 75.0754 183.041 75.1685C182.576 75.2616 182.093 75.2144 181.654 75.0329C181.215 74.8514 180.84 74.5438 180.576 74.149C180.312 73.7542 180.171 73.29 180.171 72.815C180.171 72.3401 180.312 71.8759 180.576 71.4811C180.84 71.0863 181.215 70.7787 181.654 70.5972C182.093 70.4157 182.576 70.3685 183.041 70.4616C183.507 70.5547 183.935 70.7838 184.27 71.12C184.716 71.5712 184.967 72.1803 184.967 72.815C184.967 73.4498 184.716 74.0588 184.27 74.51Z" fill="#263238"/>
<path d="M195.39 74.51C195.055 74.8463 194.627 75.0754 194.161 75.1685C193.696 75.2616 193.213 75.2144 192.774 75.0329C192.335 74.8514 191.96 74.5438 191.696 74.149C191.432 73.7542 191.291 73.29 191.291 72.815C191.291 72.3401 191.432 71.8759 191.696 71.4811C191.96 71.0863 192.335 70.7787 192.774 70.5972C193.213 70.4157 193.696 70.3685 194.161 70.4616C194.627 70.5547 195.055 70.7838 195.39 71.12C195.836 71.5712 196.087 72.1803 196.087 72.815C196.087 73.4498 195.836 74.0588 195.39 74.51Z" fill="#263238"/>
<path d="M206.51 74.51C206.175 74.8463 205.747 75.0754 205.281 75.1685C204.816 75.2616 204.333 75.2144 203.894 75.0329C203.455 74.8514 203.08 74.5438 202.816 74.149C202.552 73.7542 202.411 73.29 202.411 72.815C202.411 72.3401 202.552 71.8759 202.816 71.4811C203.08 71.0863 203.455 70.7787 203.894 70.5972C204.333 70.4157 204.816 70.3685 205.281 70.4616C205.747 70.5547 206.175 70.7838 206.51 71.12C206.956 71.5712 207.207 72.1803 207.207 72.815C207.207 73.4498 206.956 74.0588 206.51 74.51Z" fill="#263238"/>
<path d="M224.74 90.96H170.46V137.88H224.74V90.96Z" stroke="#263238" stroke-width="1.10311" stroke-linecap="round" stroke-linejoin="round" stroke-dasharray="4.41 4.41"/>
<path d="M295.59 90.96H233.12V94.26H295.59V90.96Z" fill="#263238"/>
<path d="M281.04 97.79H233.12V101.08H281.04V97.79Z" fill="#263238"/>
<path d="M304.47 104.59H233.12V107.92H304.47V104.59Z" fill="#263238"/>
<path d="M293.88 111.22H233.12V114.55H293.88V111.22Z" fill="#263238"/>
<path d="M330.47 224.1H299.92C296.314 224.1 293.39 227.024 293.39 230.63V248.56C293.39 252.167 296.314 255.09 299.92 255.09H330.47C334.077 255.09 337 252.167 337 248.56V230.63C337 227.024 334.077 224.1 330.47 224.1Z" fill="white" stroke="#263238" stroke-width="1.10311" stroke-linecap="round" stroke-linejoin="round"/>
<path d="M307.46 233.42L299.07 238.68L306.86 245.58" stroke="#263238" stroke-width="1.10311" stroke-linecap="round" stroke-linejoin="round"/>
<path d="M322.74 246.08L330.28 239.66L321.58 233.96" stroke="#263238" stroke-width="1.10311" stroke-linecap="round" stroke-linejoin="round"/>
<path d="M311.54 250.04L317.73 230.62" stroke="#263238" stroke-width="1.10311" stroke-linecap="round" stroke-linejoin="round"/>
<defs>
<linearGradient id="paint0_linear_267_3319" x1="306" y1="1" x2="306" y2="422" gradientUnits="userSpaceOnUse">
<stop stop-color="white" stop-opacity="0.19"/>
<stop offset="1" stop-color="white" stop-opacity="0.04"/>
</linearGradient>
</defs>
</svg>
