<svg width="422" height="422" viewBox="0 0 422 422" fill="none" xmlns="http://www.w3.org/2000/svg">
<path d="M0 1L422 1M2 61H422M2 121H422M2 181H422M2 241H422M2 301H422M2 361H422M2 421H422M1 422V2M61 422V2M121 422V2M181 422V2M241 422V2M301 422V2M361 422V2M421 422V2" stroke="url(#paint0_linear_267_3453)" stroke-width="2"/>
<path d="M346.07 99.2302C345.238 102.521 345.45 105.989 346.677 109.153C347.904 112.318 350.086 115.022 352.92 116.89C355.753 118.759 359.098 119.699 362.49 119.581C365.882 119.462 369.154 118.291 371.85 116.23L378.18 122.29C378.017 122.95 378.029 123.642 378.215 124.296C378.401 124.95 378.754 125.544 379.24 126.02L392.99 139.49C393.359 139.848 393.795 140.13 394.273 140.319C394.751 140.508 395.261 140.602 395.775 140.594C396.289 140.586 396.797 140.477 397.268 140.273C397.74 140.069 398.167 139.774 398.525 139.405C398.883 139.036 399.165 138.6 399.354 138.122C399.543 137.645 399.637 137.134 399.629 136.62C399.621 136.106 399.512 135.599 399.308 135.127C399.104 134.655 398.809 134.228 398.44 133.87L384.66 120.39C384.164 119.913 383.55 119.574 382.881 119.409C382.212 119.244 381.512 119.258 380.85 119.45L374.66 113.49C376.154 111.66 377.226 109.522 377.8 107.23C378.325 105.147 378.435 102.98 378.123 100.854C377.811 98.7286 377.084 96.685 375.982 94.8404C374.88 92.9957 373.426 91.3862 371.702 90.1036C369.978 88.821 368.018 87.8905 365.935 87.3652C363.852 86.8399 361.685 86.7301 359.559 87.0421C357.433 87.3541 355.39 88.0817 353.545 89.1835C351.701 90.2853 350.091 91.7396 348.808 93.4634C347.526 95.1872 346.595 97.1467 346.07 99.2302ZM374.96 106.49C374.312 109.066 372.914 111.392 370.944 113.174C368.973 114.956 366.519 116.113 363.89 116.5C361.262 116.886 358.578 116.485 356.178 115.346C353.778 114.207 351.77 112.382 350.408 110.101C349.045 107.821 348.389 105.188 348.523 102.535C348.657 99.8815 349.575 97.3278 351.161 95.1964C352.746 93.0651 354.928 91.4518 357.431 90.5607C359.934 89.6695 362.644 89.5406 365.22 90.1902C368.671 91.0632 371.635 93.2698 373.461 96.3257C375.287 99.3817 375.826 103.037 374.96 106.49Z" stroke="#0957B3" stroke-miterlimit="10"/>
<path d="M43.66 297.4C41.1797 297.993 38.9452 299.343 37.2663 301.263C35.5875 303.182 34.5474 305.577 34.2903 308.114C34.0331 310.651 34.5717 313.206 35.8313 315.423C37.0908 317.641 39.0091 319.412 41.32 320.49L39.48 326.82C38.9829 326.94 38.5256 327.187 38.1537 327.538C37.7818 327.889 37.5082 328.331 37.36 328.82L33.11 342.69C32.9006 343.442 32.9924 344.245 33.3658 344.931C33.7392 345.616 34.3648 346.129 35.11 346.36C35.8617 346.569 36.6655 346.478 37.3506 346.104C38.0358 345.731 38.5486 345.105 38.78 344.36L43 330.49C43.1502 329.993 43.1644 329.464 43.0413 328.96C42.9182 328.455 42.6623 327.992 42.3 327.62L44.12 321.4C45.9261 321.772 47.7926 321.733 49.5816 321.287C51.3706 320.84 53.0362 319.997 54.4553 318.819C55.8744 317.642 57.0106 316.16 57.7799 314.485C58.5492 312.809 58.9318 310.981 58.8996 309.138C58.8673 307.294 58.4209 305.481 57.5935 303.833C56.766 302.186 55.5787 300.745 54.1193 299.618C52.6599 298.491 50.9657 297.706 49.1622 297.323C47.3587 296.939 45.4919 296.965 43.7 297.4H43.66ZM48.84 319.2C46.8965 319.662 44.8596 319.538 42.9869 318.842C41.1142 318.147 39.4898 316.911 38.3192 315.293C37.1486 313.674 36.4843 311.744 36.4103 309.748C36.3364 307.752 36.8562 305.778 37.9039 304.077C38.9516 302.376 40.4801 301.024 42.2963 300.192C44.1124 299.36 46.1345 299.085 48.1069 299.402C50.0793 299.719 51.9133 300.614 53.377 301.974C54.8407 303.333 55.8684 305.096 56.33 307.04C56.9474 309.64 56.5103 312.379 55.1143 314.657C53.7182 316.936 51.4768 318.569 48.88 319.2H48.84Z" stroke="#0957B3" stroke-miterlimit="10"/>
<path d="M377.06 205.24H348.06C346.177 205.24 344.371 205.988 343.04 207.32C341.708 208.651 340.96 210.457 340.96 212.34V228.39C340.96 230.273 341.708 232.079 343.04 233.41C344.371 234.742 346.177 235.49 348.06 235.49H368.26L367.26 245.49L376.66 235.49H377.06C377.992 235.49 378.916 235.306 379.777 234.95C380.639 234.593 381.421 234.07 382.081 233.41C382.74 232.751 383.263 231.968 383.62 231.107C383.976 230.246 384.16 229.322 384.16 228.39V212.34C384.16 211.408 383.976 210.484 383.62 209.623C383.263 208.762 382.74 207.979 382.081 207.32C381.421 206.66 380.639 206.137 379.777 205.78C378.916 205.424 377.992 205.24 377.06 205.24Z" stroke="#0957B3" stroke-miterlimit="10"/>
<path d="M45.7601 243.24H65.4101C66.0417 243.24 66.6672 243.364 67.2508 243.606C67.8344 243.848 68.3646 244.202 68.8113 244.649C69.2579 245.095 69.6122 245.626 69.8539 246.209C70.0957 246.793 70.2201 247.418 70.2201 248.05V258.92C70.2201 259.552 70.0957 260.177 69.8539 260.761C69.6122 261.344 69.2579 261.875 68.8113 262.321C68.3646 262.768 67.8344 263.122 67.2508 263.364C66.6672 263.606 66.0417 263.73 65.4101 263.73H51.7301L52.4401 270.49L46.0301 263.73H45.7601C44.4844 263.73 43.2609 263.223 42.3589 262.321C41.4568 261.419 40.9501 260.196 40.9501 258.92V248.05C40.9501 246.774 41.4568 245.551 42.3589 244.649C43.2609 243.747 44.4844 243.24 45.7601 243.24Z" stroke="#0957B3" stroke-miterlimit="10"/>
<path d="M191.01 60H210.66C211.936 60 213.159 60.5068 214.061 61.4088C214.963 62.3109 215.47 63.5343 215.47 64.81V75.68C215.47 76.9557 214.963 78.1791 214.061 79.0812C213.159 79.9832 211.936 80.49 210.66 80.49H196.98L197.69 87.25L191.28 80.49H191.01C189.734 80.49 188.511 79.9832 187.609 79.0812C186.707 78.1791 186.2 76.9557 186.2 75.68V64.81C186.2 63.5343 186.707 62.3109 187.609 61.4088C188.511 60.5068 189.734 60 191.01 60Z" stroke="#0957B3" stroke-miterlimit="10"/>
<path d="M164.31 82.0801L212.39 216.44L315.64 84.2001" stroke="#0957B3" stroke-miterlimit="10"/>
<path d="M356.65 169.77L212.39 216.44L309.27 325.34" stroke="#0957B3" stroke-miterlimit="10"/>
<path d="M101.37 321.1L212.39 216.44L61.0599 190.98" stroke="#0957B3" stroke-miterlimit="10"/>
<path d="M368.995 176.971C372.74 169.817 369.976 160.983 362.823 157.238C355.669 153.493 346.834 156.257 343.09 163.411C339.345 170.564 342.109 179.399 349.262 183.143C356.416 186.888 365.251 184.124 368.995 176.971Z" fill="#989DA0" stroke="#0957B3" stroke-width="0.5" stroke-miterlimit="10"/>
<path d="M360.88 169.18H351.35C350.456 169.18 349.599 169.535 348.967 170.167C348.335 170.799 347.98 171.656 347.98 172.55V180.55C350.309 182.367 353.184 183.344 356.138 183.32C359.091 183.296 361.951 182.274 364.25 180.42V172.55C364.25 171.656 363.895 170.799 363.263 170.167C362.631 169.535 361.774 169.18 360.88 169.18Z" fill="#127FFF" stroke="#0957B3" stroke-miterlimit="10"/>
<path d="M355.95 167.71C356.909 167.71 357.847 167.426 358.645 166.893C359.442 166.36 360.064 165.602 360.431 164.716C360.798 163.83 360.894 162.855 360.707 161.914C360.52 160.973 360.058 160.109 359.379 159.431C358.701 158.752 357.837 158.29 356.896 158.103C355.955 157.916 354.98 158.012 354.094 158.379C353.208 158.746 352.45 159.368 351.917 160.166C351.384 160.963 351.1 161.901 351.1 162.86C351.1 164.146 351.611 165.38 352.521 166.29C353.43 167.199 354.664 167.71 355.95 167.71Z" fill="#127FFF" stroke="#0957B3" stroke-miterlimit="10"/>
<path d="M324.241 325.791C327.358 318.342 323.847 309.777 316.399 306.66C308.951 303.543 300.385 307.054 297.268 314.502C294.151 321.951 297.662 330.516 305.11 333.633C312.559 336.75 321.124 333.239 324.241 325.791Z" fill="#989DA0" stroke="#0957B3" stroke-width="0.5" stroke-miterlimit="10"/>
<path d="M315.66 319.18H306.13C305.688 319.179 305.25 319.265 304.841 319.433C304.432 319.601 304.061 319.849 303.748 320.161C303.435 320.473 303.186 320.844 303.017 321.252C302.847 321.66 302.76 322.098 302.76 322.54V330.54C305.089 332.357 307.964 333.334 310.918 333.31C313.872 333.286 316.731 332.264 319.03 330.41V322.54C319.03 322.098 318.943 321.66 318.773 321.252C318.604 320.844 318.355 320.473 318.042 320.161C317.729 319.849 317.358 319.601 316.949 319.433C316.54 319.265 316.102 319.179 315.66 319.18Z" fill="#127FFF" stroke="#0957B3" stroke-miterlimit="10"/>
<path d="M310.66 317.7C311.619 317.7 312.557 317.416 313.355 316.883C314.152 316.35 314.774 315.592 315.141 314.706C315.508 313.82 315.604 312.845 315.417 311.904C315.23 310.963 314.768 310.099 314.09 309.421C313.411 308.742 312.547 308.281 311.606 308.093C310.665 307.906 309.69 308.002 308.804 308.369C307.918 308.736 307.16 309.358 306.627 310.156C306.095 310.953 305.81 311.891 305.81 312.85C305.81 313.487 305.936 314.118 306.179 314.706C306.423 315.295 306.78 315.829 307.231 316.28C307.681 316.73 308.216 317.087 308.804 317.331C309.392 317.575 310.023 317.7 310.66 317.7Z" fill="#127FFF" stroke="#0957B3" stroke-miterlimit="10"/>
<path d="M163.68 91.5201C169.413 91.5201 174.06 86.8728 174.06 81.1401C174.06 75.4074 169.413 70.7601 163.68 70.7601C157.947 70.7601 153.3 75.4074 153.3 81.1401C153.3 86.8728 157.947 91.5201 163.68 91.5201Z" fill="#989DA0" stroke="#0957B3" stroke-width="0.5" stroke-miterlimit="10"/>
<path d="M167.12 80.4901H160.36C159.726 80.4901 159.118 80.7419 158.67 81.1901C158.222 81.6383 157.97 82.2462 157.97 82.8801V88.4901C159.623 89.775 161.662 90.4651 163.756 90.4487C165.85 90.4324 167.877 89.7107 169.51 88.4001V82.8301C169.497 82.2049 169.239 81.6098 168.793 81.1723C168.346 80.7348 167.745 80.4899 167.12 80.4901Z" fill="#127FFF" stroke="#0957B3" stroke-miterlimit="10"/>
<path d="M163.66 79.3901C164.34 79.3901 165.005 79.1883 165.571 78.8103C166.137 78.4323 166.578 77.8951 166.838 77.2665C167.098 76.6379 167.167 75.9463 167.034 75.279C166.901 74.6117 166.574 73.9987 166.092 73.5176C165.611 73.0365 164.998 72.7089 164.331 72.5762C163.664 72.4434 162.972 72.5116 162.344 72.7719C161.715 73.0323 161.178 73.4732 160.8 74.0389C160.422 74.6046 160.22 75.2697 160.22 75.9501C160.22 76.8624 160.582 77.7374 161.228 78.3825C161.873 79.0276 162.748 79.3901 163.66 79.3901Z" fill="#127FFF" stroke="#0957B3" stroke-miterlimit="10"/>
<path d="M109.357 323.401C111.565 318.11 109.066 312.032 103.775 309.824C98.4845 307.616 92.4059 310.115 90.1983 315.406C87.9906 320.697 90.4898 326.775 95.7804 328.983C101.071 331.19 107.149 328.691 109.357 323.401Z" fill="#989DA0" stroke="#0957B3" stroke-width="0.5" stroke-miterlimit="10"/>
<path d="M103.22 318.7H96.46C96.1444 318.699 95.8317 318.76 95.54 318.88C95.2482 319 94.9831 319.177 94.76 319.4C94.5368 319.623 94.3601 319.888 94.24 320.18C94.1198 320.472 94.0586 320.785 94.06 321.1V326.77C95.712 328.063 97.7532 328.757 99.8507 328.741C101.948 328.725 103.978 327.998 105.61 326.68V321.1C105.611 320.785 105.55 320.474 105.431 320.182C105.311 319.891 105.136 319.627 104.913 319.404C104.691 319.181 104.428 319.004 104.137 318.883C103.846 318.762 103.535 318.7 103.22 318.7Z" fill="#127FFF" stroke="#0957B3" stroke-miterlimit="10"/>
<path d="M99.72 317.65C100.4 317.65 101.065 317.448 101.631 317.07C102.197 316.692 102.638 316.155 102.898 315.527C103.159 314.898 103.227 314.206 103.094 313.539C102.961 312.872 102.634 312.259 102.152 311.778C101.671 311.297 101.058 310.969 100.391 310.836C99.7238 310.704 99.0322 310.772 98.4036 311.032C97.775 311.292 97.2378 311.733 96.8598 312.299C96.4818 312.865 96.28 313.53 96.28 314.21C96.28 315.123 96.6425 315.998 97.2876 316.643C97.9327 317.288 98.8077 317.65 99.72 317.65Z" fill="#127FFF" stroke="#0957B3" stroke-miterlimit="10"/>
<path d="M325.111 84.159C327.199 78.8201 324.564 72.7993 319.225 70.7113C313.886 68.6233 307.865 71.2587 305.777 76.5977C303.689 81.9366 306.325 87.9573 311.663 90.0453C317.002 92.1333 323.023 89.498 325.111 84.159Z" fill="#989DA0" stroke="#0957B3" stroke-width="0.5" stroke-miterlimit="10"/>
<path d="M318.91 79.6801H312.14C311.826 79.6801 311.515 79.7419 311.225 79.862C310.935 79.9821 310.672 80.1581 310.45 80.3801C310.228 80.602 310.052 80.8655 309.932 81.1554C309.812 81.4454 309.75 81.7562 309.75 82.0701V87.7501C311.405 89.0358 313.445 89.7263 315.541 89.71C317.636 89.6936 319.665 88.9715 321.3 87.6601V82.0701C321.3 81.7562 321.238 81.4454 321.118 81.1554C320.998 80.8655 320.822 80.602 320.6 80.3801C320.378 80.1581 320.115 79.9821 319.825 79.862C319.535 79.7419 319.224 79.6801 318.91 79.6801Z" fill="#127FFF" stroke="#0957B3" stroke-miterlimit="10"/>
<path d="M315.41 78.6301C316.09 78.6301 316.755 78.4283 317.321 78.0503C317.887 77.6723 318.328 77.1351 318.588 76.5065C318.848 75.8779 318.917 75.1862 318.784 74.519C318.651 73.8517 318.323 73.2387 317.842 72.7576C317.361 72.2765 316.748 71.9489 316.081 71.8162C315.414 71.6834 314.722 71.7516 314.094 72.0119C313.465 72.2723 312.928 72.7132 312.55 73.2789C312.172 73.8446 311.97 74.5097 311.97 75.1901C311.97 76.1024 312.332 76.9774 312.978 77.6225C313.623 78.2676 314.498 78.6301 315.41 78.6301Z" fill="#127FFF" stroke="#0957B3" stroke-miterlimit="10"/>
<path d="M77.2416 195.867C81.3107 186.225 76.7927 175.109 67.1503 171.04C57.508 166.971 46.3926 171.489 42.3235 181.131C38.2544 190.774 42.7724 201.889 52.4147 205.958C62.0571 210.027 73.1724 205.509 77.2416 195.867Z" fill="#989DA0" stroke="#0957B3" stroke-width="0.5" stroke-miterlimit="10"/>
<path d="M66.07 187.22H53.72C52.5627 187.22 51.4527 187.679 50.6334 188.497C49.8142 189.314 49.3526 190.423 49.35 191.58V201.94C52.3692 204.289 56.0925 205.551 59.9178 205.522C63.743 205.493 67.4467 204.175 70.43 201.78V191.58C70.43 190.424 69.9706 189.315 69.153 188.497C68.3353 187.68 67.2263 187.22 66.07 187.22Z" fill="#127FFF" stroke="#0957B3" stroke-miterlimit="10"/>
<path d="M59.66 185.3C60.9021 185.3 62.1162 184.932 63.149 184.242C64.1817 183.552 64.9866 182.571 65.462 181.423C65.9373 180.276 66.0617 179.013 65.8193 177.795C65.577 176.577 64.9789 175.458 64.1006 174.579C63.2224 173.701 62.1034 173.103 60.8852 172.861C59.667 172.618 58.4043 172.743 57.2568 173.218C56.1092 173.693 55.1284 174.498 54.4384 175.531C53.7483 176.564 53.38 177.778 53.38 179.02C53.38 180.686 54.0416 182.283 55.2194 183.461C56.3971 184.638 57.9944 185.3 59.66 185.3Z" fill="#127FFF" stroke="#0957B3" stroke-miterlimit="10"/>
<path d="M121.43 113.13C121.43 113.07 121.43 113.01 121.43 112.95C121.146 110.355 120.124 107.895 118.485 105.864C116.845 103.833 114.657 102.314 112.18 101.49C109.666 100.637 106.952 100.57 104.4 101.3C104.965 99.3806 105.158 97.3714 104.97 95.3797C104.599 91.397 102.727 87.7044 99.7338 85.0507C96.7408 82.3969 92.8507 80.9805 88.8521 81.0886C84.8536 81.1968 81.0457 82.8213 78.2005 85.6328C75.3553 88.4444 73.6856 92.2327 73.53 96.2297C73.3 96.2297 73.07 96.2297 72.84 96.2297C68.6575 96.2297 64.6464 97.8912 61.6889 100.849C58.7315 103.806 57.07 107.817 57.07 112C57.0661 113.412 57.2545 114.818 57.63 116.18C58.1592 118.008 59.2709 119.614 60.796 120.753C62.3212 121.892 64.1765 122.502 66.08 122.49H112.66C113.864 122.495 115.056 122.253 116.162 121.776C117.268 121.3 118.263 120.601 119.086 119.722C119.91 118.844 120.543 117.805 120.946 116.671C121.349 115.536 121.514 114.331 121.43 113.13Z" stroke="#0957B3" stroke-miterlimit="10"/>
<path d="M360.66 273.2C360.656 273.167 360.656 273.133 360.66 273.1C360.508 271.696 359.956 270.365 359.07 269.266C358.183 268.167 357 267.346 355.66 266.9C354.303 266.437 352.837 266.402 351.46 266.8C351.77 265.763 351.878 264.677 351.78 263.6C351.632 261.407 350.642 259.356 349.016 257.877C347.391 256.398 345.256 255.606 343.059 255.665C340.862 255.725 338.773 256.632 337.23 258.196C335.687 259.761 334.809 261.862 334.78 264.06H334.41C332.152 264.062 329.988 264.961 328.392 266.559C326.796 268.156 325.9 270.322 325.9 272.58C325.902 273.34 326.003 274.096 326.2 274.83C326.483 275.819 327.082 276.688 327.905 277.306C328.729 277.923 329.731 278.255 330.76 278.25H355.9C356.552 278.257 357.198 278.129 357.798 277.874C358.398 277.619 358.939 277.242 359.386 276.768C359.834 276.293 360.178 275.731 360.397 275.117C360.616 274.503 360.706 273.85 360.66 273.2Z" stroke="#0957B3" stroke-miterlimit="10"/>
<path d="M139.56 350.26C139.56 350.26 139.56 350.2 139.56 350.17C139.409 348.765 138.858 347.434 137.971 346.335C137.085 345.236 135.9 344.415 134.56 343.97C133.203 343.507 131.737 343.472 130.36 343.87C130.667 342.833 130.772 341.746 130.67 340.67C130.456 338.602 129.501 336.682 127.98 335.265C126.46 333.847 124.478 333.028 122.4 332.96C120.167 332.906 118.003 333.732 116.375 335.261C114.747 336.79 113.786 338.898 113.7 341.13H113.33C112.211 341.128 111.102 341.348 110.068 341.776C109.034 342.203 108.094 342.831 107.303 343.622C106.511 344.414 105.884 345.353 105.456 346.388C105.028 347.422 104.809 348.53 104.81 349.65C104.811 350.41 104.915 351.167 105.12 351.9C105.401 352.891 105.999 353.762 106.822 354.38C107.646 354.998 108.65 355.328 109.68 355.32H134.81C135.462 355.326 136.108 355.196 136.708 354.94C137.307 354.684 137.847 354.306 138.294 353.83C138.74 353.355 139.083 352.792 139.301 352.178C139.519 351.563 139.607 350.91 139.56 350.26Z" stroke="#0957B3" stroke-miterlimit="10"/>
<path d="M282.66 89.7797C282.665 89.7499 282.665 89.7195 282.66 89.6897C282.512 88.2847 281.961 86.9523 281.074 85.8526C280.187 84.7528 279.002 83.9323 277.66 83.4897C276.304 83.0239 274.838 82.9855 273.46 83.3797C273.771 82.347 273.877 81.2631 273.77 80.1897C273.622 77.997 272.632 75.9464 271.006 74.4674C269.381 72.9884 267.246 72.1956 265.049 72.2551C262.852 72.3145 260.763 73.2216 259.22 74.7863C257.677 76.3511 256.799 78.4522 256.77 80.6497H256.4C255.091 80.6529 253.799 80.9575 252.627 81.54C251.454 82.1224 250.431 82.9671 249.637 84.0085C248.843 85.0499 248.3 86.26 248.049 87.5453C247.798 88.8305 247.846 90.1562 248.19 91.4197C248.473 92.4089 249.072 93.2784 249.895 93.8958C250.719 94.5132 251.721 94.8446 252.75 94.8397H277.89C278.544 94.8499 279.193 94.7236 279.796 94.4691C280.399 94.2145 280.942 93.8372 281.39 93.3611C281.839 92.8851 282.184 92.3208 282.402 91.7041C282.621 91.0875 282.709 90.4321 282.66 89.7797Z" stroke="#0957B3" stroke-miterlimit="10"/>
<path d="M288.554 290.549C330.992 248.11 330.992 179.304 288.554 136.866C246.115 94.4277 177.309 94.4277 134.871 136.866C92.4327 179.304 92.4327 248.11 134.871 290.549C177.309 332.987 246.115 332.987 288.554 290.549Z" fill="white" stroke="#0957B3" stroke-miterlimit="10"/>
<path d="M207.8 163.4L218.12 168.04L220.95 172.68L225.6 174.49L226.11 179.39L224.31 182.22L220.7 183L212.96 179.9V178.9L217.34 177.09L215.8 171.68L208.8 169.1L205.71 164.97L207.8 163.4ZM272.8 282.55L264.55 279.2L254.49 275.59H246.49L239.01 274.04L230.75 275.84L226.11 276.1H223.28L217.86 279.2L212.66 281.26L205.66 276.88L207.46 269.65L203.08 267.85H197.92L197.15 265.53L197.66 260.88L195.86 258.31L192.25 258.82L191.25 261.4L186.87 261.66L183 257.02L181.45 250.83L185.32 243.6L192.8 244.12L194.87 245.93H197.96L201.83 243.6L205.18 244.6L209.82 252.6L211.63 252.34L211.11 246.41L209.66 243.35L210.17 238.45L219.71 234.32L221 224.78L225.13 221.42L228.48 215.49L231.06 214.98L236.99 211.11L237.25 209.05L233.13 209.3L232.35 207.24H229.52L225.13 208.24L227.19 204.89L236.19 202.31L238.25 199.99L241.86 205.66L244.19 207.98L247.8 206.98L246.25 203.63L240.83 199.76L234.64 192.76L228.2 188.37L222.01 187.37L218.91 184.28L214.78 183.28L214.27 184.28L213.75 191.76L214.75 194.33L212.43 202.59L207.29 198.49L208.06 194.88L202.66 192.28L200.32 189.49L201.61 183.05L209.09 177.63L209.61 171.44L206.77 171.7L204.96 169.38L204.19 165.51L202.38 165.25L201.38 169.38L198.55 169.89L197.26 160.89L195.16 159.49L191.55 157.94L187.43 160L192.58 164.9L193.58 169.29L184.29 162.29L177.84 155.29L177.33 148.29L170.66 146.37L165.5 149.73C164.257 150.483 162.975 151.17 161.66 151.79C159.624 152.275 157.555 152.61 155.47 152.79L154.47 157.18L148.54 157.43L149.06 160.27L158.6 161.82L163.5 167.23V176.23L160.66 184.23L161.18 192.74L153.96 205.37L152.41 224.2L154.66 235.09L158.01 243.35L161.88 243.86L160.59 239.74L158.53 236.64L157.24 230.97L159.56 230.45L163.17 239.74L165.75 247.99V254.69L170.65 260.63L179.42 267.07L192.83 270.69L196.96 274.55L200.05 278.68L204.7 281.52L210.37 283.06L216.04 282.81C216.04 282.81 215.79 285.39 215.79 286.68C215.79 287.97 212.18 292.35 212.18 292.35L209.35 297.49L211.41 303.16L217.09 305.48L225.09 313.74L228.7 315.28V319.15L229.15 320.95C249.209 317.709 267.951 308.886 283.23 295.49L283.37 293.62L290.37 280.98L287.02 278.66L272.8 282.55ZM299.66 180.68L296.82 175.77L293.21 170.1L292.21 162.36L296.85 163.14L297.11 160.56L293.75 160.3L296.59 159.01L299.69 157.21V154.63L296.59 150.5L295.93 144.95C280.943 126.608 260.374 113.664 237.354 108.086C214.333 102.508 190.121 104.602 168.4 114.05L174.34 118.26L170.66 122.9L165.76 123.9L165.25 130.9L163.18 131.67L160.6 134.49L160.86 139.13L165.25 139.65L163.44 144.03H167.83L175.3 134.49L176.08 130.36L183.3 129.85L185.1 126.75L192.58 125.98L193.36 121.59L198.77 121.34C198.77 121.34 202.64 119.27 203.42 119.27C204.909 119.594 206.373 120.025 207.8 120.56L211.67 123.66H217.09L221.73 120.82L227.66 121.34C228.514 121.895 229.487 122.238 230.5 122.34C231.79 122.34 235.66 120.53 235.66 120.53L243.13 125.17L246.23 127.5V131.36L250.1 131.88L251.39 129.56L254.74 131.11L254.48 133.17L246.75 135.23L251.13 140.91L260.41 146.07L264.28 151.22L269.96 151.74L271.25 149.16L273.31 148.64L266.6 143.49L262.48 142.97L265.83 141.97L262.74 137.58L267.12 137.33L272.79 140.42L274.08 146.61L276.92 149.96L279.24 157.44L284.92 161.57V170.08L290.85 173.95L290.59 176.79L289.82 180.14L291.36 184.78L291.88 187.1L296.26 187.88L298.33 183.49L299.66 180.68ZM303.01 154.68V156.16L301.66 160.3L302.43 163.91L305.27 164.91V169.81L302.18 168.52L301.42 182.49L298.33 188.16L300.39 195.39L303.74 198.48V212.41L307.1 223.24L310.71 231.49L316.64 233.04L318.7 227.88L319.54 227.22C320.099 222.738 320.379 218.226 320.38 213.71C320.412 192.766 314.364 172.264 302.97 154.69L303.01 154.68ZM243.43 153.07L226.43 145.59L218.95 145.85L217.15 150.75L214.05 147.39L208.38 148.68L207.86 157.2L212.5 160.55L215.86 155.65L219.66 159.49L227.66 166.49L229.21 173.97L235.91 182.48L246.75 180.68L246.49 176.81L244.17 172.42L243.66 162.11L246.24 157.72L243.43 153.07ZM257.36 158.74L253.49 157.74L250.14 160.58L251.94 168.06H255.3L257.36 158.74ZM281.36 163.64L272.59 159L270.78 155.91L268.72 156.68L270.52 161.84L272.07 168.54L275.94 170.09L276.71 169.09L274.39 165.22L281.1 167.8L281.36 163.64ZM206.05 256.75L205.05 257.75L212.79 260.07L215.89 263.68L220.79 264.2L222.59 261.36L216.66 260.36L206.05 256.75ZM229.05 261.65L223.63 263.2L224.41 265.26H231.11L232.4 263.2L230.08 263.45L229.05 261.65Z" fill="#127FFF" stroke="#0957B3" stroke-miterlimit="10"/>
<defs>
<linearGradient id="paint0_linear_267_3453" x1="211" y1="1" x2="211" y2="422" gradientUnits="userSpaceOnUse">
<stop stop-color="white" stop-opacity="0.19"/>
<stop offset="1" stop-color="white" stop-opacity="0.04"/>
</linearGradient>
</defs>
</svg>
