<svg width="457" height="422" viewBox="0 0 457 422" fill="none" xmlns="http://www.w3.org/2000/svg">
<path d="M35 1L457 1M37 61H457M37 121H457M37 181H457M37 241H457M37 301H457M37 361H457M37 421H457M36 422V2M96 422V2M156 422V2M216 422V2M276 422V2M336 422V2M396 422V2M456 422V2" stroke="url(#paint0_linear_267_3380)" stroke-width="2"/>
<path d="M275.844 191.537C276.065 190.843 275.562 189.495 275.379 189.091C274.434 186.988 272.103 186.043 269.893 186.218C269.1 186.37 268.285 186.37 267.492 186.218C266.555 185.822 265.808 185.076 265.412 184.138C264.543 182.468 263.443 180.928 262.143 179.566C260.154 177.493 257.465 175.969 254.523 176.068C246.576 176.343 247.391 182.926 245.196 184.847C243.977 185.913 243.101 184.389 242.065 183.871C241.418 183.52 240.679 183.373 239.947 183.451C239.215 183.528 238.524 183.826 237.965 184.306C236.83 185.258 236.159 186.645 235.267 187.834C234.376 189.022 233.035 190.12 231.557 189.929C230.322 189.8 229.339 188.839 228.158 188.443C227.465 188.249 226.738 188.205 226.026 188.312C225.314 188.42 224.633 188.678 224.028 189.068C222.972 189.734 222.039 190.577 221.27 191.56L275.844 191.537Z" fill="white" stroke="#263238" stroke-miterlimit="10"/>
<path d="M353.4 106.863C353.743 105.804 352.974 103.739 352.692 103.114C351.244 99.8911 347.662 98.4281 344.272 98.71C343.037 98.8091 341.772 99.0987 340.591 98.71C339.113 98.2528 338.115 96.8889 337.391 95.5173C336.06 92.948 334.372 90.58 332.377 88.484C329.329 85.2989 325.199 82.9595 320.657 83.15C308.465 83.5767 309.715 93.6732 306.347 96.6222C304.472 98.2681 303.124 95.9288 301.531 95.0982C300.54 94.5576 299.407 94.3315 298.284 94.4499C297.162 94.5683 296.101 95.0256 295.245 95.7611C293.5 97.2318 292.471 99.3578 291.099 101.179C289.728 103 287.678 104.646 285.407 104.395C283.51 104.189 282.001 102.726 280.187 102.109C279.131 101.812 278.024 101.741 276.938 101.9C275.853 102.058 274.813 102.444 273.886 103.031C272.269 104.053 270.836 105.341 269.649 106.841L353.4 106.863Z" fill="white" stroke="#263238" stroke-miterlimit="10"/>
<path d="M97.7036 71.1333C97.9246 70.4322 97.4217 69.0911 97.2388 68.6872C96.2939 66.5841 93.9622 65.6392 91.7524 65.8145C90.9596 65.9668 90.145 65.9668 89.3521 65.8145C88.4143 65.4184 87.6679 64.6721 87.2719 63.7342C86.4027 62.064 85.3022 60.5249 84.0029 59.1622C82.0141 57.0896 79.3242 55.5656 76.3829 55.6647C68.4352 55.939 69.2506 62.5227 67.056 64.4429C65.8368 65.5097 64.9605 63.9857 63.9242 63.4675C63.2773 63.1163 62.5389 62.9697 61.8069 63.0473C61.0748 63.1249 60.3836 63.4229 59.8246 63.9019C58.674 64.862 58.0034 66.2412 57.15 67.4299C56.2966 68.6187 54.9173 69.7159 53.4391 69.5254C52.2046 69.3883 51.2216 68.4358 50.0405 68.0395C49.3522 67.8442 48.6304 67.7969 47.9225 67.9007C47.2146 68.0044 46.5367 68.2569 45.9334 68.6415C44.8776 69.3075 43.9445 70.1504 43.1749 71.1333H97.7036Z" fill="white" stroke="#263238" stroke-miterlimit="10"/>
<path d="M339.204 354.696C339.761 353.552 340.051 352.296 340.05 351.023C340.097 348.881 339.292 346.807 337.812 345.257C336.332 343.707 334.298 342.808 332.156 342.756C330.722 342.758 329.319 343.168 328.11 343.937C328.176 343.547 328.212 343.152 328.216 342.756C328.276 341.875 328.158 340.991 327.869 340.157C327.58 339.322 327.126 338.555 326.534 337.899C325.942 337.244 325.225 336.715 324.424 336.344C323.623 335.972 322.755 335.765 321.873 335.736C320.99 335.707 320.111 335.856 319.287 336.174C318.464 336.492 317.712 336.972 317.078 337.587C316.444 338.201 315.941 338.937 315.597 339.751C315.254 340.564 315.078 341.438 315.079 342.321H314.622C311.898 342.325 309.228 343.085 306.911 344.516C304.866 341.081 301.601 338.545 297.767 337.414C298.902 336.791 299.847 335.871 300.502 334.754C301.157 333.636 301.497 332.362 301.485 331.067C301.516 330.155 301.363 329.247 301.035 328.397C300.707 327.546 300.212 326.769 299.578 326.114C298.944 325.459 298.185 324.937 297.346 324.581C296.506 324.226 295.604 324.042 294.692 324.042C293.78 324.042 292.878 324.226 292.038 324.581C291.199 324.937 290.44 325.459 289.806 326.114C289.172 326.769 288.677 327.546 288.349 328.397C288.021 329.247 287.868 330.155 287.899 331.067C287.889 332.243 288.168 333.403 288.712 334.446C289.255 335.489 290.046 336.382 291.015 337.048C289.366 337.331 287.775 337.884 286.306 338.687C285.513 336.173 283.947 333.972 281.833 332.398C279.718 330.824 277.162 329.955 274.526 329.916C271.498 329.923 268.583 331.065 266.357 333.116C265.29 323.378 257.396 315.804 247.81 315.804C245.167 315.814 242.558 316.399 240.164 317.517C237.769 318.636 235.646 320.261 233.942 322.281C230.772 313.076 222.367 306.492 212.491 306.492C208.121 306.488 203.85 307.788 200.223 310.226C198.236 309.421 196.087 309.1 193.951 309.288C191.816 309.476 189.755 310.168 187.94 311.308C186.124 310.168 184.064 309.476 181.928 309.288C179.793 309.1 177.643 309.421 175.656 310.226C172.036 307.785 167.77 306.48 163.403 306.477C153.497 306.477 145.115 313.061 141.953 322.266C140.246 320.247 138.121 318.623 135.726 317.505C133.33 316.387 130.721 315.801 128.077 315.789C118.491 315.789 110.597 323.363 109.537 333.101C107.31 331.051 104.396 329.909 101.369 329.901C98.7326 329.939 96.1754 330.807 94.0606 332.382C91.9458 333.956 90.3809 336.157 89.5883 338.671C88.1187 337.872 86.5279 337.318 84.8792 337.033C85.8485 336.367 86.6395 335.474 87.1829 334.431C87.7263 333.388 88.0054 332.227 87.9958 331.051C88.0263 330.14 87.8732 329.232 87.5455 328.381C87.2178 327.53 86.7224 326.754 86.0885 326.099C85.4547 325.443 84.6955 324.922 83.8561 324.566C83.0167 324.21 82.1143 324.027 81.2025 324.027C80.2908 324.027 79.3883 324.21 78.5489 324.566C77.7095 324.922 76.9503 325.443 76.3165 326.099C75.6827 326.754 75.1872 327.53 74.8595 328.381C74.5319 329.232 74.3788 330.14 74.4093 331.051C74.3964 332.347 74.7354 333.622 75.3904 334.74C76.0453 335.858 76.9914 336.777 78.1278 337.399C74.294 338.53 71.0284 341.066 68.9839 344.501C66.6656 343.071 63.9963 342.311 61.2724 342.306C61.1124 342.306 60.9676 342.306 60.8076 342.306C60.7397 341.42 60.4928 340.557 60.0818 339.77C59.6708 338.982 59.1042 338.286 58.4164 337.723C57.7285 337.161 56.9337 336.744 56.08 336.497C55.2263 336.251 54.3315 336.18 53.4497 336.289C52.5679 336.399 51.7175 336.686 50.9499 337.133C50.1823 337.581 49.5135 338.18 48.9839 338.893C48.4544 339.607 48.0751 340.42 47.869 341.284C47.6629 342.149 47.6343 343.046 47.785 343.922C46.573 343.152 45.1671 342.742 43.7312 342.741C42.6668 342.762 41.6171 342.994 40.6425 343.423C39.6679 343.851 38.7876 344.468 38.0519 345.237C37.3163 346.007 36.7399 346.914 36.3559 347.907C35.9718 348.9 35.7877 349.959 35.814 351.023C35.8135 352.296 36.1027 353.552 36.6598 354.696H339.204Z" fill="white" stroke="#263238" stroke-miterlimit="10"/>
<path d="M261.008 86.8457H245.776V353.591H261.008V86.8457Z" stroke="#263238" stroke-miterlimit="10"/>
<path d="M245.768 166.277H234.064" stroke="#263238" stroke-miterlimit="10"/>
<path d="M245.768 237.028H230.558" stroke="#263238" stroke-miterlimit="10"/>
<path d="M261.008 86.8457L246.339 105.469H260.84L245.776 86.8457" stroke="#263238" stroke-miterlimit="10"/>
<path d="M261.008 105.934L246.339 124.549H260.84L245.776 105.934" stroke="#263238" stroke-miterlimit="10"/>
<path d="M261.008 125.014L246.339 143.638H260.84L245.776 125.014" stroke="#263238" stroke-miterlimit="10"/>
<path d="M261.008 144.102L246.339 162.718H260.84L245.776 144.102" stroke="#263238" stroke-miterlimit="10"/>
<path d="M261.008 163.183L246.339 181.799H260.84L245.776 163.183H234.094" stroke="#263238" stroke-miterlimit="10"/>
<path d="M261.008 182.263L246.339 200.879H260.84L245.776 182.263" stroke="#263238" stroke-miterlimit="10"/>
<path d="M261.008 201.351L246.339 219.967H260.84L245.776 201.351" stroke="#263238" stroke-miterlimit="10"/>
<path d="M261.008 220.432L246.339 239.048H260.84L245.776 220.432" stroke="#263238" stroke-miterlimit="10"/>
<path d="M261.008 239.512L246.339 258.136H260.84L245.776 239.512H230.581" stroke="#263238" stroke-miterlimit="10"/>
<path d="M261.008 258.6L246.339 277.216H260.84L245.776 258.6" stroke="#263238" stroke-miterlimit="10"/>
<path d="M261.008 277.681L246.339 296.297H260.84L245.776 277.681" stroke="#263238" stroke-miterlimit="10"/>
<path d="M261.008 296.761L246.339 315.385H260.84L245.776 296.761" stroke="#263238" stroke-miterlimit="10"/>
<path d="M261.008 315.85L246.339 334.465H260.84L245.776 315.85" stroke="#263238" stroke-miterlimit="10"/>
<path d="M261.008 334.93L246.339 353.546H260.84L245.776 334.93" stroke="#263238" stroke-miterlimit="10"/>
<path d="M260.703 354.087H114.574L135.453 331.516H239.824L260.703 354.087Z" fill="white" stroke="#263238" stroke-miterlimit="10"/>
<path d="M142.822 349.035C145.995 349.035 148.567 346.462 148.567 343.289C148.567 340.116 145.995 337.544 142.822 337.544C139.649 337.544 137.076 340.116 137.076 343.289C137.076 346.462 139.649 349.035 142.822 349.035Z" fill="#263238" stroke="#263238" stroke-linecap="round" stroke-linejoin="round"/>
<path d="M165.796 349.035C168.969 349.035 171.541 346.462 171.541 343.289C171.541 340.116 168.969 337.544 165.796 337.544C162.623 337.544 160.051 340.116 160.051 343.289C160.051 346.462 162.623 349.035 165.796 349.035Z" fill="#263238" stroke="#263238" stroke-linecap="round" stroke-linejoin="round"/>
<path d="M188.77 349.035C191.943 349.035 194.516 346.462 194.516 343.289C194.516 340.116 191.943 337.544 188.77 337.544C185.597 337.544 183.025 340.116 183.025 343.289C183.025 346.462 185.597 349.035 188.77 349.035Z" fill="#263238" stroke="#263238" stroke-linecap="round" stroke-linejoin="round"/>
<path d="M211.745 349.035C214.918 349.035 217.49 346.462 217.49 343.289C217.49 340.116 214.918 337.544 211.745 337.544C208.571 337.544 205.999 340.116 205.999 343.289C205.999 346.462 208.571 349.035 211.745 349.035Z" fill="#263238" stroke="#263238" stroke-linecap="round" stroke-linejoin="round"/>
<path d="M234.719 349.035C237.892 349.035 240.464 346.462 240.464 343.289C240.464 340.116 237.892 337.544 234.719 337.544C231.546 337.544 228.973 340.116 228.973 343.289C228.973 346.462 231.546 349.035 234.719 349.035Z" fill="#263238" stroke="#263238" stroke-linecap="round" stroke-linejoin="round"/>
<path d="M356.273 353.614H18.9967V363.452H356.273V353.614Z" fill="#263238" stroke="#263238" stroke-linecap="round" stroke-linejoin="round"/>
<path d="M234.361 153.673L226.741 320.734H148.46L140.84 153.673C140.84 130.889 150.373 110.049 160.729 93.8333C170.185 79.0276 180.327 68.0777 184.534 62.9875C184.869 62.5871 185.288 62.2652 185.761 62.0443C186.235 61.8233 186.751 61.7089 187.273 61.7089C187.795 61.7089 188.311 61.8233 188.784 62.0443C189.258 62.2652 189.677 62.5871 190.012 62.9875C194.31 68.0472 204.605 79.0124 214.191 93.818C224.699 110.049 234.361 130.882 234.361 153.673Z" fill="white" stroke="#263238" stroke-miterlimit="10"/>
<path d="M228.669 170.871L222.313 314.691" stroke="#263238" stroke-miterlimit="10"/>
<path d="M214.549 104.798C222.306 118.514 228.768 135.103 229.316 153.01L214.549 104.798Z" fill="white"/>
<path d="M214.549 104.798C222.306 118.514 228.768 135.103 229.316 153.01" stroke="#263238" stroke-miterlimit="10"/>
<path d="M214.191 93.818H160.729C170.185 79.0123 180.327 68.0624 184.534 62.9722C184.869 62.5719 185.288 62.2499 185.761 62.029C186.235 61.8081 186.751 61.6936 187.273 61.6936C187.795 61.6936 188.311 61.8081 188.784 62.029C189.258 62.2499 189.677 62.5719 190.012 62.9722C194.31 68.0472 204.605 79.0123 214.191 93.818Z" fill="#127FFF" stroke="#263238" stroke-linecap="round" stroke-linejoin="round"/>
<path d="M144.536 235.634C144.536 235.634 124.678 242.492 117.211 261.138C111.359 275.776 109.812 303.924 109.416 315.354C109.393 316.005 109.502 316.653 109.735 317.26C109.969 317.868 110.322 318.422 110.774 318.89C111.227 319.358 111.769 319.73 112.368 319.984C112.967 320.238 113.611 320.369 114.262 320.368C115.135 320.37 115.992 320.134 116.742 319.688C117.492 319.241 118.107 318.599 118.522 317.831C122.408 310.622 134.524 290.49 147.157 293.553L144.536 235.634Z" fill="#127FFF" stroke="#263238" stroke-linecap="round" stroke-linejoin="round"/>
<path d="M230.688 235.466C230.688 235.466 250.607 242.477 258.067 261.138C263.926 275.776 265.473 303.924 265.862 315.354C265.884 316.005 265.776 316.653 265.542 317.26C265.309 317.868 264.955 318.422 264.503 318.89C264.051 319.358 263.509 319.73 262.91 319.984C262.31 320.238 261.666 320.369 261.015 320.368C260.15 320.364 259.302 320.128 258.56 319.684C257.817 319.241 257.207 318.606 256.794 317.846C252.908 310.637 240.647 290.62 228.006 293.683L230.688 235.466Z" fill="#127FFF" stroke="#263238" stroke-linecap="round" stroke-linejoin="round"/>
<path d="M236.22 238.042C234.429 237.059 232.573 236.198 230.665 235.466L227.945 293.668C229.251 293.354 230.604 293.276 231.938 293.439L236.22 238.042Z" fill="#263238" stroke="#263238" stroke-linecap="round" stroke-linejoin="round"/>
<path d="M220.325 320.612H155.837V332.05H220.325V320.612Z" fill="#263238" stroke="#263238" stroke-linecap="round" stroke-linejoin="round"/>
<path d="M191 293.017C200.333 290.77 206.076 281.382 203.829 272.05C201.581 262.717 192.194 256.973 182.861 259.221C173.529 261.468 167.785 270.856 170.032 280.188C172.28 289.521 181.667 295.264 191 293.017Z" fill="white" stroke="#263238" stroke-miterlimit="10"/>
<path d="M190.066 289.426C197.425 287.702 201.994 280.34 200.271 272.98C198.547 265.621 191.184 261.052 183.825 262.776C176.466 264.499 171.897 271.862 173.621 279.221C175.344 286.58 182.707 291.149 190.066 289.426Z" fill="#127FFF" stroke="#263238" stroke-miterlimit="10"/>
<path d="M189.515 287.043C195.563 285.625 199.316 279.573 197.897 273.525C196.479 267.478 190.426 263.725 184.379 265.144C178.331 266.562 174.579 272.614 175.997 278.662C177.416 284.709 183.468 288.462 189.515 287.043Z" fill="white" stroke="#263238" stroke-miterlimit="10"/>
<path d="M188.814 284.076C193.219 283.041 195.95 278.632 194.916 274.228C193.881 269.824 189.472 267.092 185.068 268.127C180.664 269.162 177.932 273.571 178.967 277.975C180.001 282.379 184.41 285.11 188.814 284.076Z" fill="#127FFF" stroke="#263238" stroke-miterlimit="10"/>
<path d="M186.942 281.278C189.799 281.278 192.116 278.961 192.116 276.104C192.116 273.246 189.799 270.93 186.942 270.93C184.084 270.93 181.768 273.246 181.768 276.104C181.768 278.961 184.084 281.278 186.942 281.278Z" fill="white" stroke="#263238" stroke-miterlimit="10"/>
<path d="M189.334 276.104C189.336 275.628 189.196 275.163 188.933 274.767C188.67 274.371 188.295 274.062 187.856 273.88C187.417 273.697 186.934 273.649 186.467 273.741C186.001 273.834 185.573 274.063 185.237 274.399C184.9 274.735 184.672 275.163 184.579 275.63C184.487 276.096 184.535 276.579 184.718 277.018C184.9 277.457 185.209 277.832 185.605 278.095C186.001 278.358 186.466 278.498 186.941 278.496C187.576 278.496 188.185 278.244 188.633 277.795C189.082 277.347 189.334 276.738 189.334 276.104Z" fill="#127FFF" stroke="#263238" stroke-miterlimit="10"/>
<path d="M187.925 272.347L186.942 276.104L190.485 276.881L187.925 272.347Z" fill="white" stroke="#263238" stroke-miterlimit="10"/>
<path d="M189.441 274.442L205.009 265.961" stroke="#263238" stroke-miterlimit="10"/>
<path d="M200.01 268.75L200.246 264.681L207.561 260.498V265.146L200.01 268.75Z" fill="white" stroke="#263238" stroke-miterlimit="10"/>
<path d="M210.701 267.356L207.493 264.986L199.979 268.941L203.599 271.036L210.701 267.356Z" fill="white" stroke="#263238" stroke-miterlimit="10"/>
<path d="M186.942 243.086C196.541 243.086 204.323 235.304 204.323 225.705C204.323 216.106 196.541 208.324 186.942 208.324C177.342 208.324 169.56 216.106 169.56 225.705C169.56 235.304 177.342 243.086 186.942 243.086Z" stroke="#263238" stroke-miterlimit="10"/>
<path d="M181.767 223.267H176.54V233.835H181.767V223.267Z" fill="#127FFF" stroke="#263238" stroke-miterlimit="10"/>
<path d="M189.601 219.906H184.374V233.835H189.601V219.906Z" fill="#127FFF" stroke="#263238" stroke-miterlimit="10"/>
<path d="M197.434 216.782H192.207V233.835H197.434V216.782Z" fill="#127FFF" stroke="#263238" stroke-miterlimit="10"/>
<path d="M186.942 193.93C196.541 193.93 204.323 186.148 204.323 176.548C204.323 166.949 196.541 159.167 186.942 159.167C177.342 159.167 169.56 166.949 169.56 176.548C169.56 186.148 177.342 193.93 186.942 193.93Z" stroke="#263238" stroke-miterlimit="10"/>
<path d="M199.537 178.911V174.399H196.543C196.311 173.365 195.91 172.376 195.354 171.473L197.518 169.302L194.31 166.117L192.154 168.273C191.266 167.719 190.293 167.314 189.273 167.077V163.922H184.77V167.054C183.773 167.286 182.82 167.68 181.95 168.22L179.664 165.934L176.479 169.126L178.765 171.412C178.234 172.269 177.838 173.202 177.592 174.179H174.33V178.69H177.546C177.768 179.672 178.144 180.613 178.659 181.478L176.373 183.764L179.558 186.95L181.798 184.717C182.66 185.27 183.604 185.684 184.595 185.944V189.129H189.098V186.081C190.12 185.861 191.101 185.478 192.001 184.946L194.196 187.133L197.381 183.947L195.255 181.814C195.828 180.924 196.25 179.945 196.505 178.918L199.537 178.911ZM187.048 181.684C186.03 181.686 185.035 181.385 184.188 180.821C183.341 180.256 182.68 179.453 182.29 178.513C181.9 177.572 181.797 176.538 181.996 175.539C182.194 174.541 182.684 173.624 183.404 172.904C184.123 172.184 185.041 171.694 186.039 171.496C187.037 171.297 188.072 171.4 189.012 171.79C189.953 172.18 190.756 172.841 191.32 173.688C191.885 174.535 192.186 175.53 192.184 176.548C192.182 177.91 191.64 179.215 190.678 180.178C189.715 181.14 188.41 181.682 187.048 181.684Z" fill="#127FFF" stroke="#263238" stroke-miterlimit="10"/>
<path d="M186.942 144.773C196.541 144.773 204.323 136.991 204.323 127.392C204.323 117.792 196.541 110.01 186.942 110.01C177.342 110.01 169.56 117.792 169.56 127.392C169.56 136.991 177.342 144.773 186.942 144.773Z" stroke="#263238" stroke-miterlimit="10"/>
<path d="M195.926 123.429C195.819 121.113 194.836 118.924 193.176 117.306C191.517 115.687 189.304 114.759 186.986 114.709C184.668 114.66 182.418 115.493 180.691 117.04C178.964 118.586 177.889 120.731 177.683 123.041C177.586 125.19 178.259 127.303 179.581 129C181.019 130.786 181.823 133 181.867 135.294V135.781H191.773V135.294C191.788 133.028 192.57 130.834 193.99 129.068C195.254 127.462 195.937 125.474 195.926 123.429Z" fill="#127FFF" stroke="#263238" stroke-miterlimit="10"/>
<path d="M188.831 137.382H184.861C184.062 137.382 183.413 138.03 183.413 138.829V140.765C183.413 141.564 184.062 142.213 184.861 142.213H188.831C189.631 142.213 190.279 141.564 190.279 140.765V138.829C190.279 138.03 189.631 137.382 188.831 137.382Z" fill="white" stroke="#263238" stroke-linecap="round" stroke-linejoin="round"/>
<path d="M191.818 135.781H181.851V138.045H191.818V135.781Z" fill="white" stroke="#263238" stroke-linecap="round" stroke-linejoin="round"/>
<path d="M190.812 140.49H182.842L181.851 138.22H191.811L190.812 140.49Z" fill="white" stroke="#263238" stroke-linecap="round" stroke-linejoin="round"/>
<defs>
<linearGradient id="paint0_linear_267_3380" x1="246" y1="1" x2="246" y2="422" gradientUnits="userSpaceOnUse">
<stop stop-color="white" stop-opacity="0.19"/>
<stop offset="1" stop-color="white" stop-opacity="0.04"/>
</linearGradient>
</defs>
</svg>
