<svg width="32" height="32" viewBox="0 0 32 32" fill="none" xmlns="http://www.w3.org/2000/svg">
<g id="arrow_link_right">
<path id="Rectangle 34624767" d="M29.2919 16.7071C29.6824 16.3166 29.6824 15.6834 29.2919 15.2929L20.3824 6.38335C20.2262 6.22714 19.9729 6.22714 19.8167 6.38335L18.4025 7.79756C18.2463 7.95377 18.2463 8.20704 18.4025 8.36325L28.0191 17.9799L29.2919 16.7071Z" fill="white"/>
<path id="Rectangle 34624769" d="M2 17.0004C2 17.2213 2.17909 17.4004 2.4 17.4004H26.8061C27.027 17.4004 27.2061 17.2213 27.2061 17.0004V15.0004C27.2061 14.7795 27.027 14.6004 26.8061 14.6004L2.4 14.6004C2.17909 14.6004 2 14.7795 2 15.0004L2 17.0004Z" fill="white"/>
<path id="Rectangle 34624768" d="M28.0205 14.0205L18.4039 23.6372C18.2476 23.7934 18.2476 24.0466 18.4039 24.2028L19.8181 25.6171C19.9743 25.7733 20.2275 25.7733 20.3838 25.6171L29.2933 16.7075C29.6838 16.317 29.6838 15.6838 29.2933 15.2933L28.0205 14.0205Z" fill="white"/>
</g>
</svg>
