<svg width="49" height="48" viewBox="0 0 49 48" fill="none" xmlns="http://www.w3.org/2000/svg">
<path d="M23.1611 7.72687C21.9368 5.86125 20.1368 4.875 17.958 4.875C15.7793 4.875 13.9793 5.86125 12.7549 7.72687C11.7574 9.24562 11.208 11.2969 11.208 13.5C11.208 15.7031 11.7574 17.7544 12.7549 19.2731C13.9793 21.1387 15.7793 22.125 17.958 22.125C20.1368 22.125 21.9368 21.1387 23.1611 19.2731C24.1586 17.7544 24.708 15.7106 24.708 13.5C24.708 11.2894 24.1586 9.24562 23.1611 7.72687ZM17.958 19.875C14.3955 19.875 13.458 15.8681 13.458 13.5C13.458 11.1319 14.3955 7.125 17.958 7.125C21.5205 7.125 22.458 11.1319 22.458 13.5C22.458 15.8681 21.5205 19.875 17.958 19.875ZM36.6611 28.7269C35.4368 26.8612 33.6368 25.875 31.458 25.875C29.2793 25.875 27.4793 26.8612 26.2549 28.7269C25.2574 30.2456 24.708 32.2894 24.708 34.5C24.708 36.7106 25.2574 38.7544 26.2549 40.2731C27.4793 42.1481 29.2793 43.125 31.458 43.125C33.6368 43.125 35.4368 42.1387 36.6611 40.2731C37.6586 38.7544 38.208 36.7106 38.208 34.5C38.208 32.2894 37.6586 30.2456 36.6611 28.7269ZM31.458 40.875C27.9049 40.875 26.958 36.8681 26.958 34.5C26.958 32.1319 27.9049 28.125 31.458 28.125C35.0111 28.125 35.958 32.1319 35.958 34.5C35.958 36.8681 35.0205 40.875 31.458 40.875ZM27.8486 9.04687C27.7769 8.91762 27.7314 8.7755 27.7146 8.62863C27.6979 8.48177 27.7102 8.33304 27.7509 8.19095C27.7917 8.04886 27.86 7.91619 27.9521 7.80053C28.0441 7.68487 28.1581 7.58848 28.2874 7.51687L32.7874 5.01562C32.9587 4.92062 33.1518 4.87199 33.3477 4.87455C33.5436 4.8771 33.7354 4.93075 33.9041 5.03019C34.0729 5.12963 34.2128 5.27142 34.3099 5.44151C34.4071 5.6116 34.4581 5.80412 34.458 6V21C34.458 21.2984 34.3395 21.5845 34.1285 21.7955C33.9175 22.0065 33.6314 22.125 33.333 22.125C33.0346 22.125 32.7485 22.0065 32.5375 21.7955C32.3265 21.5845 32.208 21.2984 32.208 21V7.9125L29.3786 9.48375C29.2495 9.55554 29.1075 9.60119 28.9607 9.61808C28.8139 9.63498 28.6652 9.6228 28.5231 9.58223C28.3811 9.54166 28.2484 9.4735 28.1326 9.38164C28.0169 9.28979 27.9204 9.17603 27.8486 9.04687ZM19.458 27V42C19.458 42.2984 19.3395 42.5845 19.1285 42.7955C18.9175 43.0065 18.6314 43.125 18.333 43.125C18.0346 43.125 17.7485 43.0065 17.5375 42.7955C17.3265 42.5845 17.208 42.2984 17.208 42V28.9125L14.3786 30.4837C14.2492 30.5598 14.1059 30.6091 13.9572 30.6289C13.8084 30.6487 13.6572 30.6386 13.5124 30.599C13.3677 30.5595 13.2323 30.4914 13.1142 30.3988C12.9962 30.3061 12.8978 30.1908 12.825 30.0596C12.7522 29.9283 12.7064 29.7839 12.6903 29.6347C12.6741 29.4855 12.688 29.3345 12.7311 29.1908C12.7742 29.047 12.8456 28.9133 12.9411 28.7976C13.0367 28.6819 13.1544 28.5864 13.2874 28.5169L17.7874 26.0156C17.9587 25.9206 18.1518 25.872 18.3477 25.8745C18.5436 25.8771 18.7354 25.9308 18.9041 26.0302C19.0729 26.1296 19.2128 26.2714 19.3099 26.4415C19.4071 26.6116 19.4581 26.8041 19.458 27Z" fill="#127FFF"/>
</svg>
