<svg width="49" height="48" viewBox="0 0 49 48" fill="none" xmlns="http://www.w3.org/2000/svg">
<g clip-path="url(#clip0_471_3891)">
<path d="M47.6283 24.795L43.1283 29.295C42.9173 29.5057 42.6314 29.624 42.3333 29.624C42.0351 29.624 41.7492 29.5057 41.5383 29.295L37.0383 24.795C36.9277 24.692 36.8391 24.5678 36.7776 24.4298C36.7161 24.2918 36.683 24.1429 36.6804 23.9918C36.6777 23.8407 36.7055 23.6907 36.7621 23.5506C36.8187 23.4105 36.9029 23.2833 37.0097 23.1765C37.1165 23.0696 37.2438 22.9854 37.3839 22.9288C37.524 22.8722 37.674 22.8445 37.8251 22.8471C37.9761 22.8498 38.1251 22.8829 38.2631 22.9443C38.4011 23.0058 38.5253 23.0945 38.6283 23.205L41.2083 25.7831V24C41.2099 20.427 40.0773 16.9457 37.9738 14.0575C35.8702 11.1694 32.9042 9.02343 29.503 7.92882C26.1018 6.83421 22.4409 6.84742 19.0477 7.96656C15.6545 9.0857 12.704 11.253 10.6214 14.1563C10.5372 14.2812 10.4289 14.3879 10.3027 14.4702C10.1765 14.5524 10.0351 14.6085 9.88689 14.6351C9.73865 14.6616 9.58658 14.6582 9.43969 14.6249C9.29281 14.5916 9.15411 14.5292 9.03181 14.4413C8.90951 14.3534 8.8061 14.2418 8.72772 14.1132C8.64934 13.9846 8.59758 13.8416 8.5755 13.6926C8.55343 13.5436 8.5615 13.3917 8.59923 13.2459C8.63696 13.1001 8.70358 12.9633 8.79514 12.8438C11.1558 9.55424 14.4995 7.09878 18.3447 5.83097C22.19 4.56316 26.3384 4.54842 30.1926 5.78888C34.0468 7.02934 37.4079 9.46099 39.7918 12.7337C42.1757 16.0063 43.4595 19.9511 43.4583 24V25.7831L46.0383 23.205C46.1413 23.0945 46.2655 23.0058 46.4035 22.9443C46.5415 22.8829 46.6904 22.8498 46.8415 22.8471C46.9925 22.8445 47.1426 22.8722 47.2827 22.9288C47.4227 22.9854 47.55 23.0696 47.6568 23.1765C47.7637 23.2833 47.8479 23.4105 47.9044 23.5506C47.961 23.6907 47.9888 23.8407 47.9862 23.9918C47.9835 24.1429 47.9504 24.2918 47.8889 24.4298C47.8274 24.5678 47.7388 24.692 47.6283 24.795ZM39.8676 35.1563C37.5065 38.4442 34.163 40.8981 30.3185 42.1649C26.4739 43.4317 22.3265 43.446 18.4733 42.2057C14.6202 40.9655 11.2598 38.5346 8.87611 35.263C6.49237 31.9914 5.20814 28.0479 5.20827 24V22.2169L2.62827 24.795C2.415 24.9937 2.13293 25.1019 1.84148 25.0968C1.55003 25.0916 1.27195 24.9736 1.06583 24.7674C0.859714 24.5613 0.741646 24.2832 0.736503 23.9918C0.731361 23.7003 0.839546 23.4183 1.03827 23.205L5.53827 18.705C5.7492 18.4943 6.03514 18.376 6.33327 18.376C6.63139 18.376 6.91733 18.4943 7.12827 18.705L11.6283 23.205C11.7388 23.308 11.8274 23.4322 11.8889 23.5702C11.9504 23.7082 11.9835 23.8572 11.9862 24.0082C11.9888 24.1593 11.961 24.3093 11.9044 24.4494C11.8479 24.5895 11.7637 24.7167 11.6568 24.8236C11.55 24.9304 11.4227 25.0146 11.2827 25.0712C11.1426 25.1278 10.9925 25.1556 10.8415 25.1529C10.6904 25.1502 10.5415 25.1172 10.4035 25.0557C10.2655 24.9942 10.1413 24.9055 10.0383 24.795L7.45827 22.2169V24C7.45508 28.2979 9.09828 32.4337 12.0501 35.5575C13.8178 32.809 16.4599 30.7363 19.5501 29.6738C18.0092 28.6474 16.8394 27.1525 16.2138 25.4099C15.5881 23.6674 15.5398 21.7698 16.0759 19.9977C16.6121 18.2255 17.7042 16.673 19.1909 15.5695C20.6776 14.4661 22.4799 13.8703 24.3314 13.8703C26.1828 13.8703 27.9852 14.4661 29.4718 15.5695C30.9585 16.673 32.0507 18.2255 32.5868 19.9977C33.123 21.7698 33.0747 23.6674 32.449 25.4099C31.8233 27.1525 30.6536 28.6474 29.1126 29.6738C32.204 30.7372 34.8464 32.8121 36.6126 35.5631C37.1241 35.0222 37.5989 34.4478 38.0339 33.8438C38.118 33.7189 38.2264 33.6121 38.3526 33.5299C38.4787 33.4476 38.6201 33.3915 38.7684 33.365C38.9166 33.3384 39.0687 33.3418 39.2156 33.3751C39.3625 33.4084 39.5012 33.4709 39.6235 33.5588C39.7458 33.6467 39.8492 33.7582 39.9276 33.8868C40.0059 34.0154 40.0577 34.1585 40.0798 34.3074C40.1019 34.4564 40.0938 34.6083 40.0561 34.7541C40.0183 34.8999 39.9517 35.0367 39.8601 35.1563H39.8676ZM24.3333 28.875C25.5941 28.875 26.8267 28.5011 27.875 27.8006C28.9234 27.1001 29.7405 26.1045 30.223 24.9396C30.7055 23.7747 30.8318 22.4929 30.5858 21.2563C30.3398 20.0197 29.7326 18.8838 28.8411 17.9922C27.9495 17.1006 26.8136 16.4935 25.577 16.2475C24.3403 16.0015 23.0585 16.1278 21.8937 16.6103C20.7288 17.0928 19.7331 17.9099 19.0326 18.9583C18.3322 20.0066 17.9583 21.2392 17.9583 22.5C17.9583 24.1908 18.6299 25.8123 19.8255 27.0078C21.021 28.2034 22.6425 28.875 24.3333 28.875ZM24.3333 40.875C28.1931 40.8714 31.9357 39.5483 34.9401 37.125C33.84 35.2951 32.2851 33.7809 30.4267 32.7297C28.5682 31.6786 26.4694 31.1261 24.3342 31.1261C22.199 31.1261 20.1002 31.6786 18.2417 32.7297C16.3833 33.7809 14.8284 35.2951 13.7283 37.125C16.7272 39.5567 20.4723 40.881 24.3333 40.875Z" fill="#127FFF"/>
</g>
<defs>
<clipPath id="clip0_471_3891">
<rect width="48" height="48" fill="white" transform="translate(0.333008)"/>
</clipPath>
</defs>
</svg>
