<svg width="48" height="48" viewBox="0 0 48 48" fill="none" xmlns="http://www.w3.org/2000/svg">
<path d="M40.5 7.875H7.5C6.80381 7.875 6.13613 8.15156 5.64384 8.64384C5.15156 9.13613 4.875 9.80381 4.875 10.5V37.5C4.875 38.1962 5.15156 38.8639 5.64384 39.3562C6.13613 39.8484 6.80381 40.125 7.5 40.125H40.5C41.1962 40.125 41.8639 39.8484 42.3562 39.3562C42.8484 38.8639 43.125 38.1962 43.125 37.5V10.5C43.125 9.80381 42.8484 9.13613 42.3562 8.64384C41.8639 8.15156 41.1962 7.875 40.5 7.875ZM40.875 37.5C40.875 37.5995 40.8355 37.6948 40.7652 37.7652C40.6948 37.8355 40.5995 37.875 40.5 37.875H7.5C7.40054 37.875 7.30516 37.8355 7.23483 37.7652C7.16451 37.6948 7.125 37.5995 7.125 37.5V10.5C7.125 10.4005 7.16451 10.3052 7.23483 10.2348C7.30516 10.1645 7.40054 10.125 7.5 10.125H40.5C40.5995 10.125 40.6948 10.1645 40.7652 10.2348C40.8355 10.3052 40.875 10.4005 40.875 10.5V37.5ZM14.625 15.75C14.625 16.1208 14.515 16.4834 14.309 16.7917C14.103 17.1 13.8101 17.3404 13.4675 17.4823C13.1249 17.6242 12.7479 17.6613 12.3842 17.589C12.0205 17.5166 11.6864 17.338 11.4242 17.0758C11.162 16.8136 10.9834 16.4795 10.911 16.1158C10.8387 15.7521 10.8758 15.3751 11.0177 15.0325C11.1596 14.6899 11.4 14.397 11.7083 14.191C12.0166 13.985 12.3792 13.875 12.75 13.875C13.2473 13.875 13.7242 14.0725 14.0758 14.4242C14.4275 14.7758 14.625 15.2527 14.625 15.75ZM22.125 15.75C22.125 16.1208 22.015 16.4834 21.809 16.7917C21.603 17.1 21.3101 17.3404 20.9675 17.4823C20.6249 17.6242 20.2479 17.6613 19.8842 17.589C19.5205 17.5166 19.1864 17.338 18.9242 17.0758C18.662 16.8136 18.4834 16.4795 18.411 16.1158C18.3387 15.7521 18.3758 15.3751 18.5177 15.0325C18.6596 14.6899 18.9 14.397 19.2083 14.191C19.5166 13.985 19.8792 13.875 20.25 13.875C20.7473 13.875 21.2242 14.0725 21.5758 14.4242C21.9275 14.7758 22.125 15.2527 22.125 15.75Z" fill="#127FFF"/>
</svg>
