<svg width="48" height="48" viewBox="0 0 48 48" fill="none" xmlns="http://www.w3.org/2000/svg">
<path d="M42.9712 32.4375C43.1212 32.6951 43.1628 33.0018 43.0869 33.29C43.0109 33.5783 42.8237 33.8247 42.5662 33.975L24.5662 44.475C24.3952 44.5737 24.2012 44.6257 24.0037 44.6257C23.8063 44.6257 23.6123 44.5737 23.4412 44.475L5.44125 33.975C5.20488 33.8156 5.03783 33.5725 4.97386 33.2946C4.90989 33.0168 4.95378 32.7251 5.09666 32.4784C5.23953 32.2317 5.47073 32.0484 5.74353 31.9657C6.01633 31.8829 6.31038 31.9068 6.56625 32.0325L24.0037 42.2006L41.4412 32.0325C41.6982 31.8849 42.003 31.8446 42.2895 31.9204C42.576 31.9963 42.821 32.1821 42.9712 32.4375ZM41.4375 23.0287L24 33.1969L6.5625 23.0287C6.30663 22.903 6.01258 22.8792 5.73978 22.9619C5.46698 23.0447 5.23578 23.228 5.09291 23.4746C4.95003 23.7213 4.90614 24.0131 4.97011 24.2909C5.03408 24.5687 5.20113 24.8119 5.4375 24.9712L23.4375 35.4712C23.6085 35.57 23.8025 35.622 24 35.622C24.1975 35.622 24.3915 35.57 24.5625 35.4712L42.5625 24.9712C42.7989 24.8119 42.9659 24.5687 43.0299 24.2909C43.0939 24.0131 43.05 23.7213 42.9071 23.4746C42.7642 23.228 42.533 23.0447 42.2602 22.9619C41.9874 22.8792 41.6934 22.903 41.4375 23.0287ZM4.875 15C4.87553 14.803 4.92776 14.6097 5.02648 14.4392C5.12519 14.2688 5.26692 14.1272 5.4375 14.0287L23.4375 3.52874C23.6085 3.43 23.8025 3.37802 24 3.37802C24.1975 3.37802 24.3915 3.43 24.5625 3.52874L42.5625 14.0287C42.7321 14.1279 42.8728 14.2697 42.9706 14.4401C43.0683 14.6105 43.1198 14.8035 43.1198 15C43.1198 15.1964 43.0683 15.3895 42.9706 15.5599C42.8728 15.7303 42.7321 15.8721 42.5625 15.9712L24.5625 26.4712C24.3915 26.57 24.1975 26.622 24 26.622C23.8025 26.622 23.6085 26.57 23.4375 26.4712L5.4375 15.9712C5.26692 15.8728 5.12519 15.7312 5.02648 15.5608C4.92776 15.3903 4.87553 15.197 4.875 15ZM8.23312 15L24 24.1969L39.7669 15L24 5.81249L8.23312 15Z" fill="#127FFF"/>
</svg>
