<svg width="49" height="48" viewBox="0 0 49 48" fill="none" xmlns="http://www.w3.org/2000/svg">
<path d="M9.29199 33.75C9.29199 36.0244 10.8051 37.875 12.667 37.875C13.0798 37.8671 13.4867 37.7752 13.8628 37.605C14.239 37.4348 14.5766 37.1898 14.8551 36.885C15.0637 36.6794 15.3442 36.5631 15.637 36.561C15.9299 36.559 16.212 36.6712 16.4235 36.8738C16.6349 37.0765 16.759 37.3536 16.7694 37.6463C16.7797 37.939 16.6755 38.2242 16.4789 38.4412C15.9916 38.9667 15.4022 39.3871 14.7467 39.6766C14.0913 39.9661 13.3835 40.1187 12.667 40.125C9.56574 40.125 7.04199 37.2656 7.04199 33.75C7.04199 30.2344 9.56574 27.375 12.667 27.375C13.3838 27.3818 14.0917 27.5349 14.7472 27.8251C15.4027 28.1153 15.992 28.5364 16.4789 29.0625C16.6755 29.2796 16.7797 29.5648 16.7694 29.8575C16.759 30.1502 16.6349 30.4273 16.4235 30.6299C16.212 30.8326 15.9299 30.9448 15.637 30.9427C15.3442 30.9406 15.0637 30.8244 14.8551 30.6188C14.577 30.3132 14.2395 30.0676 13.8633 29.8967C13.4871 29.7259 13.0801 29.6334 12.667 29.625C10.8051 29.625 9.29199 31.4756 9.29199 33.75ZM40.792 16.5V42C40.792 42.2984 40.6735 42.5845 40.4625 42.7955C40.2515 43.0065 39.9654 43.125 39.667 43.125C39.3686 43.125 39.0825 43.0065 38.8715 42.7955C38.6605 42.5845 38.542 42.2984 38.542 42V17.625H29.167C28.8686 17.625 28.5825 17.5065 28.3715 17.2955C28.1605 17.0845 28.042 16.7984 28.042 16.5V7.125H11.167C11.0675 7.125 10.9722 7.16451 10.9018 7.23484C10.8315 7.30516 10.792 7.40054 10.792 7.5V21C10.792 21.2984 10.6735 21.5845 10.4625 21.7955C10.2515 22.0065 9.96536 22.125 9.66699 22.125C9.36862 22.125 9.08248 22.0065 8.8715 21.7955C8.66052 21.5845 8.54199 21.2984 8.54199 21V7.5C8.54199 6.80381 8.81855 6.13613 9.31084 5.64385C9.80312 5.15156 10.4708 4.875 11.167 4.875H29.167C29.315 4.87488 29.4616 4.90397 29.5983 4.9606C29.7351 5.01723 29.8593 5.10028 29.9639 5.205L40.4639 15.705C40.6742 15.9161 40.7922 16.202 40.792 16.5ZM30.292 15.375H36.952L30.292 8.715V15.375ZM31.792 31.125V34.875H33.667C33.9654 34.875 34.2515 34.9935 34.4625 35.2045C34.6735 35.4155 34.792 35.7016 34.792 36C34.792 36.2984 34.6735 36.5845 34.4625 36.7955C34.2515 37.0065 33.9654 37.125 33.667 37.125H31.792V39C31.792 39.2984 31.6735 39.5845 31.4625 39.7955C31.2515 40.0065 30.9654 40.125 30.667 40.125C30.3686 40.125 30.0825 40.0065 29.8715 39.7955C29.6605 39.5845 29.542 39.2984 29.542 39V37.125H25.792V39C25.792 39.2984 25.6735 39.5845 25.4625 39.7955C25.2515 40.0065 24.9654 40.125 24.667 40.125C24.3686 40.125 24.0825 40.0065 23.8715 39.7955C23.6605 39.5845 23.542 39.2984 23.542 39V37.125H21.667C21.3686 37.125 21.0825 37.0065 20.8715 36.7955C20.6605 36.5845 20.542 36.2984 20.542 36C20.542 35.7016 20.6605 35.4155 20.8715 35.2045C21.0825 34.9935 21.3686 34.875 21.667 34.875H23.542V31.125H21.667C21.3686 31.125 21.0825 31.0065 20.8715 30.7955C20.6605 30.5845 20.542 30.2984 20.542 30C20.542 29.7016 20.6605 29.4155 20.8715 29.2045C21.0825 28.9935 21.3686 28.875 21.667 28.875H23.542V27C23.542 26.7016 23.6605 26.4155 23.8715 26.2045C24.0825 25.9935 24.3686 25.875 24.667 25.875C24.9654 25.875 25.2515 25.9935 25.4625 26.2045C25.6735 26.4155 25.792 26.7016 25.792 27V28.875H29.542V27C29.542 26.7016 29.6605 26.4155 29.8715 26.2045C30.0825 25.9935 30.3686 25.875 30.667 25.875C30.9654 25.875 31.2515 25.9935 31.4625 26.2045C31.6735 26.4155 31.792 26.7016 31.792 27V28.875H33.667C33.9654 28.875 34.2515 28.9935 34.4625 29.2045C34.6735 29.4155 34.792 29.7016 34.792 30C34.792 30.2984 34.6735 30.5845 34.4625 30.7955C34.2515 31.0065 33.9654 31.125 33.667 31.125H31.792ZM29.542 31.125H25.792V34.875H29.542V31.125Z" fill="#127FFF"/>
</svg>
