<svg width="49" height="48" viewBox="0 0 49 48" fill="none" xmlns="http://www.w3.org/2000/svg">
<path d="M24.667 10.875C23.5545 10.875 22.4669 11.2049 21.5419 11.823C20.6169 12.4411 19.8959 13.3196 19.4702 14.3474C19.0444 15.3752 18.933 16.5062 19.1501 17.5974C19.3671 18.6885 19.9028 19.6908 20.6895 20.4775C21.4762 21.2641 22.4785 21.7999 23.5696 22.0169C24.6608 22.234 25.7918 22.1226 26.8196 21.6968C27.8474 21.2711 28.7259 20.5501 29.344 19.6251C29.9621 18.7001 30.292 17.6125 30.292 16.5C30.292 15.0082 29.6994 13.5774 28.6445 12.5225C27.5896 11.4676 26.1588 10.875 24.667 10.875ZM24.667 19.875C23.9995 19.875 23.347 19.6771 22.7919 19.3062C22.2369 18.9354 21.8043 18.4083 21.5489 17.7916C21.2935 17.1749 21.2266 16.4963 21.3568 15.8416C21.4871 15.1869 21.8085 14.5855 22.2805 14.1135C22.7525 13.6415 23.3539 13.3201 24.0086 13.1898C24.6632 13.0596 25.3418 13.1265 25.9585 13.3819C26.5753 13.6374 27.1024 14.0699 27.4732 14.625C27.8441 15.18 28.042 15.8325 28.042 16.5C28.042 17.3951 27.6864 18.2535 27.0535 18.8865C26.4205 19.5194 25.5621 19.875 24.667 19.875ZM24.667 25.875C23.5545 25.875 22.4669 26.2049 21.5419 26.823C20.6169 27.4411 19.8959 28.3196 19.4702 29.3474C19.0444 30.3752 18.933 31.5062 19.1501 32.5974C19.3671 33.6885 19.9028 34.6908 20.6895 35.4775C21.4762 36.2641 22.4785 36.7999 23.5696 37.0169C24.6608 37.234 25.7918 37.1226 26.8196 36.6968C27.8474 36.2711 28.7259 35.5501 29.344 34.6251C29.9621 33.7001 30.292 32.6125 30.292 31.5C30.292 30.0082 29.6994 28.5774 28.6445 27.5225C27.5896 26.4676 26.1588 25.875 24.667 25.875ZM24.667 34.875C23.9995 34.875 23.347 34.6771 22.7919 34.3062C22.2369 33.9354 21.8043 33.4083 21.5489 32.7916C21.2935 32.1749 21.2266 31.4963 21.3568 30.8416C21.4871 30.1869 21.8085 29.5855 22.2805 29.1135C22.7525 28.6415 23.3539 28.3201 24.0086 28.1898C24.6632 28.0596 25.3418 28.1265 25.9585 28.3819C26.5753 28.6374 27.1024 29.0699 27.4732 29.625C27.8441 30.18 28.042 30.8325 28.042 31.5C28.042 32.3951 27.6864 33.2535 27.0535 33.8865C26.4205 34.5194 25.5621 34.875 24.667 34.875ZM41.167 27.375H37.792V14.625H41.167C41.4654 14.625 41.7515 14.5065 41.9625 14.2955C42.1735 14.0845 42.292 13.7984 42.292 13.5C42.292 13.2016 42.1735 12.9155 41.9625 12.7045C41.7515 12.4935 41.4654 12.375 41.167 12.375H37.792V7.5C37.792 6.80381 37.5154 6.13613 37.0231 5.64384C36.5309 5.15156 35.8632 4.875 35.167 4.875H14.167C13.4708 4.875 12.8031 5.15156 12.3108 5.64384C11.8186 6.13613 11.542 6.80381 11.542 7.5V12.375H8.16699C7.86862 12.375 7.58248 12.4935 7.3715 12.7045C7.16052 12.9155 7.04199 13.2016 7.04199 13.5C7.04199 13.7984 7.16052 14.0845 7.3715 14.2955C7.58248 14.5065 7.86862 14.625 8.16699 14.625H11.542V27.375H8.16699C7.86862 27.375 7.58248 27.4935 7.3715 27.7045C7.16052 27.9155 7.04199 28.2016 7.04199 28.5C7.04199 28.7984 7.16052 29.0845 7.3715 29.2955C7.58248 29.5065 7.86862 29.625 8.16699 29.625H11.542V40.5C11.542 41.1962 11.8186 41.8639 12.3108 42.3562C12.8031 42.8484 13.4708 43.125 14.167 43.125H35.167C35.8632 43.125 36.5309 42.8484 37.0231 42.3562C37.5154 41.8639 37.792 41.1962 37.792 40.5V29.625H41.167C41.4654 29.625 41.7515 29.5065 41.9625 29.2955C42.1735 29.0845 42.292 28.7984 42.292 28.5C42.292 28.2016 42.1735 27.9155 41.9625 27.7045C41.7515 27.4935 41.4654 27.375 41.167 27.375ZM35.542 40.5C35.542 40.5995 35.5025 40.6948 35.4322 40.7652C35.3618 40.8355 35.2664 40.875 35.167 40.875H14.167C14.0675 40.875 13.9722 40.8355 13.9018 40.7652C13.8315 40.6948 13.792 40.5995 13.792 40.5V7.5C13.792 7.40054 13.8315 7.30516 13.9018 7.23483C13.9722 7.16451 14.0675 7.125 14.167 7.125H35.167C35.2664 7.125 35.3618 7.16451 35.4322 7.23483C35.5025 7.30516 35.542 7.40054 35.542 7.5V40.5Z" fill="#127FFF"/>
</svg>
