<svg width="64" height="64" viewBox="0 0 64 64" fill="none" xmlns="http://www.w3.org/2000/svg">
<path fill-rule="evenodd" clip-rule="evenodd" d="M32 2.00002C25.0593 1.99984 18.3333 4.40624 12.968 8.8092C7.60271 13.2122 3.93004 19.3392 2.5758 26.1465C1.22155 32.9537 2.26953 40.02 5.54115 46.1412C8.81277 52.2624 14.1056 57.0598 20.5179 59.7161C26.9301 62.3723 34.065 62.7231 40.7069 60.7085C47.3487 58.6939 53.0866 54.4387 56.9428 48.6679C60.799 42.8971 62.5349 35.9677 61.8548 29.0605C61.1747 22.1532 58.1207 15.6955 53.2131 10.7875C50.4305 7.99752 47.1239 5.78492 43.4835 4.27686C39.843 2.76881 35.9404 1.99504 32 2.00002ZM52.398 11.602C57.1173 16.3212 60.0543 22.5308 60.7085 29.1727C61.3627 35.8146 59.6938 42.4778 55.9859 48.0271C52.2781 53.5764 46.7608 57.6684 40.3741 59.6058C33.9875 61.5432 27.1267 61.2062 20.9606 58.6522C14.7946 56.0982 9.70492 51.4852 6.55878 45.5992C3.41264 39.7133 2.40471 32.9185 3.70673 26.3727C5.00876 19.8269 8.54018 13.9351 13.6993 9.70112C18.8584 5.46715 25.3259 3.15302 32 3.15302C35.7889 3.1482 39.5415 3.89214 43.0421 5.3421C46.5426 6.79206 49.7222 8.91944 52.398 11.602ZM16.4375 51.1556V46.5033L12.4125 44.1798V48.831C13.755 49.606 15.0966 50.381 16.4375 51.156V51.1556ZM16.9875 45.5544L12.959 43.2288C14.3025 42.4532 15.6456 41.6782 16.9882 40.9038L21.0163 43.2281L16.9875 45.5544ZM21.5636 44.181L17.5392 46.5045V51.1556L21.5636 48.8306V44.1806V44.181ZM16.4386 22.7771V18.125L12.4136 15.8015V20.4528C13.7561 21.2278 15.0978 22.0028 16.4386 22.7778V22.7771ZM16.9886 17.1758L12.959 14.85C14.3025 14.0744 15.6456 13.2994 16.9882 12.525L21.0163 14.85L16.9875 17.1758H16.9886ZM21.5647 15.8024L17.5403 18.1259V22.7771L21.5647 20.4522V15.8021V15.8024ZM46.4611 51.1556V46.5033L42.4367 44.1798V48.831C43.7792 49.606 45.1207 50.381 46.4611 51.156V51.1556ZM47.0111 45.5544L42.9826 43.2288C44.3259 42.4532 45.669 41.6782 47.0117 40.9038L51.0398 43.2281L47.0107 45.5544H47.0111ZM51.5871 44.181L47.5625 46.5045V51.1556L51.5868 48.8306V44.1806L51.5871 44.181ZM46.4621 22.7771V18.125L42.4377 15.8015V20.4528C43.7802 21.2278 45.1217 22.0028 46.4621 22.7778V22.7771ZM47.0121 17.1758L42.9826 14.85C44.3259 14.0744 45.669 13.2994 47.0117 12.525L51.0398 14.85L47.0107 17.1763L47.0121 17.1758ZM51.5881 15.8024L47.5625 18.1259V22.7771L51.5868 20.4522V15.8021L51.5881 15.8024ZM35.4036 30.5658H28.5963V36.5398H35.4036V30.5658ZM33.5521 29.4645V28.5241C33.5509 28.2417 33.4381 27.9711 33.2384 27.7714C33.0386 27.5716 32.7681 27.4589 32.4856 27.4576H31.5144C31.2319 27.4589 30.9613 27.5716 30.7616 27.7714C30.5619 27.9711 30.4492 28.2417 30.448 28.5241V29.4645H33.5521ZM29.3466 29.4645V28.5241C29.3479 27.9496 29.5767 27.399 29.9829 26.9927C30.3892 26.5865 30.9398 26.3577 31.5144 26.3564H32.4856C33.0601 26.3577 33.6108 26.5865 34.017 26.9927C34.4233 27.399 34.6521 27.9496 34.6533 28.5241V29.4645H35.9542C36.0265 29.4645 36.0981 29.4788 36.1648 29.5065C36.2316 29.5341 36.2923 29.5747 36.3434 29.6258C36.3944 29.677 36.4349 29.7377 36.4625 29.8045C36.4901 29.8713 36.5043 29.9429 36.5042 30.0152V37.0901C36.5042 37.2361 36.4463 37.3761 36.3432 37.4793C36.2401 37.5826 36.1002 37.6407 35.9542 37.6409H28.0457C27.8997 37.6409 27.7596 37.5828 27.6564 37.4795C27.5531 37.3763 27.4951 37.2362 27.4951 37.0901V30.0152C27.495 29.9428 27.5092 29.8712 27.5368 29.8043C27.5645 29.7375 27.605 29.6768 27.6562 29.6256C27.7073 29.5745 27.7681 29.5339 27.8349 29.5063C27.9018 29.4786 27.9734 29.4644 28.0457 29.4645H29.3466ZM31.4494 31.8895C31.4494 31.7435 31.5074 31.6034 31.6106 31.5002C31.7139 31.3969 31.8539 31.3389 32 31.3389C32.146 31.3389 32.2861 31.3969 32.3893 31.5002C32.4926 31.6034 32.5506 31.7435 32.5506 31.8895V32.8669C32.5506 33.0129 32.4926 33.153 32.3893 33.2563C32.2861 33.3595 32.146 33.4175 32 33.4175C31.8539 33.4175 31.7139 33.3595 31.6106 33.2563C31.5074 33.153 31.4494 33.0129 31.4494 32.8669V31.8895ZM48.2968 30.7134C47.1551 29.5716 45.1943 30.3842 45.1943 31.9985C45.1943 33.6129 47.155 34.4255 48.2968 33.2837C48.6376 32.9428 48.8291 32.4805 48.8291 31.9985C48.8291 31.5165 48.6376 31.0543 48.2968 30.7134ZM33.2851 48.2956C34.4269 47.154 33.6144 45.1931 32 45.1931C30.3856 45.1931 29.573 47.1539 30.7148 48.2956C31.0557 48.6365 31.518 48.8279 32 48.8279C32.482 48.8279 32.9443 48.6365 33.2851 48.2956ZM18.2733 30.7136C17.1332 29.5734 15.1708 30.3827 15.1708 31.9988C15.1708 33.6149 17.1333 34.4238 18.2733 33.2839C18.6141 32.943 18.8056 32.4808 18.8056 31.9988C18.8056 31.5168 18.6141 31.0545 18.2733 30.7136ZM33.2851 18.2722C34.4269 17.1305 33.6144 15.1696 32 15.1696C30.3856 15.1696 29.573 17.1303 30.7148 18.2722C31.0557 18.613 31.518 18.8044 32 18.8044C32.482 18.8044 32.9443 18.613 33.2851 18.2722ZM29.1331 16.4364C29.5686 14.1561 32.4025 13.2614 34.0637 14.9233C34.4771 15.3357 34.7569 15.8629 34.8667 16.4364H41.3355V14.85C41.3355 14.7444 41.3658 14.6411 41.4229 14.5523C41.4799 14.4634 41.5613 14.3929 41.6573 14.349C43.3513 13.371 45.0444 12.3931 46.7365 11.4154C46.8211 11.3663 46.9174 11.3408 47.0153 11.3414C47.1131 11.342 47.209 11.3688 47.2931 11.4189C48.9893 12.398 50.6855 13.3777 52.3815 14.358C52.4733 14.4033 52.5505 14.4735 52.6045 14.5604C52.6584 14.6474 52.6869 14.7478 52.6867 14.8501L52.688 20.7688C52.6881 20.8722 52.659 20.9735 52.6041 21.0612C52.5493 21.1488 52.4708 21.2192 52.3777 21.2643L47.5625 24.0433V29.132C49.8427 29.5674 50.7375 32.4013 49.075 34.0625C48.6627 34.4758 48.1357 34.7556 47.5625 34.8656V39.9531C49.1691 40.8807 50.7754 41.8086 52.3816 42.7368C52.4734 42.7821 52.5506 42.8522 52.6046 42.9392C52.6585 43.0262 52.687 43.1265 52.6868 43.2289L52.6881 49.1475C52.6881 49.2509 52.659 49.3522 52.6041 49.4398C52.5493 49.5275 52.4709 49.5979 52.3778 49.643C50.6956 50.6143 49.0132 51.5851 47.3307 52.5555C47.2379 52.6224 47.1264 52.6584 47.012 52.6584C46.8976 52.6584 46.7861 52.6224 46.6932 52.5555C44.9987 51.5772 43.3047 50.5996 41.6112 49.6228C41.5279 49.5746 41.4588 49.5053 41.4107 49.4219C41.3626 49.3386 41.3373 49.244 41.3372 49.1478L41.336 47.5615H34.8672C34.4318 49.8418 31.598 50.7365 29.9367 49.0746C29.5234 48.6622 29.2436 48.135 29.1336 47.5615H22.6645V49.1478C22.6645 49.2512 22.6354 49.3525 22.5805 49.4401C22.5257 49.5277 22.4472 49.5981 22.3542 49.6433C20.672 50.6145 18.9896 51.5854 17.3071 52.5558C17.2143 52.6226 17.1028 52.6586 16.9883 52.6586C16.8739 52.6586 16.7624 52.6226 16.6696 52.5558C14.9748 51.5769 13.2808 50.5993 11.5875 49.6228C11.5042 49.5746 11.435 49.5053 11.3869 49.4219C11.3388 49.3386 11.3135 49.244 11.3135 49.1478L11.3125 43.2288C11.3124 43.1232 11.3427 43.0198 11.3997 42.9309C11.4568 42.8421 11.5383 42.7716 11.6343 42.7278C13.2366 41.8028 14.8379 40.8778 16.4381 39.9528V34.8653C14.1577 34.4296 13.2631 31.5959 14.925 29.9347C15.3374 29.5213 15.8646 29.2415 16.4381 29.1316V24.0429C14.8207 23.1096 13.204 22.1765 11.5881 21.2438C11.5048 21.1956 11.4357 21.1263 11.3876 21.0429C11.3395 20.9596 11.3141 20.865 11.3141 20.7688L11.3125 14.85C11.3124 14.7444 11.3427 14.641 11.3997 14.5522C11.4568 14.4634 11.5383 14.3928 11.6343 14.349C13.3281 13.3711 15.0208 12.3933 16.7125 11.4155C16.7972 11.3665 16.8934 11.341 16.9912 11.3416C17.0891 11.3422 17.185 11.3689 17.2691 11.4189C18.9654 12.3984 20.6616 13.3781 22.3576 14.358C22.4494 14.4033 22.5266 14.4735 22.5806 14.5604C22.6345 14.6474 22.663 14.7478 22.6628 14.8501L22.6641 16.4364H29.1331ZM34.8667 17.5376C34.4313 19.8179 31.5975 20.7127 29.9362 19.0508C29.5229 18.6383 29.2431 18.1111 29.1331 17.5376H22.6645V20.7688C22.6646 20.8722 22.6355 20.9735 22.5806 21.0612C22.5258 21.1488 22.4473 21.2192 22.3542 21.2643L17.5389 24.0433V29.132C19.8191 29.5674 20.7132 32.4013 19.0513 34.0625C18.6391 34.4758 18.1121 34.7556 17.5389 34.8656V39.9531C19.1454 40.8807 20.7518 41.8086 22.358 42.7368C22.4498 42.7821 22.527 42.8522 22.581 42.9392C22.6349 43.0262 22.6634 43.1265 22.6632 43.2289L22.6645 46.46H29.1331C29.5686 44.1798 32.4025 43.285 34.0637 44.9475C34.477 45.3598 34.7568 45.8867 34.8667 46.46H41.3355V43.2288C41.3355 43.1232 41.3658 43.0198 41.4229 42.931C41.4799 42.8422 41.5613 42.7716 41.6573 42.7278C43.2596 41.8028 44.8608 40.8778 46.4611 39.9528V34.8653C44.1808 34.4298 43.2861 31.5959 44.948 29.9347C45.3604 29.5213 45.8876 29.2415 46.4611 29.1316V24.0431C44.8437 23.1094 43.227 22.1764 41.6111 21.2442C41.5278 21.1959 41.4586 21.1267 41.4106 21.0433C41.3625 20.9599 41.3371 20.8654 41.3371 20.7691L41.3358 17.538L34.8667 17.5376ZM37.6848 26.3139C38.8092 27.4383 39.5749 28.8708 39.8851 30.4303C40.1953 31.9899 40.0361 33.6064 39.4276 35.0754C38.8191 36.5445 37.7887 37.8001 36.4665 38.6835C35.1444 39.5669 33.5901 40.0384 32 40.0384C30.4099 40.0384 28.8555 39.5669 27.5334 38.6835C26.2113 37.8001 25.1808 36.5445 24.5723 35.0754C23.9638 33.6064 23.8046 31.9899 24.1148 30.4303C24.425 28.8708 25.1907 27.4383 26.3151 26.3139C27.8229 24.8062 29.8678 23.9592 32 23.9592C34.1322 23.9592 36.1771 24.8062 37.6848 26.3139ZM32 22.8579C33.8079 22.8579 35.5752 23.394 37.0785 24.3984C38.5817 25.4028 39.7534 26.8304 40.4453 28.5007C41.1371 30.171 41.3182 32.009 40.9655 33.7822C40.6128 35.5554 39.7422 37.1842 38.4638 38.4626C37.1854 39.741 35.5566 40.6116 33.7834 40.9643C32.0102 41.317 30.1722 41.1359 28.5019 40.4441C26.8316 39.7522 25.404 38.5805 24.3996 37.0773C23.3952 35.574 22.8591 33.8067 22.8591 31.9988C22.8591 29.5745 23.8222 27.2495 25.5364 25.5352C27.2507 23.821 29.5757 22.8579 32 22.8579Z" fill="url(#paint0_linear_1380_6309)"/>
<defs>
<linearGradient id="paint0_linear_1380_6309" x1="1.99997" y1="32" x2="62" y2="32" gradientUnits="userSpaceOnUse">
<stop stop-color="#127FFF"/>
<stop offset="1" stop-color="#266CD3"/>
</linearGradient>
</defs>
</svg>
