<svg width="16" height="17" viewBox="0 0 16 17" fill="none" xmlns="http://www.w3.org/2000/svg">
<g id="ArrowRight">
<path id="Vector" d="M13.8538 8.60378L9.35375 13.1038C9.25993 13.1976 9.13268 13.2503 9 13.2503C8.86732 13.2503 8.74007 13.1976 8.64625 13.1038C8.55243 13.01 8.49972 12.8827 8.49972 12.75C8.49972 12.6174 8.55243 12.4901 8.64625 12.3963L12.2931 8.75003H2.5C2.36739 8.75003 2.24021 8.69736 2.14645 8.60359C2.05268 8.50982 2 8.38264 2 8.25003C2 8.11743 2.05268 7.99025 2.14645 7.89648C2.24021 7.80271 2.36739 7.75003 2.5 7.75003H12.2931L8.64625 4.10378C8.55243 4.00996 8.49972 3.88272 8.49972 3.75003C8.49972 3.61735 8.55243 3.4901 8.64625 3.39628C8.74007 3.30246 8.86732 3.24976 9 3.24976C9.13268 3.24976 9.25993 3.30246 9.35375 3.39628L13.8538 7.89628C13.9002 7.94272 13.9371 7.99786 13.9623 8.05856C13.9874 8.11926 14.0004 8.18433 14.0004 8.25003C14.0004 8.31574 13.9874 8.38081 13.9623 8.4415C13.9371 8.5022 13.9002 8.55735 13.8538 8.60378Z" fill="white"/>
</g>
</svg>
