<svg width="44" height="39" viewBox="0 0 44 39" fill="none" xmlns="http://www.w3.org/2000/svg">
<path d="M41.125 0H2.625C1.92881 0 1.26113 0.276561 0.768845 0.768844C0.276562 1.26113 2.24467e-07 1.92881 2.24467e-07 2.625V37.625C-0.000106651 37.7742 0.037953 37.921 0.110561 38.0514C0.18317 38.1817 0.287914 38.2914 0.414838 38.3699C0.541762 38.4483 0.686648 38.493 0.835724 38.4997C0.9848 38.5064 1.13311 38.4749 1.26656 38.4081L7.875 35.1028L14.4834 38.4081C14.605 38.469 14.7391 38.5006 14.875 38.5006C15.0109 38.5006 15.145 38.469 15.2666 38.4081L21.875 35.1028L28.4834 38.4081C28.605 38.469 28.7391 38.5006 28.875 38.5006C29.0109 38.5006 29.145 38.469 29.2666 38.4081L35.875 35.1028L42.4834 38.4081C42.6052 38.4684 42.7392 38.4998 42.875 38.5C43.1071 38.5 43.3296 38.4078 43.4937 38.2437C43.6578 38.0796 43.75 37.8571 43.75 37.625V2.625C43.75 1.92881 43.4734 1.26113 42.9812 0.768844C42.4889 0.276561 41.8212 0 41.125 0ZM42 36.2097L36.2666 33.3419C36.145 33.281 36.0109 33.2494 35.875 33.2494C35.7391 33.2494 35.605 33.281 35.4834 33.3419L28.875 36.6472L22.2666 33.3419C22.145 33.281 22.0109 33.2494 21.875 33.2494C21.7391 33.2494 21.605 33.281 21.4834 33.3419L14.875 36.6472L8.26656 33.3419C8.145 33.281 8.01093 33.2494 7.875 33.2494C7.73907 33.2494 7.605 33.281 7.48344 33.3419L1.75 36.2097V2.625C1.75 2.39294 1.84219 2.17038 2.00628 2.00628C2.17038 1.84219 2.39294 1.75 2.625 1.75H41.125C41.3571 1.75 41.5796 1.84219 41.7437 2.00628C41.9078 2.17038 42 2.39294 42 2.625V36.2097ZM36.75 14.875C36.75 15.1071 36.6578 15.3296 36.4937 15.4937C36.3296 15.6578 36.1071 15.75 35.875 15.75H25.375C25.1429 15.75 24.9204 15.6578 24.7563 15.4937C24.5922 15.3296 24.5 15.1071 24.5 14.875C24.5 14.6429 24.5922 14.4204 24.7563 14.2563C24.9204 14.0922 25.1429 14 25.375 14H35.875C36.1071 14 36.3296 14.0922 36.4937 14.2563C36.6578 14.4204 36.75 14.6429 36.75 14.875ZM36.75 21.875C36.75 22.1071 36.6578 22.3296 36.4937 22.4937C36.3296 22.6578 36.1071 22.75 35.875 22.75H25.375C25.1429 22.75 24.9204 22.6578 24.7563 22.4937C24.5922 22.3296 24.5 22.1071 24.5 21.875C24.5 21.6429 24.5922 21.4204 24.7563 21.2563C24.9204 21.0922 25.1429 21 25.375 21H35.875C36.1071 21 36.3296 21.0922 36.4937 21.2563C36.6578 21.4204 36.75 21.6429 36.75 21.875ZM18.375 10.5H7.875C7.64294 10.5 7.42038 10.5922 7.25628 10.7563C7.09219 10.9204 7 11.1429 7 11.375V25.375C7 25.6071 7.09219 25.8296 7.25628 25.9937C7.42038 26.1578 7.64294 26.25 7.875 26.25H18.375C18.6071 26.25 18.8296 26.1578 18.9937 25.9937C19.1578 25.8296 19.25 25.6071 19.25 25.375V11.375C19.25 11.1429 19.1578 10.9204 18.9937 10.7563C18.8296 10.5922 18.6071 10.5 18.375 10.5ZM17.5 24.5H8.75V12.25H17.5V24.5Z" fill="#E8E8E8"/>
</svg>
