<svg width="37" height="44" viewBox="0 0 37 44" fill="none" xmlns="http://www.w3.org/2000/svg">
<path d="M29.4941 26.5059C29.5754 26.5872 29.64 26.6837 29.684 26.7899C29.728 26.8961 29.7507 27.01 29.7507 27.125C29.7507 27.24 29.728 27.3539 29.684 27.4601C29.64 27.5663 29.5754 27.6628 29.4941 27.7441L24.2441 32.9941C24.0799 33.1582 23.8572 33.2505 23.625 33.2505C23.3928 33.2505 23.1701 33.1582 23.0059 32.9941C22.8418 32.8299 22.7495 32.6072 22.7495 32.375C22.7495 32.1428 22.8418 31.9201 23.0059 31.7559L27.6369 27.125L23.0059 22.4941C22.9246 22.4128 22.8602 22.3163 22.8162 22.21C22.7722 22.1038 22.7495 21.99 22.7495 21.875C22.7495 21.76 22.7722 21.6462 22.8162 21.54C22.8602 21.4337 22.9246 21.3372 23.0059 21.2559C23.0872 21.1746 23.1837 21.1102 23.29 21.0662C23.3962 21.0222 23.51 20.9995 23.625 20.9995C23.74 20.9995 23.8538 21.0222 23.96 21.0662C24.0663 21.1102 24.1628 21.1746 24.2441 21.2559L29.4941 26.5059ZM13.7441 21.2559C13.6628 21.1746 13.5663 21.11 13.4601 21.066C13.3538 21.022 13.24 20.9993 13.125 20.9993C13.01 20.9993 12.8962 21.022 12.7899 21.066C12.6837 21.11 12.5872 21.1746 12.5059 21.2559L7.25594 26.5059C7.17458 26.5872 7.11004 26.6837 7.06601 26.7899C7.02198 26.8961 6.99931 27.01 6.99931 27.125C6.99931 27.24 7.02198 27.3539 7.06601 27.4601C7.11004 27.5663 7.17458 27.6628 7.25594 27.7441L12.5059 32.9941C12.5872 33.0754 12.6837 33.1398 12.79 33.1838C12.8962 33.2278 13.01 33.2505 13.125 33.2505C13.24 33.2505 13.3538 33.2278 13.46 33.1838C13.5663 33.1398 13.6628 33.0754 13.7441 32.9941C13.8254 32.9128 13.8898 32.8163 13.9338 32.71C13.9778 32.6038 14.0005 32.49 14.0005 32.375C14.0005 32.26 13.9778 32.1462 13.9338 32.04C13.8898 31.9337 13.8254 31.8372 13.7441 31.7559L9.11313 27.125L13.7441 22.4941C13.8254 22.4128 13.89 22.3163 13.934 22.2101C13.978 22.1039 14.0007 21.99 14.0007 21.875C14.0007 21.76 13.978 21.6462 13.934 21.5399C13.89 21.4337 13.8254 21.3372 13.7441 21.2559ZM36.75 13.125V41.125C36.75 41.8212 36.4734 42.4889 35.9812 42.9812C35.4889 43.4734 34.8212 43.75 34.125 43.75H2.625C1.92881 43.75 1.26113 43.4734 0.768844 42.9812C0.276561 42.4889 0 41.8212 0 41.125V2.625C0 1.92881 0.276561 1.26113 0.768844 0.768845C1.26113 0.276562 1.92881 2.70551e-07 2.625 2.70551e-07H23.625C23.7399 -9.01126e-05 23.8538 0.0224661 23.96 0.0663807C24.0662 0.110295 24.1627 0.174708 24.2441 0.255938L36.4941 12.5059C36.5753 12.5873 36.6397 12.6838 36.6836 12.79C36.7275 12.8962 36.7501 13.0101 36.75 13.125ZM24.5 12.25H33.7619L24.5 2.98594V12.25ZM35 41.125V14H23.625C23.3929 14 23.1704 13.9078 23.0063 13.7437C22.8422 13.5796 22.75 13.3571 22.75 13.125V1.75H2.625C2.39294 1.75 2.17038 1.84219 2.00628 2.00628C1.84219 2.17038 1.75 2.39294 1.75 2.625V41.125C1.75 41.3571 1.84219 41.5796 2.00628 41.7437C2.17038 41.9078 2.39294 42 2.625 42H34.125C34.3571 42 34.5796 41.9078 34.7437 41.7437C34.9078 41.5796 35 41.3571 35 41.125Z" fill="#E8E8E8"/>
</svg>
