<svg width="32" height="32" viewBox="0 0 32 32" fill="none" xmlns="http://www.w3.org/2000/svg">
<g id="X">
<path id="Vector" d="M25.5301 24.4698C25.6038 24.5385 25.6629 24.6213 25.7039 24.7133C25.7449 24.8053 25.7669 24.9046 25.7687 25.0053C25.7705 25.106 25.7519 25.2061 25.7142 25.2994C25.6765 25.3928 25.6203 25.4777 25.5491 25.5489C25.4779 25.6201 25.3931 25.6762 25.2997 25.714C25.2063 25.7517 25.1063 25.7702 25.0056 25.7684C24.9049 25.7667 24.8056 25.7446 24.7136 25.7036C24.6216 25.6626 24.5388 25.6035 24.4701 25.5298L16.0001 17.0611L7.53009 25.5298C7.38792 25.6623 7.19987 25.7344 7.00557 25.731C6.81127 25.7276 6.62588 25.6489 6.48847 25.5115C6.35106 25.3741 6.27234 25.1887 6.26892 24.9944C6.26549 24.8001 6.33761 24.612 6.47009 24.4698L14.9388 15.9998L6.47009 7.52985C6.33761 7.38767 6.26549 7.19963 6.26892 7.00532C6.27234 6.81102 6.35106 6.62564 6.48847 6.48822C6.62588 6.35081 6.81127 6.2721 7.00557 6.26867C7.19987 6.26524 7.38792 6.33737 7.53009 6.46985L16.0001 14.9386L24.4701 6.46985C24.6123 6.33737 24.8003 6.26524 24.9946 6.26867C25.1889 6.2721 25.3743 6.35081 25.5117 6.48822C25.6491 6.62564 25.7278 6.81102 25.7313 7.00532C25.7347 7.19963 25.6626 7.38767 25.5301 7.52985L17.0613 15.9998L25.5301 24.4698Z" fill="#011853"/>
</g>
</svg>
