<svg width="36" height="36" viewBox="0 0 36 36" fill="none" xmlns="http://www.w3.org/2000/svg">
<path d="M21.0936 31.5C21.0936 31.7238 21.0047 31.9384 20.8465 32.0967C20.6882 32.2549 20.4736 32.3438 20.2498 32.3438H15.7498C15.5261 32.3438 15.3114 32.2549 15.1532 32.0967C14.995 31.9384 14.9061 31.7238 14.9061 31.5C14.9061 31.2763 14.995 31.0617 15.1532 30.9034C15.3114 30.7452 15.5261 30.6563 15.7498 30.6563H20.2498C20.4736 30.6563 20.6882 30.7452 20.8465 30.9034C21.0047 31.0617 21.0936 31.2763 21.0936 31.5ZM17.9998 15.4688C18.278 15.4688 18.5499 15.3863 18.7811 15.2318C19.0124 15.0773 19.1926 14.8577 19.299 14.6007C19.4055 14.3437 19.4333 14.061 19.3791 13.7882C19.3248 13.5154 19.1909 13.2648 18.9942 13.0682C18.7975 12.8715 18.547 12.7376 18.2742 12.6833C18.0014 12.6291 17.7186 12.6569 17.4617 12.7633C17.2047 12.8698 16.9851 13.05 16.8306 13.2813C16.6761 13.5125 16.5936 13.7844 16.5936 14.0625C16.5936 14.4355 16.7417 14.7932 17.0055 15.0569C17.2692 15.3206 17.6269 15.4688 17.9998 15.4688ZM31.1722 21.8532L29.4341 29.6719C29.3623 29.997 29.2093 30.2987 28.9893 30.5486C28.7693 30.7985 28.4895 30.9885 28.1761 31.1009C27.8627 31.2133 27.5259 31.2443 27.1972 31.1912C26.8685 31.138 26.5587 31.0024 26.2967 30.7969L22.3887 27.8438H13.6151L9.70296 30.7969C9.44094 31.0034 9.13076 31.1399 8.80154 31.1936C8.47231 31.2473 8.13483 31.2165 7.82078 31.104C7.50673 30.9915 7.2264 30.8011 7.00612 30.5506C6.78583 30.3001 6.6328 29.9978 6.5614 29.6719L4.82749 21.8532C4.76279 21.5593 4.76602 21.2545 4.83694 20.9621C4.90786 20.6697 5.04459 20.3973 5.23671 20.1657L9.31484 15.2775C9.44099 13.5052 9.84334 11.7634 10.5073 10.1152C12.2961 5.63208 15.5023 2.81958 16.7975 1.81833C17.1427 1.55059 17.5672 1.40527 18.0041 1.40527C18.4409 1.40527 18.8654 1.55059 19.2106 1.81833C20.5058 2.81958 23.7106 5.63208 25.5008 10.1152C26.1648 11.7634 26.5671 13.5052 26.6933 15.2775L30.7714 20.1657C30.9621 20.398 31.0973 20.6707 31.1667 20.9631C31.2362 21.2555 31.238 21.5599 31.1722 21.8532ZM13.8176 26.1563H22.182C25.2659 20.7479 25.8552 15.563 23.93 10.741C22.2495 6.52224 19.0995 3.86864 18.1742 3.14724C18.1246 3.108 18.0631 3.08666 17.9998 3.08666C17.9366 3.08666 17.8751 3.108 17.8255 3.14724C16.9001 3.86302 13.7473 6.52224 12.0697 10.741C10.1445 15.563 10.7337 20.7479 13.8176 26.1563ZM12.2342 26.775C10.5467 23.753 9.5764 20.7844 9.33452 17.889L6.53327 21.2457C6.50573 21.2786 6.48609 21.3174 6.47585 21.3591C6.46562 21.4007 6.46506 21.4442 6.47421 21.4861L8.21374 29.3105C8.22408 29.3571 8.24612 29.4003 8.27777 29.4361C8.30942 29.4718 8.34965 29.4989 8.39467 29.5148C8.43968 29.5307 8.488 29.5349 8.53507 29.5269C8.58215 29.519 8.62643 29.4992 8.66374 29.4694L8.68202 29.454L12.2342 26.775ZM29.4706 21.2457L26.6736 17.889C26.4317 20.7844 25.4642 23.753 23.7739 26.775L27.3219 29.4469L27.3402 29.4624C27.3775 29.4922 27.4217 29.512 27.4688 29.5199C27.5159 29.5278 27.5642 29.5237 27.6092 29.5078C27.6542 29.4919 27.6945 29.4648 27.7261 29.429C27.7578 29.3933 27.7798 29.3501 27.7902 29.3035L29.5311 21.4861C29.5395 21.4438 29.538 21.4001 29.5268 21.3584C29.5156 21.3167 29.4949 21.2781 29.4664 21.2457H29.4706Z" fill="#011853"/>
</svg>
