<svg width="36" height="36" viewBox="0 0 36 36" fill="none" xmlns="http://www.w3.org/2000/svg">
<path d="M32.7656 20.7057L26.9198 7.39696C26.8777 7.30101 26.8181 7.21374 26.744 7.13962C25.9529 6.34872 24.8801 5.90442 23.7614 5.90442C22.6427 5.90442 21.5699 6.34872 20.7787 7.13962C20.6208 7.29735 20.5318 7.51125 20.5312 7.73446V11.5313H15.4687V7.73446C15.4688 7.62346 15.447 7.51353 15.4045 7.41097C15.3621 7.30841 15.2998 7.21525 15.2212 7.1368C14.4301 6.34591 13.3572 5.90161 12.2386 5.90161C11.1199 5.90161 10.0471 6.34591 9.25592 7.1368C9.18186 7.21093 9.12225 7.2982 9.08014 7.39415L3.23436 20.7057C2.79079 21.5777 2.55078 22.5389 2.53239 23.5171C2.51401 24.4952 2.71772 25.4648 3.12821 26.3528C3.5387 27.2409 4.14527 28.0242 4.90227 28.644C5.65927 29.2637 6.54697 29.7037 7.49858 29.9307C8.45018 30.1578 9.4409 30.1661 10.3962 29.9549C11.3514 29.7438 12.2463 29.3187 13.0136 28.7117C13.7808 28.1047 14.4004 27.3316 14.8256 26.4505C15.2509 25.5694 15.4708 24.6034 15.4687 23.6251V13.2188H20.5312V23.6251C20.5292 24.6034 20.7491 25.5694 21.1743 26.4505C21.5996 27.3316 22.2191 28.1047 22.9864 28.7117C23.7536 29.3187 24.6486 29.7438 25.6038 29.9549C26.5591 30.1661 27.5498 30.1578 28.5014 29.9307C29.453 29.7037 30.3407 29.2637 31.0977 28.644C31.8547 28.0242 32.4613 27.2409 32.8718 26.3528C33.2822 25.4648 33.486 24.4952 33.4676 23.5171C33.4492 22.5389 33.2092 21.5777 32.7656 20.7057ZM8.99999 28.4063C8.05434 28.4063 7.12994 28.1259 6.34367 27.6005C5.55739 27.0752 4.94457 26.3284 4.58269 25.4548C4.22081 24.5811 4.12612 23.6198 4.31061 22.6923C4.49509 21.7648 4.95046 20.9129 5.61913 20.2442C6.2878 19.5756 7.13974 19.1202 8.06721 18.9357C8.99468 18.7512 9.95603 18.8459 10.8297 19.2078C11.7034 19.5697 12.4501 20.1825 12.9755 20.9688C13.5008 21.755 13.7812 22.6794 13.7812 23.6251C13.7812 24.8932 13.2775 26.1093 12.3808 27.0059C11.4842 27.9026 10.2681 28.4063 8.99999 28.4063ZM8.99999 17.1563C8.10151 17.156 7.21292 17.3438 6.39139 17.7076L10.5553 8.23227C10.9954 7.84036 11.5584 7.61426 12.1472 7.59295C12.7361 7.57165 13.314 7.75647 13.7812 8.11555V19.2657C13.1754 18.6001 12.4371 18.0687 11.6137 17.7054C10.7903 17.3421 9.89997 17.1551 8.99999 17.1563ZM22.2187 8.11696C22.686 7.75787 23.2638 7.57305 23.8527 7.59436C24.4416 7.61567 25.0046 7.84177 25.4447 8.23368L29.6086 17.7076C28.3692 17.1584 26.9884 17.0134 25.662 17.293C24.3356 17.5727 23.1309 18.2629 22.2187 19.2657V8.11696ZM27 28.4063C26.0543 28.4063 25.1299 28.1259 24.3437 27.6005C23.5574 27.0752 22.9446 26.3284 22.5827 25.4548C22.2208 24.5811 22.1261 23.6198 22.3106 22.6923C22.4951 21.7648 22.9505 20.9129 23.6191 20.2442C24.2878 19.5756 25.1397 19.1202 26.0672 18.9357C26.9947 18.7512 27.956 18.8459 28.8297 19.2078C29.7033 19.5697 30.4501 20.1825 30.9755 20.9688C31.5008 21.755 31.7812 22.6794 31.7812 23.6251C31.7812 24.8932 31.2775 26.1093 30.3808 27.0059C29.4842 27.9026 28.2681 28.4063 27 28.4063Z" fill="#011853"/>
</svg>
