<svg width="656" height="656" viewBox="0 0 656 656" fill="none" xmlns="http://www.w3.org/2000/svg">
<path d="M0 0V656H656V0H0ZM653.694 130.834H525.176V2.30576H653.694V130.834ZM263.741 392.264V263.736H392.259V392.264H263.741ZM392.259 394.57V523.098H263.741V394.57H392.259ZM261.435 392.264H133.13V263.736H261.661V392.264H261.435ZM263.741 261.43V133.14H392.259V261.668H263.741V261.43ZM394.565 263.736H523.096V392.264H394.565V263.736ZM394.565 261.43V133.14H523.096V261.668H394.565V261.43ZM394.565 130.834V2.30576H523.096V130.834H394.565ZM392.259 130.834H263.741V2.30576H392.259V130.834ZM261.435 130.834H133.13V2.30576H261.661V130.834H261.435ZM261.435 133.14V261.668H133.13V133.14H261.435ZM130.824 261.43H2.3058V133.14H130.824V261.43ZM130.824 263.736V392.264H2.3058V263.736H130.824ZM130.824 394.57V523.098H2.3058V394.57H130.824ZM133.13 394.57H261.661V523.098H133.13V394.57ZM261.435 525.166V653.694H133.13V525.166H261.435ZM263.741 525.166H392.259V653.694H263.741V525.166ZM394.565 525.166H523.096V653.694H394.565V525.166ZM394.565 522.86V394.57H523.096V523.098H394.565V522.86ZM525.176 394.57H653.694V523.098H525.176V394.57ZM525.176 392.264V263.736H653.694V392.264H525.176ZM525.176 261.43V133.14H653.694V261.668H525.176V261.43ZM130.824 2.30576V130.834H2.3058V2.30576H130.824ZM2.3058 525.166H130.824V653.694H2.3058V525.166ZM525.176 653.694V525.166H653.694V653.694H525.176Z" fill="#E7F2FF"/>
</svg>
