<svg width="64" height="64" viewBox="0 0 64 64" fill="none" xmlns="http://www.w3.org/2000/svg">
<path d="M43.9998 58C43.9998 58.5304 43.7891 59.0391 43.4141 59.4142C43.039 59.7893 42.5303 60 41.9998 60H21.9998C21.4694 60 20.9607 59.7893 20.5856 59.4142C20.2106 59.0391 19.9998 58.5304 19.9998 58C19.9998 57.4696 20.2106 56.9608 20.5856 56.5858C20.9607 56.2107 21.4694 56 21.9998 56H41.9998C42.5303 56 43.039 56.2107 43.4141 56.5858C43.7891 56.9608 43.9998 57.4696 43.9998 58ZM53.9998 26C54.0085 29.3341 53.2553 32.6261 51.7977 35.6248C50.3402 38.6234 48.2169 41.2495 45.5898 43.3025C45.0986 43.679 44.7 44.1628 44.4244 44.717C44.1488 45.2712 44.0036 45.8811 43.9998 46.5V48C43.9998 49.0608 43.5784 50.0783 42.8283 50.8284C42.0781 51.5786 41.0607 52 39.9998 52H23.9998C22.939 52 21.9216 51.5786 21.1714 50.8284C20.4213 50.0783 19.9998 49.0608 19.9998 48V46.5C19.9994 45.8885 19.8588 45.2852 19.5888 44.7365C19.3188 44.1878 18.9266 43.7084 18.4423 43.335C15.8218 41.2941 13.7 38.6838 12.2373 35.7018C10.7746 32.7197 10.0095 29.4439 9.99984 26.1225C9.93484 14.2075 19.5648 4.28498 31.4698 3.99998C34.4032 3.92929 37.3211 4.44611 40.0517 5.52002C42.7824 6.59393 45.2706 8.20323 47.3699 10.2532C49.4693 12.3032 51.1374 14.7524 52.276 17.4567C53.4146 20.161 54.0007 23.0658 53.9998 26ZM49.9998 26C50.0005 23.5991 49.5209 21.2224 48.5893 19.0097C47.6576 16.797 46.2927 14.793 44.5749 13.1158C42.8571 11.4385 40.8211 10.1218 38.5868 9.24325C36.3525 8.36467 33.965 7.94196 31.5648 7.99998C21.8148 8.22998 13.9473 16.3475 13.9998 26.0975C14.009 28.8139 14.6358 31.4928 15.833 33.9312C17.0301 36.3697 18.7662 38.5039 20.9098 40.1725C21.8734 40.9216 22.6529 41.8812 23.1885 42.978C23.7241 44.0747 24.0016 45.2795 23.9998 46.5V48H39.9998V46.5C40.0026 45.276 40.2849 44.0688 40.8252 42.9705C41.3655 41.8721 42.1494 40.9117 43.1173 40.1625C45.2676 38.4821 47.0054 36.3326 48.1982 33.8781C49.3911 31.4236 50.0073 28.729 49.9998 26ZM45.9723 23.665C45.4537 20.7682 44.0601 18.0999 41.979 16.0192C39.8978 13.9386 37.2292 12.5455 34.3323 12.0275C34.0733 11.9838 33.8082 11.9916 33.5522 12.0504C33.2962 12.1092 33.0542 12.2178 32.8402 12.3701C32.6261 12.5224 32.4442 12.7153 32.3047 12.9379C32.1653 13.1606 32.071 13.4084 32.0273 13.6675C31.9837 13.9265 31.9915 14.1916 32.0502 14.4476C32.109 14.7037 32.2177 14.9456 32.37 15.1596C32.5222 15.3737 32.7152 15.5556 32.9378 15.6951C33.1604 15.8346 33.4083 15.9288 33.6673 15.9725C37.8098 16.67 41.3248 20.185 42.0273 24.335C42.1065 24.8008 42.348 25.2235 42.709 25.5283C43.0701 25.8331 43.5274 26.0002 43.9998 26C44.1129 25.9993 44.2257 25.9901 44.3373 25.9725C44.8601 25.8832 45.326 25.59 45.6326 25.1573C45.9393 24.7246 46.0614 24.1878 45.9723 23.665Z" fill="#127FFF"/>
</svg>
