<svg width="32" height="32" viewBox="0 0 32 32" fill="none" xmlns="http://www.w3.org/2000/svg">
<g id="icon_aelf_circle">
<circle id="Circle" cx="16" cy="16" r="16" fill="#266CD3"/>
<path id="Shape" fill-rule="evenodd" clip-rule="evenodd" d="M16.6604 10.3343C17.747 10.3343 18.6279 9.4534 18.6279 8.36678C18.6279 7.28017 17.747 6.39929 16.6604 6.39929C15.5738 6.39929 14.6929 7.28017 14.6929 8.36678C14.6929 9.4534 15.5738 10.3343 16.6604 10.3343ZM25.5476 15.9991C25.5476 18.2098 23.7555 20.002 21.5448 20.002C19.3341 20.002 17.542 18.2098 17.542 15.9991C17.542 13.7884 19.3341 11.9963 21.5448 11.9963C23.7555 11.9963 25.5476 13.7884 25.5476 15.9991ZM18.628 23.6311C18.628 24.7177 17.7471 25.5986 16.6605 25.5986C15.5739 25.5986 14.693 24.7177 14.693 23.6311C14.693 22.5445 15.5739 21.6636 16.6605 21.6636C17.7471 21.6636 18.628 22.5445 18.628 23.6311ZM6.5853 10.4702C6.00862 11.9967 6.82276 13.7267 8.34926 14.3034C9.36693 14.6765 10.4524 14.473 11.2327 13.8285C11.945 13.3196 12.8609 13.15 13.7429 13.4892C14.3196 13.6928 14.7606 14.0659 15.0659 14.5408L15.0998 14.6087C15.2355 14.8122 15.439 15.0158 15.7104 15.0836C16.321 15.3211 17.0334 14.9818 17.2369 14.3712C17.4744 13.7606 17.1351 13.0483 16.5245 12.8447C16.2532 12.743 15.9818 12.743 15.7104 12.8447C15.1676 13.0143 14.557 13.0143 13.9804 12.8108C13.1323 12.5055 12.5556 11.8271 12.3182 11.0468L12.2842 10.979C12.2842 10.9451 12.2842 10.9112 12.2503 10.9112V10.8433C12.0129 9.89349 11.3683 9.07935 10.3846 8.74013C8.8581 8.12953 7.12806 8.90974 6.5853 10.4702ZM8.34926 17.6952C6.82276 18.2719 6.00862 20.0019 6.5853 21.5284C7.16198 23.0888 8.8581 23.8691 10.3846 23.2584C11.3683 22.9192 12.0129 22.1051 12.2503 21.1553V21.0874C12.2842 21.0874 12.2842 21.0535 12.2842 21.0196L12.3182 20.9517C12.5556 20.1715 13.1323 19.4931 13.9804 19.1878C14.557 18.9842 15.1676 18.9842 15.7104 19.1539C15.9818 19.2556 16.2532 19.2556 16.5245 19.1539C17.1351 18.9503 17.4744 18.238 17.2369 17.6274C17.0334 17.0168 16.321 16.6775 15.7104 16.915C15.439 16.9828 15.2355 17.1864 15.0998 17.3899L15.0659 17.4577C14.7606 17.9327 14.3196 18.3058 13.7429 18.5093C12.8609 18.8486 11.945 18.6789 11.2327 18.1701C10.4524 17.5256 9.36693 17.3221 8.34926 17.6952Z" fill="white"/>
</g>
</svg>
