<svg width="65" height="64" viewBox="0 0 65 64" fill="none" xmlns="http://www.w3.org/2000/svg">
<path d="M62.5742 11.9725C62.5457 11.4832 62.3384 11.0215 61.9919 10.6749C61.6453 10.3283 61.1835 10.1211 60.6942 10.0925C47.7542 9.34253 37.3642 13.2775 32.8992 20.6475C29.9492 25.52 29.9542 31.4375 32.8592 37.0825C31.2057 39.0509 29.9973 41.3535 29.3167 43.8325L25.2492 39.75C27.2042 35.6675 27.1292 31.4125 24.9992 27.8775C21.6992 22.43 14.0817 19.51 4.62424 20.065C4.13495 20.0936 3.67319 20.3008 3.32663 20.6474C2.98006 20.994 2.77281 21.4557 2.74424 21.945C2.18674 31.4025 5.10924 39.02 10.5567 42.32C12.3544 43.4183 14.4201 43.9996 16.5267 44C18.5715 43.9749 20.5844 43.4904 22.4167 42.5825L28.6667 48.8325V56C28.6667 56.5305 28.8775 57.0392 29.2525 57.4142C29.6276 57.7893 30.1363 58 30.6667 58C31.1972 58 31.7059 57.7893 32.081 57.4142C32.456 57.0392 32.6667 56.5305 32.6667 56V48.6275C32.6578 45.4458 33.7406 42.3572 35.7342 39.8775C38.3066 41.2219 41.1595 41.9413 44.0617 41.9775C46.8677 41.9866 49.6215 41.22 52.0192 39.7625C59.3892 35.3025 63.3342 24.9125 62.5742 11.9725ZM12.6192 38.9C8.78424 36.5775 6.61424 31.08 6.66674 24C13.7467 23.94 19.2442 26.1175 21.5667 29.9525C22.7792 31.9525 22.9767 34.285 22.1817 36.6875L16.0792 30.585C15.7011 30.2258 15.1976 30.0285 14.6761 30.0352C14.1546 30.0418 13.6563 30.252 13.2875 30.6208C12.9187 30.9896 12.7085 31.4879 12.7019 32.0094C12.6952 32.5309 12.8925 33.0344 13.2517 33.4125L19.3542 39.515C16.9517 40.31 14.6217 40.1125 12.6192 38.9ZM49.9467 36.345C46.5967 38.3725 42.6592 38.5275 38.6592 36.845L52.0817 23.42C52.441 23.0419 52.6383 22.5384 52.6316 22.0169C52.6249 21.4954 52.4148 20.9971 52.046 20.6283C51.6772 20.2595 51.1789 20.0493 50.6574 20.0427C50.1359 20.036 49.6324 20.2333 49.2542 20.5925L35.8292 34C34.1392 30 34.2917 26.06 36.3292 22.7125C39.8142 16.9625 48.0792 13.7575 58.6617 14.005C58.9017 24.585 55.7017 32.86 49.9467 36.345Z" fill="#127FFF"/>
</svg>
