<svg width="65" height="64" viewBox="0 0 65 64" fill="none" xmlns="http://www.w3.org/2000/svg">
<g clip-path="url(#clip0_1380_8117)">
<path d="M63.9084 26.9775L57.5284 14.2125C57.2934 13.7426 56.9681 13.3237 56.5711 12.9796C56.1742 12.6355 55.7133 12.3729 55.2149 12.207C54.7165 12.041 54.1902 11.9748 53.6662 12.0122C53.1422 12.0496 52.6307 12.1899 52.1609 12.425L45.9434 15.5325L32.8459 12.0675C32.5098 11.98 32.157 11.98 31.8209 12.0675L18.7234 15.5325L12.5059 12.425C12.0361 12.1899 11.5246 12.0496 11.0006 12.0122C10.4766 11.9748 9.95032 12.041 9.45189 12.207C8.95346 12.3729 8.49261 12.6355 8.09566 12.9796C7.6987 13.3237 7.37342 13.7426 7.13839 14.2125L0.758387 26.975C0.523277 27.4448 0.383012 27.9563 0.345604 28.4803C0.308195 29.0043 0.374374 29.5305 0.540363 30.029C0.706351 30.5274 0.968898 30.9883 1.31301 31.3852C1.65712 31.7822 2.07605 32.1074 2.54589 32.3425L9.29589 35.72L23.1684 45.6275C23.3728 45.7729 23.6026 45.8789 23.8459 45.94L39.8459 49.94C40.181 50.024 40.5321 50.0198 40.8651 49.9278C41.198 49.8358 41.5015 49.6591 41.7459 49.415L55.5134 35.645L62.1184 32.3425C63.0666 31.8678 63.7876 31.036 64.1227 30.03C64.4579 29.024 64.3799 27.926 63.9059 26.9775H63.9084ZM50.1859 35.32L41.5834 28.43C41.198 28.1214 40.7121 27.9662 40.2192 27.9943C39.7262 28.0225 39.2611 28.232 38.9134 28.5825C34.4609 33.0675 29.4984 32.5 26.3334 30.5L37.1434 20H45.0959L51.8984 33.6025L50.1859 35.32ZM10.7159 16L15.8334 18.555L9.44089 31.3175L4.33339 28.765L10.7159 16ZM39.7159 45.7825L25.1884 42.1525L12.8884 33.3675L19.8884 19.3675L32.3334 16.07L34.7834 16.7175L23.5334 27.6375L23.5134 27.66C23.0899 28.0835 22.7669 28.5966 22.5683 29.1616C22.3696 29.7266 22.3004 30.329 22.3656 30.9243C22.4309 31.5197 22.629 32.0927 22.9454 32.6013C23.2617 33.1098 23.6882 33.5408 24.1934 33.8625C29.3334 37.145 35.5359 36.6125 40.4209 32.6125L47.3334 38.165L39.7159 45.7825ZM55.2159 31.315L48.8359 18.565L53.9509 16L60.3334 28.765L55.2159 31.315ZM33.2784 54.4825C33.1703 54.9147 32.921 55.2986 32.57 55.573C32.219 55.8475 31.7865 55.9969 31.3409 55.9975C31.1766 55.9973 31.0129 55.9771 30.8534 55.9375L20.4359 53.3325C20.1922 53.2724 19.9623 53.1663 19.7584 53.02L13.1709 48.315C12.7658 47.997 12.4991 47.5349 12.4261 47.0252C12.3532 46.5154 12.4797 45.9971 12.7794 45.5783C13.079 45.1594 13.5286 44.8723 14.0347 44.7767C14.5407 44.6811 15.0641 44.7843 15.4959 45.065L21.7734 49.55L31.8334 52.06C32.3479 52.1887 32.7902 52.5165 33.063 52.9712C33.3359 53.426 33.4169 53.9705 33.2884 54.485L33.2784 54.4825Z" fill="#127FFF"/>
</g>
<defs>
<clipPath id="clip0_1380_8117">
<rect width="64" height="64" fill="white" transform="translate(0.333496)"/>
</clipPath>
</defs>
</svg>
