<svg width="64" height="64" viewBox="0 0 64 64" fill="none" xmlns="http://www.w3.org/2000/svg">
<path fill-rule="evenodd" clip-rule="evenodd" d="M32 2C15.4315 2 2 15.4315 2 32C2 48.5685 15.4315 62 32 62C48.5685 62 62 48.5685 62 32C62 15.4315 48.5685 2 32 2ZM40.6772 33.975C40.7806 34.0783 40.8386 34.2184 40.8386 34.3646C40.8386 34.5107 40.7806 34.6508 40.6772 34.7541C40.5739 34.8574 40.4338 34.9155 40.2877 34.9155C40.1416 34.9155 40.0014 34.8574 39.8981 34.7541L39.2606 34.1166V35.0176C39.2617 35.0907 39.2483 35.1632 39.2211 35.231C39.1939 35.2988 39.1535 35.3605 39.1022 35.4126C39.051 35.4646 38.9899 35.506 38.9225 35.5342C38.8551 35.5624 38.7827 35.5769 38.7097 35.5769C38.6366 35.5769 38.5643 35.5624 38.4969 35.5342C38.4295 35.506 38.3684 35.4646 38.3172 35.4126C38.2659 35.3605 38.2255 35.2988 38.1983 35.231C38.1711 35.1632 38.1576 35.0907 38.1587 35.0176V34.1166L37.5213 34.7541C37.4179 34.8574 37.2778 34.9155 37.1317 34.9154C36.9856 34.9154 36.8455 34.8574 36.7422 34.7541C36.6389 34.6507 36.5809 34.5106 36.5809 34.3645C36.5809 34.2184 36.6389 34.0783 36.7422 33.975L37.3797 33.3375H36.4789C36.4058 33.3386 36.3333 33.3252 36.2655 33.298C36.1977 33.2708 36.136 33.2304 36.0839 33.1791C36.0319 33.1278 35.9905 33.0667 35.9623 32.9993C35.9341 32.9319 35.9196 32.8596 35.9196 32.7866C35.9196 32.7135 35.9341 32.6412 35.9623 32.5738C35.9905 32.5064 36.0319 32.4453 36.0839 32.394C36.136 32.3428 36.1977 32.3023 36.2655 32.2752C36.3333 32.248 36.4058 32.2345 36.4789 32.2356H37.3797L36.7422 31.5981C36.641 31.4944 36.5846 31.3549 36.5855 31.21C36.5864 31.065 36.6443 30.9262 36.7468 30.8237C36.8494 30.7212 36.9881 30.6632 37.1331 30.6624C37.2781 30.6615 37.4175 30.7178 37.5213 30.8191L38.1587 31.4566V30.5562C38.1609 30.4116 38.2199 30.2736 38.323 30.172C38.4261 30.0705 38.565 30.0135 38.7097 30.0135C38.8544 30.0135 38.9933 30.0705 39.0964 30.172C39.1994 30.2736 39.2584 30.4116 39.2606 30.5562V31.4573L39.8981 30.8197C39.9493 30.7686 40.01 30.728 40.0768 30.7003C40.1437 30.6726 40.2153 30.6584 40.2876 30.6584C40.36 30.6584 40.4316 30.6726 40.4985 30.7003C40.5653 30.728 40.626 30.7685 40.6772 30.8197C40.7283 30.8708 40.7689 30.9316 40.7966 30.9984C40.8243 31.0652 40.8386 31.1369 40.8386 31.2092C40.8386 31.2815 40.8243 31.3532 40.7966 31.42C40.769 31.4869 40.7284 31.5476 40.6772 31.5987L40.0397 32.2363H40.9408C41.0138 32.2352 41.0863 32.2486 41.1541 32.2758C41.222 32.303 41.2837 32.3434 41.3357 32.3946C41.3878 32.4459 41.4291 32.507 41.4573 32.5744C41.4855 32.6418 41.5 32.7141 41.5 32.7872C41.5 32.8602 41.4855 32.9326 41.4573 33C41.4291 33.0674 41.3878 33.1285 41.3357 33.1797C41.2837 33.231 41.222 33.2714 41.1541 33.2986C41.0863 33.3258 41.0138 33.3392 40.9408 33.3381H40.0397L40.6772 33.9756V33.975ZM27.257 33.975C27.3082 34.0262 27.3487 34.0869 27.3764 34.1537C27.4041 34.2206 27.4184 34.2922 27.4184 34.3646C27.4184 34.4369 27.4041 34.5086 27.3764 34.5754C27.3487 34.6422 27.3082 34.703 27.257 34.7541C27.2058 34.8053 27.1451 34.8459 27.0783 34.8736C27.0114 34.9012 26.9398 34.9155 26.8674 34.9155C26.7951 34.9155 26.7234 34.9012 26.6566 34.8736C26.5898 34.8459 26.529 34.8053 26.4779 34.7541L25.8404 34.1166V35.0176C25.8415 35.0907 25.828 35.1632 25.8008 35.231C25.7737 35.2988 25.7332 35.3605 25.682 35.4126C25.6307 35.4646 25.5696 35.506 25.5022 35.5342C25.4348 35.5624 25.3625 35.5769 25.2894 35.5769C25.2164 35.5769 25.1441 35.5624 25.0767 35.5342C25.0093 35.506 24.9482 35.4646 24.8969 35.4126C24.8456 35.3605 24.8052 35.2988 24.778 35.231C24.7508 35.1632 24.7374 35.0907 24.7385 35.0176V34.1166L24.101 34.7541C23.9977 34.8574 23.8576 34.9155 23.7115 34.9154C23.5654 34.9154 23.4252 34.8574 23.3219 34.7541C23.2186 34.6507 23.1606 34.5106 23.1606 34.3645C23.1606 34.2184 23.2187 34.0783 23.322 33.975L23.9595 33.3375H23.0585C22.9138 33.3353 22.7758 33.2763 22.6743 33.1732C22.5727 33.0701 22.5158 32.9313 22.5158 32.7866C22.5158 32.6419 22.5727 32.503 22.6743 32.3999C22.7758 32.2968 22.9138 32.2378 23.0585 32.2356H23.9595L23.322 31.5981C23.2207 31.4944 23.1644 31.3549 23.1653 31.21C23.1661 31.065 23.2241 30.9262 23.3266 30.8237C23.4291 30.7212 23.5679 30.6632 23.7129 30.6624C23.8578 30.6615 23.9973 30.7178 24.101 30.8191L24.7385 31.4566V30.5562C24.7407 30.4116 24.7997 30.2736 24.9028 30.172C25.0059 30.0705 25.1447 30.0135 25.2894 30.0135C25.4341 30.0135 25.573 30.0705 25.6761 30.172C25.7792 30.2736 25.8382 30.4116 25.8404 30.5562V31.4573L26.4779 30.8197C26.529 30.7686 26.5898 30.728 26.6566 30.7003C26.7234 30.6726 26.7951 30.6584 26.8674 30.6584C26.9397 30.6584 27.0114 30.6726 27.0782 30.7003C27.145 30.728 27.2058 30.7685 27.2569 30.8197C27.3081 30.8708 27.3487 30.9316 27.3764 30.9984C27.4041 31.0652 27.4183 31.1369 27.4183 31.2092C27.4183 31.2815 27.4041 31.3532 27.3764 31.42C27.3487 31.4869 27.3081 31.5476 27.257 31.5987L26.6195 32.2363H27.5205C27.6652 32.2384 27.8032 32.2974 27.9047 32.4005C28.0063 32.5036 28.0632 32.6425 28.0632 32.7872C28.0632 32.9319 28.0063 33.0708 27.9047 33.1739C27.8032 33.2769 27.6652 33.3359 27.5205 33.3381H26.6195L27.257 33.9756V33.975ZM33.9671 33.975C34.0704 34.0783 34.1285 34.2184 34.1285 34.3646C34.1285 34.5107 34.0704 34.6508 33.9671 34.7541C33.8638 34.8574 33.7237 34.9155 33.5776 34.9155C33.4314 34.9155 33.2913 34.8574 33.188 34.7541L32.5505 34.1166V35.0176C32.5505 35.1637 32.4925 35.3038 32.3892 35.4072C32.2858 35.5105 32.1457 35.5685 31.9996 35.5685C31.8535 35.5685 31.7134 35.5105 31.6101 35.4072C31.5068 35.3038 31.4487 35.1637 31.4487 35.0176V34.1166L30.8113 34.7541C30.7079 34.8574 30.5678 34.9155 30.4217 34.9154C30.2756 34.9154 30.1355 34.8574 30.0322 34.7541C29.9289 34.6507 29.8709 34.5106 29.8709 34.3645C29.8709 34.2184 29.9289 34.0783 30.0322 33.975L30.6698 33.3375H29.7687C29.6241 33.3353 29.4861 33.2763 29.3845 33.1732C29.283 33.0701 29.226 32.9313 29.226 32.7866C29.226 32.6419 29.283 32.503 29.3845 32.3999C29.4861 32.2968 29.6241 32.2378 29.7687 32.2356H30.6698L30.0322 31.5981C29.9801 31.5472 29.9386 31.4864 29.9101 31.4193C29.8816 31.3522 29.8667 31.2802 29.8663 31.2073C29.8658 31.1344 29.8799 31.0621 29.9076 30.9947C29.9353 30.9273 29.9761 30.866 30.0276 30.8145C30.0791 30.7629 30.1404 30.7221 30.2078 30.6944C30.2753 30.6667 30.3475 30.6527 30.4204 30.6531C30.4933 30.6536 30.5654 30.6685 30.6325 30.697C30.6996 30.7254 30.7603 30.767 30.8113 30.8191L31.4487 31.4566V30.5562C31.4487 30.4101 31.5068 30.27 31.6101 30.1667C31.7134 30.0634 31.8535 30.0054 31.9996 30.0054C32.1457 30.0054 32.2858 30.0634 32.3892 30.1667C32.4925 30.27 32.5505 30.4101 32.5505 30.5562V31.4573L33.188 30.8197C33.2913 30.7164 33.4314 30.6584 33.5775 30.6584C33.7236 30.6584 33.8637 30.7164 33.9671 30.8197C34.0704 30.923 34.1284 31.0631 34.1284 31.2092C34.1285 31.3553 34.0704 31.4954 33.9671 31.5987L33.3296 32.2363H34.2306C34.3753 32.2384 34.5133 32.2974 34.6149 32.4005C34.7164 32.5036 34.7733 32.6425 34.7733 32.7872C34.7733 32.9319 34.7164 33.0708 34.6149 33.1739C34.5133 33.2769 34.3753 33.3359 34.2306 33.3381H33.33L33.9675 33.9756L33.9671 33.975ZM41.8796 29.7843C41.9772 29.7849 42.0705 29.8239 42.1395 29.8929C42.2084 29.9619 42.2475 30.0552 42.2481 30.1528V35.4214C42.2475 35.5189 42.2084 35.6122 42.1395 35.6812C42.0705 35.7501 41.9771 35.7891 41.8796 35.7897H22.12C22.0225 35.7891 21.9291 35.7501 21.8602 35.6812C21.7912 35.6122 21.7522 35.5189 21.7515 35.4214V30.153C21.7522 30.0555 21.7912 29.9621 21.8602 29.8932C21.9291 29.8242 22.0225 29.7852 22.12 29.7845L41.8796 29.7843ZM20.3209 44.3633C17.4894 41.1851 15.8695 37.0257 15.8695 31.3107V17.934C20.9015 16.7513 28.907 14.7057 32 12.5384C35.0929 14.7057 43.0985 16.7509 48.1305 17.934V31.3107C48.1305 37.0251 46.5106 41.1858 43.6791 44.3634C40.8625 47.525 36.8345 49.7422 32 51.5625C27.1655 49.7426 23.1375 47.525 20.3209 44.3636V44.3633ZM31.8084 52.6626C21.4834 48.815 14.7676 43.2001 14.7676 31.3107V17.4982C14.7676 17.3688 14.8132 17.2435 14.8964 17.1443C14.9796 17.045 15.095 16.9783 15.2225 16.9557C19.7303 15.9047 23.362 14.9131 26.1174 13.9808C28.8366 13.0605 30.6827 12.2085 31.6555 11.4246C31.7542 11.3453 31.8773 11.3025 32.0039 11.3034C32.1305 11.3043 32.2529 11.3489 32.3505 11.4296C34.9846 13.5796 43.9721 15.8366 48.8061 16.9627C48.927 16.991 49.0348 17.0593 49.112 17.1565C49.1892 17.2538 49.2312 17.3743 49.2311 17.4985V31.311C49.2311 43.1985 42.5161 48.8163 32.1903 52.6629C32.0668 52.7091 31.9307 52.7091 31.8072 52.6629L31.8084 52.6626ZM22.8569 41.6931C20.638 39.2026 19.3694 35.9399 19.3694 31.4556V20.9761C23.3406 20.0404 29.513 18.4556 32.0005 16.761C34.488 18.4556 40.6604 20.0404 44.6316 20.9761V31.4554C44.6316 35.94 43.3624 39.2026 41.1441 41.6929C38.9401 44.1666 35.787 45.9064 32.0011 47.3353C28.2154 45.9064 25.0621 44.1666 22.8581 41.6929L22.8569 41.6931ZM31.8084 48.4361C23.6051 45.3793 18.2669 40.9034 18.2669 31.4554V20.5401C18.2669 20.4107 18.3125 20.2853 18.3956 20.1861C18.4788 20.0869 18.5943 20.0201 18.7218 19.9975C22.278 19.1684 25.1422 18.3862 27.3143 17.651C29.4504 16.9282 30.8975 16.2615 31.6555 15.651C31.7542 15.5717 31.8773 15.5289 32.0039 15.5298C32.1305 15.5307 32.2529 15.5753 32.3505 15.656C34.4111 17.3376 41.5115 19.1206 45.3068 20.0047C45.4277 20.033 45.5355 20.1013 45.6127 20.1986C45.6898 20.2959 45.7318 20.4164 45.7318 20.5406V31.4559C45.7318 40.9028 40.3943 45.3809 32.1903 48.4366C32.0668 48.4828 31.9307 48.4828 31.8072 48.4366L31.8084 48.4361ZM24.8787 36.8919H39.1211V39.2061H24.8789V36.8919H24.8787ZM39.121 28.6826H24.8789V26.5804H39.1211V28.6826H39.121ZM35.5288 25.4785H28.4713V23.1366C28.4736 22.4514 28.7468 21.7948 29.2314 21.3102C29.7159 20.8257 30.3725 20.5524 31.0578 20.55H32.9422C33.6275 20.5524 34.284 20.8256 34.7686 21.3102C35.2532 21.7947 35.5265 22.4512 35.5289 23.1365V25.4784L35.5288 25.4785ZM27.3692 25.4785V23.1366C27.3717 22.1592 27.7611 21.2225 28.4523 20.5313C29.1435 19.8401 30.0802 19.4507 31.0576 19.4482H32.9421C33.9196 19.4507 34.8563 19.8401 35.5475 20.5313C36.2387 21.2224 36.6281 22.1592 36.6306 23.1366V25.4785H39.672C39.8181 25.4785 39.9582 25.5365 40.0615 25.6398C40.1648 25.7432 40.2229 25.8833 40.2229 26.0294V28.6826H41.88C42.2697 28.6835 42.6431 28.8387 42.9186 29.1143C43.1941 29.3898 43.3492 29.7633 43.35 30.153V35.4216C43.3492 35.8113 43.1941 36.1849 42.9185 36.4605C42.6429 36.736 42.2693 36.8911 41.8796 36.8919H40.223V39.7571C40.223 39.9032 40.165 40.0433 40.0617 40.1467C39.9583 40.25 39.8182 40.308 39.6721 40.308H24.3279C24.1818 40.308 24.0417 40.25 23.9383 40.1467C23.835 40.0433 23.777 39.9032 23.777 39.7571V36.8919H22.12C21.7304 36.891 21.3569 36.7358 21.0814 36.4603C20.8059 36.1847 20.6508 35.8113 20.65 35.4216V30.153C20.6508 29.7633 20.8059 29.3897 21.0815 29.1141C21.3571 28.8385 21.7306 28.6834 22.1204 28.6826H23.7774V26.0294C23.7774 25.8833 23.8354 25.7432 23.9387 25.6398C24.042 25.5365 24.1821 25.4785 24.3283 25.4785H27.3692ZM60.8783 32C60.8783 47.9489 47.9489 60.8783 32 60.8783C16.0511 60.8783 3.12188 47.9489 3.12188 32C3.12188 16.0511 16.0511 3.12188 32 3.12188C47.9489 3.12188 60.8783 16.0511 60.8783 32Z" fill="url(#paint0_linear_1380_6316)"/>
<defs>
<linearGradient id="paint0_linear_1380_6316" x1="2" y1="32" x2="62" y2="32" gradientUnits="userSpaceOnUse">
<stop stop-color="#127FFF"/>
<stop offset="1" stop-color="#266CD3"/>
</linearGradient>
</defs>
</svg>
