<svg width="100" height="110" viewBox="0 0 100 110" fill="none" xmlns="http://www.w3.org/2000/svg">
<g id="Group 38">
<g id="Group 37">
<path id="Vector 10" d="M77.6569 27.6569L50 0H28C23.5817 0 20 3.58172 20 8V72C20 76.4183 23.5817 80 28 80H72C76.4183 80 80 76.4183 80 72V33.3137C80 31.192 79.1571 29.1571 77.6569 27.6569Z" fill="#4E4E4E"/>
<path id="Vector 11" d="M50 30V0L80 30H50Z" fill="#878686"/>
<rect id="Rectangle 34624815" x="30" y="69" width="40" height="2" rx="1" fill="#878686"/>
<rect id="Rectangle 34624816" x="30" y="59" width="40" height="2" rx="1" fill="#878686"/>
<rect id="Rectangle 34624818" x="30" y="49" width="40" height="2" rx="1" fill="#878686"/>
<rect id="Rectangle 34624817" x="30" y="39" width="40" height="2" rx="1" fill="#878686"/>
<rect id="Rectangle 34624819" x="30" y="28" width="15" height="2" rx="1" fill="#878686"/>
<rect id="Rectangle 34624820" x="30" y="17" width="15" height="2" rx="1" fill="#878686"/>
</g>
<ellipse id="Ellipse 5" cx="50" cy="100" rx="50" ry="10" fill="#353434"/>
<ellipse id="Ellipse 6" cx="50" cy="100" rx="30" ry="4" fill="#4E4E4E"/>
</g>
</svg>
